<?xml version="1.0" encoding="UTF-8" standalone="no"?>
<svg width="210.058mm" height="296.926mm" viewBox="0 0 2977.2 4208.4"
 xmlns="http://www.w3.org/2000/svg" xmlns:xlink="http://www.w3.org/1999/xlink" version="1.2" baseProfile="full">
<title>CB014x_cgm716</title>
<desc>Generated by MuseScore Studio 4.6.5</desc>
<polyline class="StaffLines" fill="none" stroke="#000000" stroke-width="2.90" stroke-linejoin="bevel" points="212.598,250.543 2764.6,250.543" />
<polyline class="StaffLines" fill="none" stroke="#000000" stroke-width="2.90" stroke-linejoin="bevel" points="212.598,276.906 2764.6,276.906" />
<polyline class="StaffLines" fill="none" stroke="#000000" stroke-width="2.90" stroke-linejoin="bevel" points="212.598,303.268 2764.6,303.268" />
<polyline class="StaffLines" fill="none" stroke="#000000" stroke-width="2.90" stroke-linejoin="bevel" points="212.598,329.63 2764.6,329.63" />
<polyline class="StaffLines" fill="none" stroke="#000000" stroke-width="2.90" stroke-linejoin="bevel" points="212.598,355.992 2764.6,355.992" />
<polyline class="StaffLines" fill="none" stroke="#000000" stroke-width="2.90" stroke-linejoin="bevel" points="212.598,600.718 2764.6,600.718" />
<polyline class="StaffLines" fill="none" stroke="#000000" stroke-width="2.90" stroke-linejoin="bevel" points="212.598,627.081 2764.6,627.081" />
<polyline class="StaffLines" fill="none" stroke="#000000" stroke-width="2.90" stroke-linejoin="bevel" points="212.598,653.443 2764.6,653.443" />
<polyline class="StaffLines" fill="none" stroke="#000000" stroke-width="2.90" stroke-linejoin="bevel" points="212.598,679.805 2764.6,679.805" />
<polyline class="StaffLines" fill="none" stroke="#000000" stroke-width="2.90" stroke-linejoin="bevel" points="212.598,706.167 2764.6,706.167" />
<polyline class="BarLine" fill="none" stroke="#000000" stroke-width="4.75" stroke-linejoin="bevel" points="2762.23,275.456 2762.23,331.08" />
<polyline class="BarLine" fill="none" stroke="#000000" stroke-width="4.75" stroke-linejoin="bevel" points="2737.98,599.268 2737.98,707.617" />
<polyline class="BarLine" fill="none" stroke="#000000" stroke-width="14.50" stroke-linejoin="bevel" points="2757.35,599.268 2757.35,707.617" />
<path class="SlurSegment" stroke="#000000" stroke-width="1.32" stroke-linecap="round" stroke-linejoin="round" fill-rule="evenodd" d="M2365.98,634.198 C2377.67,615.609 2410.63,609.018 2431.91,629.717 C2411.97,615.724 2379.01,622.315 2365.98,634.198"/>
<path class="SlurSegment" stroke="#000000" stroke-width="1.32" stroke-linecap="round" stroke-linejoin="round" fill-rule="evenodd" d="M621.822,642.898 C639.951,619.775 672.913,622.016 687.747,647.379 C672.448,628.862 639.486,626.621 621.822,642.898"/>
<path class="SlurSegment" stroke="#000000" stroke-width="1.32" stroke-linecap="round" stroke-linejoin="round" fill-rule="evenodd" d="M1936.93,669.26 C1962.75,652.489 1995.71,665.67 2002.85,695.622 C1993.09,672.223 1960.13,659.042 1936.93,669.26"/>
<path class="SlurSegment" stroke="#000000" stroke-width="1.32" stroke-linecap="round" stroke-linejoin="round" fill-rule="evenodd" d="M1805.08,642.898 C1823.21,619.775 1856.17,622.016 1871,647.379 C1855.7,628.862 1822.74,626.621 1805.08,642.898"/>
<path class="SlurSegment" stroke="#000000" stroke-width="1.32" stroke-linecap="round" stroke-linejoin="round" fill-rule="evenodd" d="M1574.34,669.26 C1592.47,646.138 1625.43,648.378 1640.26,673.742 C1624.97,655.224 1592,652.983 1574.34,669.26"/>
<path class="SlurSegment" stroke="#000000" stroke-width="1.32" stroke-linecap="round" stroke-linejoin="round" fill-rule="evenodd" d="M2522.87,297.205 C2555.18,265.884 2610.76,274.7 2626.56,315.922 C2609.01,282.949 2553.44,274.133 2522.87,297.205"/>
<path class="SlurSegment" stroke="#000000" stroke-width="1.32" stroke-linecap="round" stroke-linejoin="round" fill-rule="evenodd" d="M1997.11,319.085 C2022.89,302.354 2055.75,315.535 2062.83,345.447 C2053.13,322.079 2020.27,308.898 1997.11,319.085"/>
<path class="SlurSegment" stroke="#000000" stroke-width="1.32" stroke-linecap="round" stroke-linejoin="round" fill-rule="evenodd" d="M1865.66,292.723 C1883.74,269.637 1916.6,271.878 1931.38,297.205 C1916.14,278.715 1883.28,276.474 1865.66,292.723"/>
<path class="SlurSegment" stroke="#000000" stroke-width="1.32" stroke-linecap="round" stroke-linejoin="round" fill-rule="evenodd" d="M1635.64,319.085 C1653.72,295.999 1686.58,298.24 1701.36,323.567 C1686.12,305.077 1653.26,302.836 1635.64,319.085"/>
<path class="SlurSegment" stroke="#000000" stroke-width="1.32" stroke-linecap="round" stroke-linejoin="round" fill-rule="evenodd" d="M1504.2,292.723 C1522.28,269.637 1555.14,271.878 1569.92,297.205 C1554.67,278.715 1521.81,276.474 1504.2,292.723"/>
<path class="SlurSegment" stroke="#000000" stroke-width="1.32" stroke-linecap="round" stroke-linejoin="round" fill-rule="evenodd" d="M1014.93,279.542 C1048.44,256.31 1100.28,269.491 1118.62,305.904 C1098.2,277.666 1046.36,264.485 1014.93,279.542"/>
<path class="SlurSegment" stroke="#000000" stroke-width="1.32" stroke-linecap="round" stroke-linejoin="round" fill-rule="evenodd" d="M784.91,319.085 C802.99,295.999 835.851,298.24 850.63,323.567 C835.385,305.077 802.524,302.836 784.91,319.085"/>
<path class="SlurSegment" stroke="#000000" stroke-width="1.32" stroke-linecap="round" stroke-linejoin="round" fill-rule="evenodd" d="M653.468,292.723 C671.549,269.637 704.409,271.878 719.189,297.205 C703.943,278.715 671.083,276.474 653.468,292.723"/>
<path class="SlurSegment" stroke="#000000" stroke-width="1.32" stroke-linecap="round" stroke-linejoin="round" fill-rule="evenodd" d="M1442.49,642.898 C1460.62,619.775 1493.58,622.016 1508.42,647.379 C1493.12,628.862 1460.15,626.621 1442.49,642.898"/>
<path class="SlurSegment" stroke="#000000" stroke-width="1.32" stroke-linecap="round" stroke-linejoin="round" fill-rule="evenodd" d="M989.817,629.717 C1023.39,606.441 1075.39,619.623 1093.83,656.079 C1073.32,627.8 1021.32,614.619 989.817,629.717"/>
<path class="SlurSegment" stroke="#000000" stroke-width="1.32" stroke-linecap="round" stroke-linejoin="round" fill-rule="evenodd" d="M2497.83,669.26 C2523.83,638.889 2575.84,638.889 2601.84,669.26 C2575.84,647.268 2523.83,647.268 2497.83,669.26"/>
<path class="SlurSegment" stroke="#000000" stroke-width="1.32" stroke-linecap="round" stroke-linejoin="round" fill-rule="evenodd" d="M753.671,669.26 C772.368,645.714 806.526,647.955 821.986,673.742 C806.07,654.896 771.913,652.655 753.671,669.26"/>
<polyline class="LedgerLine" fill="none" stroke="#000000" stroke-width="4.22" stroke-linejoin="bevel" points="2043.49,732.529 2095.15,732.529" />
<polyline class="LedgerLine" fill="none" stroke="#000000" stroke-width="4.22" stroke-linejoin="bevel" points="2102.72,382.354 2154.37,382.354" />
<path class="Note" transform="matrix(1.05449,0,0,1.05449,1271.28,316.449)" d="M0,4.2 C0,8.5 3.1,13.3 11.2,13.3 C21.6,13.3 32.5,4.8 32.5,-4 C32.5,-9.9 27.5,-13.2 21.3,-13.2 C11.6,-13.2 0,-5 0,4.2"/>
<path class="Note" transform="matrix(1.05449,0,0,1.05449,2308.58,342.811)" d="M0,4.2 C0,8.5 3.1,13.3 11.2,13.3 C21.6,13.3 32.5,4.8 32.5,-4 C32.5,-9.9 27.5,-13.2 21.3,-13.2 C11.6,-13.2 0,-5 0,4.2"/>
<path class="Note" transform="matrix(1.05449,0,0,1.05449,1049.65,329.63)" d="M0,4.2 C0,8.5 3.1,13.3 11.2,13.3 C21.6,13.3 32.5,4.8 32.5,-4 C32.5,-9.9 27.5,-13.2 21.3,-13.2 C11.6,-13.2 0,-5 0,4.2"/>
<path class="Note" transform="matrix(1.05449,0,0,1.05449,1979.98,342.811)" d="M0,4.2 C0,8.5 3.1,13.3 11.2,13.3 C21.6,13.3 32.5,4.8 32.5,-4 C32.5,-9.9 27.5,-13.2 21.3,-13.2 C11.6,-13.2 0,-5 0,4.2"/>
<path class="Note" transform="matrix(1.05449,0,0,1.05449,1914.26,329.63)" d="M0,4.2 C0,8.5 3.1,13.3 11.2,13.3 C21.6,13.3 32.5,4.8 32.5,-4 C32.5,-9.9 27.5,-13.2 21.3,-13.2 C11.6,-13.2 0,-5 0,4.2"/>
<path class="Note" transform="matrix(1.05449,0,0,1.05449,2111.42,382.354)" d="M0,4.2 C0,8.5 3.1,13.3 11.2,13.3 C21.6,13.3 32.5,4.8 32.5,-4 C32.5,-9.9 27.5,-13.2 21.3,-13.2 C11.6,-13.2 0,-5 0,4.2"/>
<path class="Note" transform="matrix(1.05449,0,0,1.05449,2348.85,679.805)" d="M0,4.2 C0,8.5 3.1,13.3 11.2,13.3 C21.6,13.3 32.5,4.8 32.5,-4 C32.5,-9.9 27.5,-13.2 21.3,-13.2 C11.6,-13.2 0,-5 0,4.2"/>
<path class="Note" transform="matrix(1.05449,0,0,1.05449,2210,369.173)" d="M0,4.2 C0,8.5 3.1,13.3 11.2,13.3 C21.6,13.3 32.5,4.8 32.5,-4 C32.5,-9.9 27.5,-13.2 21.3,-13.2 C11.6,-13.2 0,-5 0,4.2"/>
<path class="Note" transform="matrix(1.05449,0,0,1.05449,997.805,316.449)" d="M0,4.2 C0,8.5 3.1,13.3 11.2,13.3 C21.6,13.3 32.5,4.8 32.5,-4 C32.5,-9.9 27.5,-13.2 21.3,-13.2 C11.6,-13.2 0,-5 0,4.2"/>
<path class="Note" transform="matrix(1.05449,0,0,1.05449,1848.54,316.449)" d="M0,4.2 C0,8.5 3.1,13.3 11.2,13.3 C21.6,13.3 32.5,4.8 32.5,-4 C32.5,-9.9 27.5,-13.2 21.3,-13.2 C11.6,-13.2 0,-5 0,4.2"/>
<path class="Note" transform="matrix(1.05449,0,0,1.05449,2249.97,692.986)" d="M0,4.2 C0,8.5 3.1,13.3 11.2,13.3 C21.6,13.3 32.5,4.8 32.5,-4 C32.5,-9.9 27.5,-13.2 21.3,-13.2 C11.6,-13.2 0,-5 0,4.2"/>
<path class="Note" transform="matrix(1.05449,0,0,1.05449,899.224,329.63)" d="M0,4.2 C0,8.5 3.1,13.3 11.2,13.3 C21.6,13.3 32.5,4.8 32.5,-4 C32.5,-9.9 27.5,-13.2 21.3,-13.2 C11.6,-13.2 0,-5 0,4.2"/>
<path class="Note" transform="matrix(1.05449,0,0,1.05449,833.503,355.992)" d="M0,4.2 C0,8.5 3.1,13.3 11.2,13.3 C21.6,13.3 32.5,4.8 32.5,-4 C32.5,-9.9 27.5,-13.2 21.3,-13.2 C11.6,-13.2 0,-5 0,4.2"/>
<path class="Note" transform="matrix(1.05449,0,0,1.05449,2414.78,666.624)" d="M0,4.2 C0,8.5 3.1,13.3 11.2,13.3 C21.6,13.3 32.5,4.8 32.5,-4 C32.5,-9.9 27.5,-13.2 21.3,-13.2 C11.6,-13.2 0,-5 0,4.2"/>
<path class="Note" transform="matrix(1.05449,0,0,1.05449,2407.16,342.811)" d="M0,4.2 C0,8.5 3.1,13.3 11.2,13.3 C21.6,13.3 32.5,4.8 32.5,-4 C32.5,-9.9 27.5,-13.2 21.3,-13.2 C11.6,-13.2 0,-5 0,4.2"/>
<path class="Note" transform="matrix(1.05449,0,0,1.05449,2151.08,719.348)" d="M0,4.2 C0,8.5 3.1,13.3 11.2,13.3 C21.6,13.3 32.5,4.8 32.5,-4 C32.5,-9.9 27.5,-13.2 21.3,-13.2 C11.6,-13.2 0,-5 0,4.2"/>
<path class="Note" transform="matrix(1.05449,0,0,1.05449,2505.74,329.63)" d="M0,4.2 C0,8.5 3.1,13.3 11.2,13.3 C21.6,13.3 32.5,4.8 32.5,-4 C32.5,-9.9 27.5,-13.2 21.3,-13.2 C11.6,-13.2 0,-5 0,4.2"/>
<path class="Note" transform="matrix(1.05449,0,0,1.05449,2052.19,732.529)" d="M0,4.2 C0,8.5 3.1,13.3 11.2,13.3 C21.6,13.3 32.5,4.8 32.5,-4 C32.5,-9.9 27.5,-13.2 21.3,-13.2 C11.6,-13.2 0,-5 0,4.2"/>
<path class="Note" transform="matrix(1.05449,0,0,1.05449,1749.96,329.63)" d="M0,4.2 C0,8.5 3.1,13.3 11.2,13.3 C21.6,13.3 32.5,4.8 32.5,-4 C32.5,-9.9 27.5,-13.2 21.3,-13.2 C11.6,-13.2 0,-5 0,4.2"/>
<path class="Note" transform="matrix(1.05449,0,0,1.05449,2557.59,316.449)" d="M0,4.2 C0,8.5 3.1,13.3 11.2,13.3 C21.6,13.3 32.5,4.8 32.5,-4 C32.5,-9.9 27.5,-13.2 21.3,-13.2 C11.6,-13.2 0,-5 0,4.2"/>
<path class="Note" transform="matrix(1.05449,0,0,1.05449,2609.43,342.811)" d="M0,4.2 C0,8.5 3.1,13.3 11.2,13.3 C21.6,13.3 32.5,4.8 32.5,-4 C32.5,-9.9 27.5,-13.2 21.3,-13.2 C11.6,-13.2 0,-5 0,4.2"/>
<path class="Note" transform="matrix(1.05449,0,0,1.05449,2661.28,342.811)" d="M0,4.2 C0,8.5 3.1,13.3 11.2,13.3 C21.6,13.3 32.5,4.8 32.5,-4 C32.5,-9.9 27.5,-13.2 21.3,-13.2 C11.6,-13.2 0,-5 0,4.2"/>
<path class="Note" transform="matrix(1.05449,0,0,1.05449,767.782,342.811)" d="M0,4.2 C0,8.5 3.1,13.3 11.2,13.3 C21.6,13.3 32.5,4.8 32.5,-4 C32.5,-9.9 27.5,-13.2 21.3,-13.2 C11.6,-13.2 0,-5 0,4.2"/>
<path class="Note" transform="matrix(1.05449,0,0,1.05449,702.062,329.63)" d="M0,4.2 C0,8.5 3.1,13.3 11.2,13.3 C21.6,13.3 32.5,4.8 32.5,-4 C32.5,-9.9 27.5,-13.2 21.3,-13.2 C11.6,-13.2 0,-5 0,4.2"/>
<path class="Note" transform="matrix(1.05449,0,0,1.05449,1101.49,342.811)" d="M0,4.2 C0,8.5 3.1,13.3 11.2,13.3 C21.6,13.3 32.5,4.8 32.5,-4 C32.5,-9.9 27.5,-13.2 21.3,-13.2 C11.6,-13.2 0,-5 0,4.2"/>
<path class="Note" transform="matrix(1.05449,0,0,1.05449,1153.34,342.811)" d="M0,4.2 C0,8.5 3.1,13.3 11.2,13.3 C21.6,13.3 32.5,4.8 32.5,-4 C32.5,-9.9 27.5,-13.2 21.3,-13.2 C11.6,-13.2 0,-5 0,4.2"/>
<path class="Note" transform="matrix(1.05449,0,0,1.05449,1684.23,355.992)" d="M0,4.2 C0,8.5 3.1,13.3 11.2,13.3 C21.6,13.3 32.5,4.8 32.5,-4 C32.5,-9.9 27.5,-13.2 21.3,-13.2 C11.6,-13.2 0,-5 0,4.2"/>
<path class="Note" transform="matrix(1.05449,0,0,1.05449,2480.7,692.986)" d="M0,4.2 C0,8.5 3.1,13.3 11.2,13.3 C21.6,13.3 32.5,4.8 32.5,-4 C32.5,-9.9 27.5,-13.2 21.3,-13.2 C11.6,-13.2 0,-5 0,4.2"/>
<path class="Note" transform="matrix(1.05449,0,0,1.05449,1618.51,342.811)" d="M0,4.2 C0,8.5 3.1,13.3 11.2,13.3 C21.6,13.3 32.5,4.8 32.5,-4 C32.5,-9.9 27.5,-13.2 21.3,-13.2 C11.6,-13.2 0,-5 0,4.2"/>
<path class="Note" transform="matrix(1.05449,0,0,1.05449,1552.79,329.63)" d="M0,4.2 C0,8.5 3.1,13.3 11.2,13.3 C21.6,13.3 32.5,4.8 32.5,-4 C32.5,-9.9 27.5,-13.2 21.3,-13.2 C11.6,-13.2 0,-5 0,4.2"/>
<path class="Note" transform="matrix(1.05449,0,0,1.05449,2532.71,679.805)" d="M0,4.2 C0,8.5 3.1,13.3 11.2,13.3 C21.6,13.3 32.5,4.8 32.5,-4 C32.5,-9.9 27.5,-13.2 21.3,-13.2 C11.6,-13.2 0,-5 0,4.2"/>
<path class="Note" transform="matrix(1.05449,0,0,1.05449,1487.07,316.449)" d="M0,4.2 C0,8.5 3.1,13.3 11.2,13.3 C21.6,13.3 32.5,4.8 32.5,-4 C32.5,-9.9 27.5,-13.2 21.3,-13.2 C11.6,-13.2 0,-5 0,4.2"/>
<path class="Note" transform="matrix(1.05449,0,0,1.05449,2584.71,692.986)" d="M0,4.2 C0,8.5 3.1,13.3 11.2,13.3 C21.6,13.3 32.5,4.8 32.5,-4 C32.5,-9.9 27.5,-13.2 21.3,-13.2 C11.6,-13.2 0,-5 0,4.2"/>
<path class="Note" transform="matrix(1.05449,0,0,1.05449,1985.72,719.348)" d="M0,4.2 C0,8.5 3.1,13.3 11.2,13.3 C21.6,13.3 32.5,4.8 32.5,-4 C32.5,-9.9 27.5,-13.2 21.3,-13.2 C11.6,-13.2 0,-5 0,4.2"/>
<path class="Note" transform="matrix(1.05449,0,0,1.05449,1919.8,692.986)" d="M0,4.2 C0,8.5 3.1,13.3 11.2,13.3 C21.6,13.3 32.5,4.8 32.5,-4 C32.5,-9.9 27.5,-13.2 21.3,-13.2 C11.6,-13.2 0,-5 0,4.2"/>
<path class="Note" transform="matrix(1.05449,0,0,1.05449,1853.87,679.805)" d="M0,4.2 C0,8.5 3.1,13.3 11.2,13.3 C21.6,13.3 32.5,4.8 32.5,-4 C32.5,-9.9 27.5,-13.2 21.3,-13.2 C11.6,-13.2 0,-5 0,4.2"/>
<path class="Note" transform="matrix(1.05449,0,0,1.05449,1787.95,666.624)" d="M0,4.2 C0,8.5 3.1,13.3 11.2,13.3 C21.6,13.3 32.5,4.8 32.5,-4 C32.5,-9.9 27.5,-13.2 21.3,-13.2 C11.6,-13.2 0,-5 0,4.2"/>
<path class="Note" transform="matrix(1.05449,0,0,1.05449,1689.06,679.805)" d="M0,4.2 C0,8.5 3.1,13.3 11.2,13.3 C21.6,13.3 32.5,4.8 32.5,-4 C32.5,-9.9 27.5,-13.2 21.3,-13.2 C11.6,-13.2 0,-5 0,4.2"/>
<path class="Note" transform="matrix(1.05449,0,0,1.05449,636.341,316.449)" d="M0,4.2 C0,8.5 3.1,13.3 11.2,13.3 C21.6,13.3 32.5,4.8 32.5,-4 C32.5,-9.9 27.5,-13.2 21.3,-13.2 C11.6,-13.2 0,-5 0,4.2"/>
<path class="Note" transform="matrix(1.05449,0,0,1.05449,1388.49,303.268)" d="M0,4.2 C0,8.5 3.1,13.3 11.2,13.3 C21.6,13.3 32.5,4.8 32.5,-4 C32.5,-9.9 27.5,-13.2 21.3,-13.2 C11.6,-13.2 0,-5 0,4.2"/>
<path class="Note" transform="matrix(1.05449,0,0,1.05449,1623.14,706.167)" d="M0,4.2 C0,8.5 3.1,13.3 11.2,13.3 C21.6,13.3 32.5,4.8 32.5,-4 C32.5,-9.9 27.5,-13.2 21.3,-13.2 C11.6,-13.2 0,-5 0,4.2"/>
<path class="Note" transform="matrix(1.05449,0,0,1.05449,1557.21,692.986)" d="M0,4.2 C0,8.5 3.1,13.3 11.2,13.3 C21.6,13.3 32.5,4.8 32.5,-4 C32.5,-9.9 27.5,-13.2 21.3,-13.2 C11.6,-13.2 0,-5 0,4.2"/>
<path class="Note" transform="matrix(1.05449,0,0,1.05449,1491.29,679.805)" d="M0,4.2 C0,8.5 3.1,13.3 11.2,13.3 C21.6,13.3 32.5,4.8 32.5,-4 C32.5,-9.9 27.5,-13.2 21.3,-13.2 C11.6,-13.2 0,-5 0,4.2"/>
<path class="Note" transform="matrix(1.05449,0,0,1.05449,1425.36,666.624)" d="M0,4.2 C0,8.5 3.1,13.3 11.2,13.3 C21.6,13.3 32.5,4.8 32.5,-4 C32.5,-9.9 27.5,-13.2 21.3,-13.2 C11.6,-13.2 0,-5 0,4.2"/>
<path class="Note" transform="matrix(1.05449,0,0,1.05449,1326.48,653.443)" d="M0,4.2 C0,8.5 3.1,13.3 11.2,13.3 C21.6,13.3 32.5,4.8 32.5,-4 C32.5,-9.9 27.5,-13.2 21.3,-13.2 C11.6,-13.2 0,-5 0,4.2"/>
<path class="Note" transform="matrix(1.05449,0,0,1.05449,1227.59,692.986)" d="M0,4.2 C0,8.5 3.1,13.3 11.2,13.3 C21.6,13.3 32.5,4.8 32.5,-4 C32.5,-9.9 27.5,-13.2 21.3,-13.2 C11.6,-13.2 0,-5 0,4.2"/>
<path class="Note" transform="matrix(1.05449,0,0,1.05449,537.76,303.268)" d="M0,4.2 C0,8.5 3.1,13.3 11.2,13.3 C21.6,13.3 32.5,4.8 32.5,-4 C32.5,-9.9 27.5,-13.2 21.3,-13.2 C11.6,-13.2 0,-5 0,4.2"/>
<path class="Note" transform="matrix(1.05449,0,0,1.05449,2636.72,692.986)" d="M0,4.2 C0,8.5 3.1,13.3 11.2,13.3 C21.6,13.3 32.5,4.8 32.5,-4 C32.5,-9.9 27.5,-13.2 21.3,-13.2 C11.6,-13.2 0,-5 0,4.2"/>
<path class="Note" transform="matrix(1.05449,0,0,1.05449,406.921,316.449)" d="M0,4.2 C0,8.5 3.1,13.3 11.2,13.3 C21.6,13.3 32.5,4.8 32.5,-4 C32.5,-9.9 27.5,-13.2 21.3,-13.2 C11.6,-13.2 0,-5 0,4.2"/>
<path class="Note" transform="matrix(1.05449,0,0,1.05449,1128.7,692.986)" d="M0,4.2 C0,8.5 3.1,13.3 11.2,13.3 C21.6,13.3 32.5,4.8 32.5,-4 C32.5,-9.9 27.5,-13.2 21.3,-13.2 C11.6,-13.2 0,-5 0,4.2"/>
<path class="Note" transform="matrix(1.05449,0,0,1.05449,406.921,666.624)" d="M0,4.2 C0,8.5 3.1,13.3 11.2,13.3 C21.6,13.3 32.5,4.8 32.5,-4 C32.5,-9.9 27.5,-13.2 21.3,-13.2 C11.6,-13.2 0,-5 0,4.2"/>
<path class="Note" transform="matrix(1.05449,0,0,1.05449,1076.7,692.986)" d="M0,4.2 C0,8.5 3.1,13.3 11.2,13.3 C21.6,13.3 32.5,4.8 32.5,-4 C32.5,-9.9 27.5,-13.2 21.3,-13.2 C11.6,-13.2 0,-5 0,4.2"/>
<path class="Note" transform="matrix(1.05449,0,0,1.05449,505.808,653.443)" d="M0,4.2 C0,8.5 3.1,13.3 11.2,13.3 C21.6,13.3 32.5,4.8 32.5,-4 C32.5,-9.9 27.5,-13.2 21.3,-13.2 C11.6,-13.2 0,-5 0,4.2"/>
<path class="Note" transform="matrix(1.05449,0,0,1.05449,1024.69,679.805)" d="M0,4.2 C0,8.5 3.1,13.3 11.2,13.3 C21.6,13.3 32.5,4.8 32.5,-4 C32.5,-9.9 27.5,-13.2 21.3,-13.2 C11.6,-13.2 0,-5 0,4.2"/>
<path class="Note" transform="matrix(1.05449,0,0,1.05449,604.695,666.624)" d="M0,4.2 C0,8.5 3.1,13.3 11.2,13.3 C21.6,13.3 32.5,4.8 32.5,-4 C32.5,-9.9 27.5,-13.2 21.3,-13.2 C11.6,-13.2 0,-5 0,4.2"/>
<path class="Note" transform="matrix(1.05449,0,0,1.05449,972.689,666.624)" d="M0,4.2 C0,8.5 3.1,13.3 11.2,13.3 C21.6,13.3 32.5,4.8 32.5,-4 C32.5,-9.9 27.5,-13.2 21.3,-13.2 C11.6,-13.2 0,-5 0,4.2"/>
<path class="Note" transform="matrix(1.05449,0,0,1.05449,670.619,679.805)" d="M0,4.2 C0,8.5 3.1,13.3 11.2,13.3 C21.6,13.3 32.5,4.8 32.5,-4 C32.5,-9.9 27.5,-13.2 21.3,-13.2 C11.6,-13.2 0,-5 0,4.2"/>
<path class="Note" transform="matrix(1.05449,0,0,1.05449,736.544,692.986)" d="M0,4.2 C0,8.5 3.1,13.3 11.2,13.3 C21.6,13.3 32.5,4.8 32.5,-4 C32.5,-9.9 27.5,-13.2 21.3,-13.2 C11.6,-13.2 0,-5 0,4.2"/>
<path class="Note" transform="matrix(1.05449,0,0,1.05449,873.802,679.805)" d="M0,4.2 C0,8.5 3.1,13.3 11.2,13.3 C21.6,13.3 32.5,4.8 32.5,-4 C32.5,-9.9 27.5,-13.2 21.3,-13.2 C11.6,-13.2 0,-5 0,4.2"/>
<path class="Note" transform="matrix(1.05449,0,0,1.05449,804.859,706.167)" d="M0,4.2 C0,8.5 3.1,13.3 11.2,13.3 C21.6,13.3 32.5,4.8 32.5,-4 C32.5,-9.9 27.5,-13.2 21.3,-13.2 C11.6,-13.2 0,-5 0,4.2"/>
<path class="Note" transform="matrix(1.05449,0,0,1.05449,2045.7,369.173)" d="M0,4.2 C0,8.5 3.1,13.3 11.2,13.3 C21.6,13.3 32.5,4.8 32.5,-4 C32.5,-9.9 27.5,-13.2 21.3,-13.2 C11.6,-13.2 0,-5 0,4.2"/>
<path class="Clef" transform="matrix(1.05449,0,0,1.05449,232.37,679.805)" d="M36.2,21.2 C21.9,21.2 9.7,11.2 9.7,-3.9 C9.7,-16.1 18.3,-27 27.1,-34.7 C28.8,-36.1 30.4,-37.5 31.9,-39 C32.8,-33.6 33.5,-29 34.2,-24.8 C25.1,-22.2 18.9,-12.5 18.9,-3.2 C18.9,3.9 24.4,13.5 32.4,13.5 C33.2,13.5 34.1,13.1 34.1,12.1 C34.1,11.3 33.2,10.7 31.9,9.9 C28,7.6 25.8,4.9 25.8,0.1 C25.8,-6 30.4,-10.9 36.2,-12.3 L42,20.5 C40,20.9 38.2,21.2 36.2,21.2 M33.2,-82.2 C34.2,-86.2 38.7,-96.7 43.9,-96.7 C45.4,-96.7 47.9,-91.9 47.9,-84.9 C47.9,-74.6 40.1,-66.8 33.2,-59.9 C32.6,-63.9 32.1,-67.9 32.1,-72 C32.1,-75.8 32.5,-79.1 33.2,-82.2 M46.2,19.3 C44.1,7.4 41.4,-8.5 40.7,-12.9 C50.8,-12.9 55.1,-5.9 56,-1.1 C56.1,-0.3 56.3,0.8 56.3,2 C56.3,9.2 53.3,16.4 46.2,19.3 M32.3,87.7 C30.1,87.7 28.6,86.3 28.6,84.2 C28.6,82.2 29.5,80.6 31.2,79.6 C31.6,79.8 31.7,79.8 32,80 C33.2,80.6 33.2,80.6 33.4,80.8 C35.3,81.9 36.1,82.9 36.1,84.3 C36.1,86.2 34.5,87.7 32.3,87.7 M36.1,75.7 C34.6,74.9 34.2,74.7 33.9,74.5 L33.7,74.4 C32.2,73.5 31.7,72.8 31.7,71.6 C31.7,69.8 33.1,68.5 35.1,68.5 C37,68.5 38.2,69.7 38.2,71.8 C38.2,73.4 37.6,74.5 36.1,75.7 M64,-0.2 C64,-15.3 53.3,-25.5 38.7,-25.5 C37.7,-31.5 36.8,-37.4 35.9,-43 C46.4,-54.1 53.8,-66.7 53.8,-82.5 C53.8,-91.6 51,-99 49.3,-102.6 C46.9,-107.7 44,-111.2 42.3,-111.2 C41.6,-111.2 38.4,-110 35.2,-106.1 C28.7,-98.5 26.9,-85.8 26.9,-77.4 C26.9,-72 27.4,-67.1 29.1,-55.8 C29,-55.8 23.8,-50.5 21.7,-48.7 C12.6,-40.3 0,-28.1 0,-8.2 C0,10.6 16.3,25.3 34.9,25.3 C37.8,25.3 40.5,25 42.9,24.6 C44.7,34.1 45.9,41.2 45.9,46.5 C45.9,56.9 40.5,62.4 30.4,62.4 C28,62.4 25.9,61.9 25.7,61.8 C25.6,61.8 25.4,61.7 25.4,61.6 C25.4,61.4 25.6,61.3 25.9,61.2 C30.6,60.5 35.3,56.4 35.3,50.1 C35.3,44.7 31.2,39 23.7,39 C16.7,39 12.3,44.7 12.3,51.3 C12.3,57.9 17.3,66.6 30.8,66.6 C43.7,66.6 50,59.3 50,46.5 C50,42.6 49.4,38.1 48.4,32.4 C48.1,30.4 47.6,27.3 46.9,23.5 C56.7,20.2 64,10.1 64,-0.2 M42.3,71.7 C42.3,68 38.9,66.4 35.6,66.4 C31.4,66.4 27.3,69 27.3,73.5 C27.3,75.4 28,76.8 29.4,78.2 C26.8,79.2 24.2,81.2 24.2,84.3 C24.2,87.6 27.2,89.8 31.6,89.8 C37,89.8 40.8,86.8 40.8,82.5 C40.8,80.2 39.8,78.3 38,77 C40.9,75.7 42.3,74.1 42.3,71.7"/>
<path class="Clef" transform="matrix(1.05449,0,0,1.05449,232.37,329.63)" d="M36.2,21.2 C21.9,21.2 9.7,11.2 9.7,-3.9 C9.7,-16.1 18.3,-27 27.1,-34.7 C28.8,-36.1 30.4,-37.5 31.9,-39 C32.8,-33.6 33.5,-29 34.2,-24.8 C25.1,-22.2 18.9,-12.5 18.9,-3.2 C18.9,3.9 24.4,13.5 32.4,13.5 C33.2,13.5 34.1,13.1 34.1,12.1 C34.1,11.3 33.2,10.7 31.9,9.9 C28,7.6 25.8,4.9 25.8,0.1 C25.8,-6 30.4,-10.9 36.2,-12.3 L42,20.5 C40,20.9 38.2,21.2 36.2,21.2 M33.2,-82.2 C34.2,-86.2 38.7,-96.7 43.9,-96.7 C45.4,-96.7 47.9,-91.9 47.9,-84.9 C47.9,-74.6 40.1,-66.8 33.2,-59.9 C32.6,-63.9 32.1,-67.9 32.1,-72 C32.1,-75.8 32.5,-79.1 33.2,-82.2 M46.2,19.3 C44.1,7.4 41.4,-8.5 40.7,-12.9 C50.8,-12.9 55.1,-5.9 56,-1.1 C56.1,-0.3 56.3,0.8 56.3,2 C56.3,9.2 53.3,16.4 46.2,19.3 M32.3,87.7 C30.1,87.7 28.6,86.3 28.6,84.2 C28.6,82.2 29.5,80.6 31.2,79.6 C31.6,79.8 31.7,79.8 32,80 C33.2,80.6 33.2,80.6 33.4,80.8 C35.3,81.9 36.1,82.9 36.1,84.3 C36.1,86.2 34.5,87.7 32.3,87.7 M36.1,75.7 C34.6,74.9 34.2,74.7 33.9,74.5 L33.7,74.4 C32.2,73.5 31.7,72.8 31.7,71.6 C31.7,69.8 33.1,68.5 35.1,68.5 C37,68.5 38.2,69.7 38.2,71.8 C38.2,73.4 37.6,74.5 36.1,75.7 M64,-0.2 C64,-15.3 53.3,-25.5 38.7,-25.5 C37.7,-31.5 36.8,-37.4 35.9,-43 C46.4,-54.1 53.8,-66.7 53.8,-82.5 C53.8,-91.6 51,-99 49.3,-102.6 C46.9,-107.7 44,-111.2 42.3,-111.2 C41.6,-111.2 38.4,-110 35.2,-106.1 C28.7,-98.5 26.9,-85.8 26.9,-77.4 C26.9,-72 27.4,-67.1 29.1,-55.8 C29,-55.8 23.8,-50.5 21.7,-48.7 C12.6,-40.3 0,-28.1 0,-8.2 C0,10.6 16.3,25.3 34.9,25.3 C37.8,25.3 40.5,25 42.9,24.6 C44.7,34.1 45.9,41.2 45.9,46.5 C45.9,56.9 40.5,62.4 30.4,62.4 C28,62.4 25.9,61.9 25.7,61.8 C25.6,61.8 25.4,61.7 25.4,61.6 C25.4,61.4 25.6,61.3 25.9,61.2 C30.6,60.5 35.3,56.4 35.3,50.1 C35.3,44.7 31.2,39 23.7,39 C16.7,39 12.3,44.7 12.3,51.3 C12.3,57.9 17.3,66.6 30.8,66.6 C43.7,66.6 50,59.3 50,46.5 C50,42.6 49.4,38.1 48.4,32.4 C48.1,30.4 47.6,27.3 46.9,23.5 C56.7,20.2 64,10.1 64,-0.2 M42.3,71.7 C42.3,68 38.9,66.4 35.6,66.4 C31.4,66.4 27.3,69 27.3,73.5 C27.3,75.4 28,76.8 29.4,78.2 C26.8,79.2 24.2,81.2 24.2,84.3 C24.2,87.6 27.2,89.8 31.6,89.8 C37,89.8 40.8,86.8 40.8,82.5 C40.8,80.2 39.8,78.3 38,77 C40.9,75.7 42.3,74.1 42.3,71.7"/>
<path class="KeySig" transform="matrix(1.05449,0,0,1.05449,319.612,653.443)" d="M13.2,-4 C13.2,3.9 9.1,8.1 3.3,12.7 L3.6,-6.8 C3.8,-7.7 5.3,-10.6 9.3,-10.6 C12.9,-10.6 13.2,-7.2 13.2,-5.1 L13.2,-4 M12,-15.5 C7,-15.5 4.1,-12.4 3.6,-11.8 L4,-43.9 C4,-44.7 3.4,-45.3 2.6,-45.3 L1.4,-45.3 C0.6,-45.3 0,-44.7 0,-43.9 L0.5,16.2 C0.5,17 1.1,17.6 1.9,17.6 C2.1,17.6 2.5,17.5 2.7,17.4 C11.3,13.1 20.3,4.9 20.3,-5.4 C20.3,-10.6 17.9,-15.5 12,-15.5"/>
<path class="KeySig" transform="matrix(1.05449,0,0,1.05449,319.612,303.268)" d="M13.2,-4 C13.2,3.9 9.1,8.1 3.3,12.7 L3.6,-6.8 C3.8,-7.7 5.3,-10.6 9.3,-10.6 C12.9,-10.6 13.2,-7.2 13.2,-5.1 L13.2,-4 M12,-15.5 C7,-15.5 4.1,-12.4 3.6,-11.8 L4,-43.9 C4,-44.7 3.4,-45.3 2.6,-45.3 L1.4,-45.3 C0.6,-45.3 0,-44.7 0,-43.9 L0.5,16.2 C0.5,17 1.1,17.6 1.9,17.6 C2.1,17.6 2.5,17.5 2.7,17.4 C11.3,13.1 20.3,4.9 20.3,-5.4 C20.3,-10.6 17.9,-15.5 12,-15.5"/>
<path class="Lyrics" d="M745.662,760.301 L736.546,760.884 L736.546,763.163 L738.401,763.163 C740.415,763.216 740.68,763.534 740.68,765.813 L740.68,786.43 C740.68,793.797 740.362,797.825 739.726,800.104 L741.74,800.104 L744.337,795.97 C746.51,798.832 749.001,800.157 752.287,800.157 C758.859,800.157 763.682,794.539 763.682,786.854 C763.682,779.222 759.23,773.869 752.87,773.869 C749.637,773.869 747.676,774.982 745.662,778.003 L745.662,760.301 M751.916,776.572 C755.891,776.572 758.117,780.441 758.117,787.384 C758.117,794.115 755.944,797.878 752.075,797.878 C747.888,797.878 745.397,794.009 745.397,787.49 C745.397,780.388 747.676,776.572 751.916,776.572 M790.22,787.437 C790.273,779.487 785.768,773.869 779.302,773.869 C772.518,773.869 767.43,779.752 767.43,787.702 C767.43,795.175 772.253,800.157 779.408,800.157 C784.496,800.157 788.047,797.666 790.22,792.631 L788.365,791.624 C786.192,795.705 783.966,797.295 780.415,797.295 C777.712,797.295 775.751,796.182 774.373,793.797 C773.419,792.207 772.995,790.352 773.048,787.437 L790.22,787.437 M773.101,785.158 C773.101,781.448 774.797,776.148 779.249,776.148 C782.429,776.148 784.549,778.957 784.549,783.25 C784.549,784.734 784.072,785.158 782.376,785.158 L773.101,785.158 M802.728,774.664 L793.294,775.247 L793.294,777.526 L795.467,777.526 C797.481,777.579 797.746,777.897 797.746,780.176 L797.746,795.334 C797.693,796.129 797.64,796.447 797.428,796.712 C797.057,797.189 796.05,797.401 793.771,797.454 L793.559,797.454 L793.559,799.362 L806.915,799.362 L806.915,797.454 L806.703,797.454 C803.205,797.348 802.728,797.083 802.728,795.122 L802.728,785.317 C802.728,780.6 805.325,777.102 808.77,777.102 C811.791,777.102 813.328,779.275 813.328,783.568 L813.328,795.387 C813.275,796.076 813.222,796.447 812.957,796.712 C812.639,797.189 811.579,797.401 809.3,797.454 L809.088,797.454 L809.088,799.362 L822.497,799.362 L822.497,797.454 L822.285,797.454 C818.787,797.348 818.31,797.083 818.31,795.175 L818.31,785.794 C818.31,780.494 820.695,777.102 824.405,777.102 C827.426,777.102 828.91,779.381 828.91,784.151 L828.91,795.334 C828.857,796.076 828.804,796.447 828.539,796.712 C828.221,797.189 827.161,797.401 824.882,797.454 L824.67,797.454 L824.67,799.362 L838.079,799.362 L838.079,797.454 L837.867,797.454 C834.369,797.348 833.892,797.083 833.892,795.122 L833.892,783.091 C833.892,779.805 833.574,778.692 832.196,776.89 C830.659,774.929 828.486,773.869 825.942,773.869 C822.497,773.869 819.953,775.512 817.674,779.169 C816.773,775.989 813.911,773.869 810.36,773.869 C807.127,773.869 804.795,775.406 802.728,778.745 L802.728,774.664 "/>
<path class="Lyrics" d="M1864.44,434.922 L1870.49,427.873 C1871.81,426.336 1873.03,425.647 1874.46,425.647 L1874.94,425.647 L1874.94,423.739 L1863.97,423.739 L1863.97,425.647 L1864.97,425.647 C1866.56,425.647 1867.36,426.018 1867.36,426.813 C1867.36,427.343 1866.99,428.085 1866.3,428.933 L1862.96,432.961 L1858.88,427.767 C1858.56,427.343 1858.35,426.919 1858.35,426.601 C1858.35,425.912 1859.04,425.647 1860.68,425.647 L1861.42,425.647 L1861.42,423.739 L1848.86,423.739 L1848.86,425.647 C1850.82,425.806 1851.57,426.283 1853.26,428.509 L1859.73,436.618 L1853.63,443.72 C1851.83,445.734 1850.29,446.582 1848.86,446.529 L1848.54,446.529 L1848.54,448.437 L1859.73,448.437 L1859.73,446.529 L1858.93,446.529 C1857.71,446.529 1857.45,446.476 1857.08,446.317 C1856.65,446.052 1856.34,445.575 1856.34,445.098 C1856.34,444.727 1856.49,444.25 1856.76,443.932 L1861.21,438.632 L1865.24,443.985 C1865.61,444.515 1865.93,445.204 1865.93,445.575 C1865.93,446.264 1865.13,446.529 1863.12,446.529 L1862.75,446.529 L1862.75,448.437 L1876.1,448.437 L1876.1,446.529 L1875.73,446.529 C1873.88,446.529 1872.66,445.84 1871.12,443.932 L1864.44,434.922 M1884.95,410.542 C1883.25,410.542 1881.87,411.92 1881.87,413.616 C1881.87,415.312 1883.25,416.69 1884.89,416.69 C1886.64,416.69 1888.02,415.312 1888.02,413.616 C1888.02,411.92 1886.64,410.542 1884.95,410.542 M1887.44,423.739 L1877.47,424.322 L1877.47,426.601 L1880.18,426.601 C1882.19,426.654 1882.46,426.972 1882.46,429.251 L1882.46,444.409 C1882.4,445.204 1882.35,445.522 1882.14,445.787 C1881.77,446.264 1880.76,446.476 1878.48,446.529 L1878.11,446.529 L1878.11,448.437 L1891.84,448.437 L1891.84,446.529 L1891.47,446.529 C1887.92,446.423 1887.44,446.158 1887.44,444.25 L1887.44,423.739 "/>
<path class="Lyrics" d="M411.221,760.301 C400.038,760.301 392.777,769.47 392.777,780.282 C392.777,790.829 400.038,800.157 411.009,800.157 C421.397,800.157 429.241,791.571 429.241,780.229 C429.241,768.993 421.397,760.301 411.221,760.301 M411.168,762.792 C414.719,762.792 417.687,764.435 419.595,767.35 C421.556,770.477 422.245,773.71 422.245,780.229 C422.245,786.695 421.556,789.928 419.595,793.108 C417.687,796.076 414.772,797.666 411.009,797.666 C407.246,797.666 404.331,796.129 402.423,793.108 C400.409,789.928 399.773,786.695 399.773,780.123 C399.773,773.71 400.462,770.53 402.423,767.35 C404.384,764.276 407.193,762.792 411.168,762.792 M442.104,774.664 L432.723,775.247 L432.723,777.526 L434.896,777.526 C436.91,777.579 437.175,777.897 437.175,780.176 L437.175,795.334 C437.122,796.129 437.069,796.447 436.857,796.712 C436.486,797.189 435.426,797.401 433.147,797.454 L432.935,797.454 L432.935,799.362 L447.086,799.362 L447.086,797.454 L446.132,797.454 C442.581,797.348 442.104,797.083 442.104,795.175 L442.104,792.313 C442.157,783.409 445.337,776.625 449.471,776.413 C448.729,777.261 448.517,777.791 448.517,778.798 C448.517,780.494 449.736,781.713 451.432,781.713 C453.393,781.713 454.665,780.282 454.665,778.162 C454.665,775.565 452.863,773.869 450.054,773.869 C446.715,773.869 443.853,776.519 442.104,781.236 L442.104,774.664 "/>
<path class="Lyrics" d="M874.658,774.664 L865.277,775.247 L865.277,777.526 L867.45,777.526 C869.464,777.579 869.729,777.897 869.729,780.176 L869.729,795.334 C869.676,796.129 869.623,796.447 869.411,796.712 C869.04,797.189 867.98,797.401 865.701,797.454 L865.489,797.454 L865.489,799.362 L879.64,799.362 L879.64,797.454 L878.686,797.454 C875.135,797.348 874.658,797.083 874.658,795.175 L874.658,792.313 C874.711,783.409 877.891,776.625 882.025,776.413 C881.283,777.261 881.071,777.791 881.071,778.798 C881.071,780.494 882.29,781.713 883.986,781.713 C885.947,781.713 887.219,780.282 887.219,778.162 C887.219,775.565 885.417,773.869 882.608,773.869 C879.269,773.869 876.407,776.519 874.658,781.236 L874.658,774.664 M911.229,782.296 C911.229,778.957 910.646,777.261 909.109,775.989 C907.36,774.558 904.763,773.869 901.371,773.869 C895.382,773.869 891.036,776.678 891.036,780.547 C891.036,782.508 892.255,783.78 894.11,783.78 C895.806,783.78 896.972,782.667 896.972,781.077 C896.972,780.388 896.707,779.646 896.177,778.904 C895.859,778.533 895.806,778.427 895.806,778.162 C895.806,777.102 897.926,776.148 900.47,776.148 C902.166,776.148 904.021,776.678 904.869,777.473 C905.876,778.321 906.247,779.593 906.247,781.978 L906.247,784.045 C900.735,784.999 898.986,785.423 896.389,786.43 C891.778,788.126 889.605,790.564 889.605,793.956 C889.605,797.772 892.573,800.157 897.29,800.157 C900.947,800.157 904.233,798.673 906.512,795.97 C907.36,798.673 908.685,799.733 911.176,799.733 C913.561,799.733 916.052,798.196 916.052,796.659 C916.052,796.288 915.84,796.023 915.522,796.023 C915.31,796.023 915.098,796.076 914.727,796.235 C913.985,796.553 913.667,796.606 913.243,796.606 C911.759,796.606 911.229,795.652 911.229,792.949 L911.229,782.296 M906.247,788.762 C906.247,791.942 906.088,792.684 905.187,794.062 C903.862,796.023 901.477,797.348 899.145,797.348 C896.707,797.348 894.958,795.599 894.958,793.214 C894.958,790.988 896.071,789.398 898.403,788.285 C900.046,787.543 902.113,787.013 906.247,786.324 L906.247,788.762 "/>
<path class="Lyrics" d="M1145.94,773.869 C1139.42,773.869 1134.39,779.646 1134.39,787.066 C1134.39,794.327 1139.48,800.157 1145.84,800.157 C1152.2,800.157 1157.29,794.327 1157.29,787.013 C1157.29,779.752 1152.2,773.869 1145.94,773.869 M1145.94,776.148 C1149.65,776.148 1151.72,780.017 1151.72,787.013 C1151.72,794.062 1149.65,797.878 1145.84,797.878 C1142.02,797.878 1139.95,794.062 1139.95,787.066 C1139.95,779.858 1141.97,776.148 1145.94,776.148 M1162.96,809.114 C1167.73,805.828 1169.91,802.595 1169.91,798.885 C1169.91,795.705 1168.16,793.638 1165.56,793.638 C1163.6,793.638 1162.12,795.016 1162.12,796.818 C1162.12,798.726 1163.55,799.945 1165.77,799.945 C1166.04,799.945 1166.41,799.945 1166.57,799.892 L1166.73,799.892 C1166.99,799.892 1167.1,800.051 1167.1,800.369 C1167.1,802.595 1165.3,805.086 1161.75,807.577 L1162.96,809.114 "/>
<path class="Lyrics" d="M990.564,799.733 L999.786,799.362 L999.786,797.083 L998.832,797.083 C995.811,796.924 995.546,796.606 995.546,793.214 L995.546,760.301 L985.158,760.884 L985.158,763.163 L988.285,763.163 C990.299,763.216 990.564,763.534 990.564,765.813 L990.564,777.791 C988.603,775.088 986.324,773.869 983.25,773.869 C977.261,773.869 972.703,779.646 972.703,787.278 C972.703,794.804 977.102,800.157 983.25,800.157 C986.589,800.157 988.868,798.726 990.564,795.546 L990.564,799.733 M984.31,776.731 C986.483,776.731 988.55,778.321 989.504,780.759 C990.193,782.349 990.511,784.522 990.511,787.119 C990.511,793.32 988.073,797.295 984.257,797.295 C980.494,797.295 978.268,793.797 978.268,787.914 C978.268,784.734 978.586,782.349 979.275,780.6 C980.176,778.215 982.137,776.731 984.31,776.731 M1009.27,761.467 C1007.58,761.467 1006.2,762.845 1006.2,764.541 C1006.2,766.237 1007.58,767.615 1009.22,767.615 C1010.97,767.615 1012.35,766.237 1012.35,764.541 C1012.35,762.845 1010.97,761.467 1009.27,761.467 M1011.76,774.664 L1001.8,775.247 L1001.8,777.526 L1004.5,777.526 C1006.52,777.579 1006.78,777.897 1006.78,780.176 L1006.78,795.334 C1006.73,796.129 1006.68,796.447 1006.46,796.712 C1006.09,797.189 1005.09,797.401 1002.81,797.454 L1002.44,797.454 L1002.44,799.362 L1016.16,799.362 L1016.16,797.454 L1015.79,797.454 C1012.24,797.348 1011.76,797.083 1011.76,795.175 L1011.76,774.664 "/>
<path class="Lyrics" d="M616.254,773.869 C609.735,773.869 604.7,779.646 604.7,787.066 C604.7,794.327 609.788,800.157 616.148,800.157 C622.508,800.157 627.596,794.327 627.596,787.013 C627.596,779.752 622.508,773.869 616.254,773.869 M616.254,776.148 C619.964,776.148 622.031,780.017 622.031,787.013 C622.031,794.062 619.964,797.878 616.148,797.878 C612.332,797.878 610.265,794.062 610.265,787.066 C610.265,779.858 612.279,776.148 616.254,776.148 M639.892,774.664 L630.511,775.247 L630.511,777.526 L632.684,777.526 C634.698,777.579 634.963,777.897 634.963,780.176 L634.963,795.334 C634.91,796.129 634.857,796.447 634.645,796.712 C634.274,797.189 633.214,797.401 630.935,797.454 L630.723,797.454 L630.723,799.362 L644.874,799.362 L644.874,797.454 L643.92,797.454 C640.369,797.348 639.892,797.083 639.892,795.175 L639.892,792.313 C639.945,783.409 643.125,776.625 647.259,776.413 C646.517,777.261 646.305,777.791 646.305,778.798 C646.305,780.494 647.524,781.713 649.22,781.713 C651.181,781.713 652.453,780.282 652.453,778.162 C652.453,775.565 650.651,773.869 647.842,773.869 C644.503,773.869 641.641,776.519 639.892,781.236 L639.892,774.664 "/>
<path class="Lyrics" d="M368.583,431.424 L374.572,431.424 C379.342,431.424 381.833,431.053 384.006,430.046 C387.716,428.244 389.836,424.852 389.836,420.665 C389.836,412.238 382.416,410.171 375.473,410.171 L356.923,410.171 L356.923,412.662 L357.877,412.662 C360.898,412.715 361.905,412.874 362.329,413.404 C362.647,413.881 362.647,413.987 362.647,416.69 L362.647,441.918 C362.647,444.621 362.647,444.727 362.329,445.204 C361.905,445.734 360.898,445.946 357.877,445.946 L356.923,445.946 L356.923,448.437 L374.731,448.437 L374.731,445.946 L373.353,445.946 C370.332,445.946 369.325,445.734 368.901,445.204 C368.583,444.727 368.583,444.621 368.583,441.918 L368.583,431.424 M368.583,428.933 L368.583,415.365 C368.583,412.927 368.848,412.662 371.816,412.662 L375.208,412.662 C380.72,412.662 383.317,415.259 383.317,420.877 C383.317,426.336 380.614,428.933 374.996,428.933 L368.583,428.933 M400.594,409.376 L390.789,409.959 L390.789,412.238 L393.386,412.238 C395.347,412.291 395.612,412.609 395.612,414.888 L395.612,444.409 C395.559,445.204 395.506,445.522 395.294,445.787 C394.923,446.264 393.916,446.476 391.637,446.529 L391.266,446.529 L391.266,448.437 L404.993,448.437 L404.993,446.529 L404.622,446.529 C401.071,446.423 400.594,446.158 400.594,444.25 L400.594,409.376 M430.426,431.371 C430.426,428.032 429.843,426.336 428.306,425.064 C426.557,423.633 423.96,422.944 420.568,422.944 C414.579,422.944 410.233,425.753 410.233,429.622 C410.233,431.583 411.452,432.855 413.307,432.855 C415.003,432.855 416.169,431.742 416.169,430.152 C416.169,429.463 415.904,428.721 415.374,427.979 C415.056,427.608 415.003,427.502 415.003,427.237 C415.003,426.177 417.123,425.223 419.667,425.223 C421.363,425.223 423.218,425.753 424.066,426.548 C425.073,427.396 425.444,428.668 425.444,431.053 L425.444,433.12 C419.932,434.074 418.183,434.498 415.586,435.505 C410.975,437.201 408.802,439.639 408.802,443.031 C408.802,446.847 411.77,449.232 416.487,449.232 C420.144,449.232 423.43,447.748 425.709,445.045 C426.557,447.748 427.882,448.808 430.373,448.808 C432.758,448.808 435.249,447.271 435.249,445.734 C435.249,445.363 435.037,445.098 434.719,445.098 C434.507,445.098 434.295,445.151 433.924,445.31 C433.182,445.628 432.864,445.681 432.44,445.681 C430.956,445.681 430.426,444.727 430.426,442.024 L430.426,431.371 M425.444,437.837 C425.444,441.017 425.285,441.759 424.384,443.137 C423.059,445.098 420.674,446.423 418.342,446.423 C415.904,446.423 414.155,444.674 414.155,442.289 C414.155,440.063 415.268,438.473 417.6,437.36 C419.243,436.618 421.31,436.088 425.444,435.399 L425.444,437.837 M446.523,423.739 L437.354,424.322 L437.354,426.601 L439.262,426.601 C441.276,426.654 441.541,426.972 441.541,429.251 L441.541,444.409 C441.488,445.204 441.435,445.522 441.223,445.787 C440.852,446.264 439.845,446.476 437.566,446.529 L437.354,446.529 L437.354,448.437 L450.763,448.437 L450.763,446.529 L450.551,446.529 C447,446.423 446.523,446.158 446.523,444.25 L446.523,436.406 C446.523,433.809 446.894,431.424 447.477,430.205 C448.59,427.82 450.975,426.177 453.254,426.177 C454.632,426.177 456.222,426.919 457.017,428.032 C457.812,429.198 458.183,430.788 458.183,433.332 L458.183,444.409 C458.13,445.204 458.077,445.522 457.865,445.787 C457.494,446.264 456.434,446.476 454.155,446.529 L453.943,446.529 L453.943,448.437 L467.352,448.437 L467.352,446.529 L467.14,446.529 C463.642,446.423 463.165,446.158 463.165,444.25 L463.165,433.597 C463.165,429.781 463.006,428.827 462.052,427.025 C460.727,424.481 458.077,422.944 454.897,422.944 C451.452,422.944 448.855,424.534 446.523,428.032 L446.523,423.739 M488.809,440.646 C487.113,444.462 485.311,445.999 482.555,445.999 C478.315,445.999 475.665,442.13 475.665,435.929 C475.665,429.463 478.262,425.223 482.184,425.223 C483.774,425.223 485.152,425.965 485.152,426.813 C485.152,426.972 485.099,427.131 484.834,427.449 C483.986,428.456 483.774,428.986 483.774,429.887 C483.774,431.636 485.099,432.855 486.954,432.855 C488.862,432.855 490.187,431.371 490.187,429.251 C490.187,425.647 486.636,422.944 481.919,422.944 C475.029,422.944 470.1,428.562 470.1,436.512 C470.1,444.038 474.605,449.232 481.177,449.232 C485.894,449.232 488.597,447.059 490.876,441.441 L488.809,440.646 "/>
<path class="Lyrics" d="M1218.85,774.664 L1209.42,775.247 L1209.42,777.526 L1211.59,777.526 C1213.61,777.579 1213.87,777.897 1213.87,780.176 L1213.87,795.334 C1213.82,796.129 1213.77,796.447 1213.55,796.712 C1213.18,797.189 1212.18,797.401 1209.9,797.454 L1209.69,797.454 L1209.69,799.362 L1223.04,799.362 L1223.04,797.454 L1222.83,797.454 C1219.33,797.348 1218.85,797.083 1218.85,795.122 L1218.85,785.317 C1218.85,780.6 1221.45,777.102 1224.9,777.102 C1227.92,777.102 1229.45,779.275 1229.45,783.568 L1229.45,795.387 C1229.4,796.076 1229.35,796.447 1229.08,796.712 C1228.77,797.189 1227.71,797.401 1225.43,797.454 L1225.21,797.454 L1225.21,799.362 L1238.62,799.362 L1238.62,797.454 L1238.41,797.454 C1234.91,797.348 1234.44,797.083 1234.44,795.175 L1234.44,785.794 C1234.44,780.494 1236.82,777.102 1240.53,777.102 C1243.55,777.102 1245.04,779.381 1245.04,784.151 L1245.04,795.334 C1244.98,796.076 1244.93,796.447 1244.67,796.712 C1244.35,797.189 1243.29,797.401 1241.01,797.454 L1240.8,797.454 L1240.8,799.362 L1254.21,799.362 L1254.21,797.454 L1253.99,797.454 C1250.5,797.348 1250.02,797.083 1250.02,795.122 L1250.02,783.091 C1250.02,779.805 1249.7,778.692 1248.32,776.89 C1246.79,774.929 1244.61,773.869 1242.07,773.869 C1238.62,773.869 1236.08,775.512 1233.8,779.169 C1232.9,775.989 1230.04,773.869 1226.49,773.869 C1223.25,773.869 1220.92,775.406 1218.85,778.745 L1218.85,774.664 M1279.96,787.437 C1280.01,779.487 1275.5,773.869 1269.04,773.869 C1262.25,773.869 1257.17,779.752 1257.17,787.702 C1257.17,795.175 1261.99,800.157 1269.14,800.157 C1274.23,800.157 1277.78,797.666 1279.96,792.631 L1278.1,791.624 C1275.93,795.705 1273.7,797.295 1270.15,797.295 C1267.45,797.295 1265.49,796.182 1264.11,793.797 C1263.15,792.207 1262.73,790.352 1262.78,787.437 L1279.96,787.437 M1262.84,785.158 C1262.84,781.448 1264.53,776.148 1268.98,776.148 C1272.16,776.148 1274.28,778.957 1274.28,783.25 C1274.28,784.734 1273.81,785.158 1272.11,785.158 L1262.84,785.158 "/>
<path class="Lyrics" d="M526.887,423.739 L526.887,413.245 L524.714,413.245 C524.184,420.135 521.852,423.633 517.559,423.951 L517.559,426.018 L521.905,426.018 L521.905,439.533 C521.905,443.243 522.011,444.568 522.541,445.787 C523.389,448.013 525.509,449.232 528.583,449.232 C533.353,449.232 536.427,445.628 536.427,440.01 C536.427,439.692 536.427,439.321 536.374,438.791 L534.148,438.791 C533.989,443.561 532.611,445.999 530.014,445.999 C528.795,445.999 527.735,445.363 527.364,444.462 C527.046,443.72 526.887,442.395 526.887,440.487 L526.887,426.018 L534.678,426.018 L534.678,423.739 L526.887,423.739 M559.004,448.808 L568.65,448.437 L568.65,446.158 L567.325,446.158 C564.251,446.052 563.986,445.734 563.986,442.289 L563.986,423.739 L554.022,424.322 L554.022,426.601 L556.725,426.601 C558.739,426.654 559.004,426.972 559.004,429.251 L559.004,435.77 C559.004,440.381 557.891,445.999 552.061,445.999 C550.418,445.999 549.04,445.416 548.351,444.356 C547.662,443.349 547.556,442.819 547.556,439.904 L547.556,423.739 L538.281,424.322 L538.281,426.601 L540.295,426.601 C542.309,426.654 542.574,426.972 542.574,429.251 L542.574,440.699 C542.574,443.402 542.786,444.621 543.581,445.84 C545.012,448.013 547.556,449.232 550.736,449.232 C554.234,449.232 556.672,447.801 559.004,444.409 L559.004,448.808 M590.213,423.156 L588.358,423.156 L586.821,425.064 C584.913,423.58 583.005,422.944 580.355,422.944 C575.691,422.944 572.617,425.965 572.617,430.629 C572.617,435.611 575.85,436.883 580.09,437.89 L582.899,438.526 C587.086,439.533 588.57,440.593 588.57,442.713 C588.57,445.204 586.397,446.953 583.323,446.953 C578.818,446.953 575.638,444.091 574.366,438.791 L572.246,438.791 L572.246,448.808 L574.101,448.808 L575.956,446.635 C578.129,448.384 580.514,449.232 583.217,449.232 C588.411,449.232 591.856,445.999 591.856,441.07 C591.856,438.738 591.114,436.936 589.63,435.717 C588.358,434.604 587.298,434.18 584.065,433.491 L581.415,432.908 C578.5,432.272 578.5,432.272 577.546,431.742 C576.38,431.212 575.691,430.099 575.691,428.933 C575.691,426.76 577.705,425.276 580.62,425.276 C584.966,425.276 587.086,428.35 588.358,432.06 L590.213,432.06 L590.213,423.156 "/>
<path class="Lyrics" d="M1317.95,763.587 L1319.01,763.587 C1322.03,763.64 1323.03,763.799 1323.46,764.329 C1323.78,764.806 1323.78,764.965 1323.78,767.615 L1323.78,792.843 C1323.78,795.493 1323.78,795.652 1323.46,796.129 C1323.03,796.659 1322.03,796.871 1319.01,796.871 L1317.95,796.871 L1317.95,799.362 L1335.49,799.362 L1335.49,796.871 L1334.43,796.871 C1331.46,796.871 1330.45,796.712 1330.03,796.129 C1329.71,795.652 1329.71,795.546 1329.71,792.843 L1329.71,767.615 C1329.71,764.912 1329.71,764.806 1330.03,764.329 C1330.45,763.799 1331.41,763.64 1334.43,763.587 L1335.49,763.587 L1335.49,761.096 L1317.95,761.096 L1317.95,763.587 M1359.33,799.733 L1368.98,799.362 L1368.98,797.083 L1367.65,797.083 C1364.58,796.977 1364.31,796.659 1364.31,793.214 L1364.31,774.664 L1354.35,775.247 L1354.35,777.526 L1357.05,777.526 C1359.07,777.579 1359.33,777.897 1359.33,780.176 L1359.33,786.695 C1359.33,791.306 1358.22,796.924 1352.39,796.924 C1350.74,796.924 1349.37,796.341 1348.68,795.281 C1347.99,794.274 1347.88,793.744 1347.88,790.829 L1347.88,774.664 L1338.61,775.247 L1338.61,777.526 L1340.62,777.526 C1342.64,777.579 1342.9,777.897 1342.9,780.176 L1342.9,791.624 C1342.9,794.327 1343.11,795.546 1343.91,796.765 C1345.34,798.938 1347.88,800.157 1351.06,800.157 C1354.56,800.157 1357,798.726 1359.33,795.334 L1359.33,799.733 "/>
<path class="Lyrics" d="M657.969,431.371 C657.969,428.032 657.386,426.336 655.849,425.064 C654.1,423.633 651.503,422.944 648.111,422.944 C642.122,422.944 637.776,425.753 637.776,429.622 C637.776,431.583 638.995,432.855 640.85,432.855 C642.546,432.855 643.712,431.742 643.712,430.152 C643.712,429.463 643.447,428.721 642.917,427.979 C642.599,427.608 642.546,427.502 642.546,427.237 C642.546,426.177 644.666,425.223 647.21,425.223 C648.906,425.223 650.761,425.753 651.609,426.548 C652.616,427.396 652.987,428.668 652.987,431.053 L652.987,433.12 C647.475,434.074 645.726,434.498 643.129,435.505 C638.518,437.201 636.345,439.639 636.345,443.031 C636.345,446.847 639.313,449.232 644.03,449.232 C647.687,449.232 650.973,447.748 653.252,445.045 C654.1,447.748 655.425,448.808 657.916,448.808 C660.301,448.808 662.792,447.271 662.792,445.734 C662.792,445.363 662.58,445.098 662.262,445.098 C662.05,445.098 661.838,445.151 661.467,445.31 C660.725,445.628 660.407,445.681 659.983,445.681 C658.499,445.681 657.969,444.727 657.969,442.024 L657.969,431.371 M652.987,437.837 C652.987,441.017 652.828,441.759 651.927,443.137 C650.602,445.098 648.217,446.423 645.885,446.423 C643.447,446.423 641.698,444.674 641.698,442.289 C641.698,440.063 642.811,438.473 645.143,437.36 C646.786,436.618 648.853,436.088 652.987,435.399 L652.987,437.837 M674.066,423.739 L664.897,424.322 L664.897,426.601 L666.805,426.601 C668.819,426.654 669.084,426.972 669.084,429.251 L669.084,444.409 C669.031,445.204 668.978,445.522 668.766,445.787 C668.395,446.264 667.388,446.476 665.109,446.529 L664.897,446.529 L664.897,448.437 L678.306,448.437 L678.306,446.529 L678.094,446.529 C674.543,446.423 674.066,446.158 674.066,444.25 L674.066,436.406 C674.066,433.809 674.437,431.424 675.02,430.205 C676.133,427.82 678.518,426.177 680.797,426.177 C682.175,426.177 683.765,426.919 684.56,428.032 C685.355,429.198 685.726,430.788 685.726,433.332 L685.726,444.409 C685.673,445.204 685.62,445.522 685.408,445.787 C685.037,446.264 683.977,446.476 681.698,446.529 L681.486,446.529 L681.486,448.437 L694.895,448.437 L694.895,446.529 L694.683,446.529 C691.185,446.423 690.708,446.158 690.708,444.25 L690.708,433.597 C690.708,429.781 690.549,428.827 689.595,427.025 C688.27,424.481 685.62,422.944 682.44,422.944 C678.995,422.944 676.398,424.534 674.066,428.032 L674.066,423.739 "/>
<path class="Lyrics" d="M1443.24,799.733 L1452.46,799.362 L1452.46,797.083 L1451.51,797.083 C1448.49,796.924 1448.22,796.606 1448.22,793.214 L1448.22,760.301 L1437.83,760.884 L1437.83,763.163 L1440.96,763.163 C1442.97,763.216 1443.24,763.534 1443.24,765.813 L1443.24,777.791 C1441.28,775.088 1439,773.869 1435.92,773.869 C1429.94,773.869 1425.38,779.646 1425.38,787.278 C1425.38,794.804 1429.78,800.157 1435.92,800.157 C1439.26,800.157 1441.54,798.726 1443.24,795.546 L1443.24,799.733 M1436.98,776.731 C1439.16,776.731 1441.22,778.321 1442.18,780.759 C1442.87,782.349 1443.19,784.522 1443.19,787.119 C1443.19,793.32 1440.75,797.295 1436.93,797.295 C1433.17,797.295 1430.94,793.797 1430.94,787.914 C1430.94,784.734 1431.26,782.349 1431.95,780.6 C1432.85,778.215 1434.81,776.731 1436.98,776.731 M1478.17,787.437 C1478.22,779.487 1473.71,773.869 1467.25,773.869 C1460.46,773.869 1455.38,779.752 1455.38,787.702 C1455.38,795.175 1460.2,800.157 1467.35,800.157 C1472.44,800.157 1475.99,797.666 1478.17,792.631 L1476.31,791.624 C1474.14,795.705 1471.91,797.295 1468.36,797.295 C1465.66,797.295 1463.7,796.182 1462.32,793.797 C1461.36,792.207 1460.94,790.352 1460.99,787.437 L1478.17,787.437 M1461.05,785.158 C1461.05,781.448 1462.74,776.148 1467.19,776.148 C1470.37,776.148 1472.49,778.957 1472.49,783.25 C1472.49,784.734 1472.02,785.158 1470.32,785.158 L1461.05,785.158 "/>
<path class="Lyrics" d="M777.111,423.739 L777.111,413.245 L774.938,413.245 C774.408,420.135 772.076,423.633 767.783,423.951 L767.783,426.018 L772.129,426.018 L772.129,439.533 C772.129,443.243 772.235,444.568 772.765,445.787 C773.613,448.013 775.733,449.232 778.807,449.232 C783.577,449.232 786.651,445.628 786.651,440.01 C786.651,439.692 786.651,439.321 786.598,438.791 L784.372,438.791 C784.213,443.561 782.835,445.999 780.238,445.999 C779.019,445.999 777.959,445.363 777.588,444.462 C777.27,443.72 777.111,442.395 777.111,440.487 L777.111,426.018 L784.902,426.018 L784.902,423.739 L777.111,423.739 M812.459,436.512 C812.512,428.562 808.007,422.944 801.541,422.944 C794.757,422.944 789.669,428.827 789.669,436.777 C789.669,444.25 794.492,449.232 801.647,449.232 C806.735,449.232 810.286,446.741 812.459,441.706 L810.604,440.699 C808.431,444.78 806.205,446.37 802.654,446.37 C799.951,446.37 797.99,445.257 796.612,442.872 C795.658,441.282 795.234,439.427 795.287,436.512 L812.459,436.512 M795.34,434.233 C795.34,430.523 797.036,425.223 801.488,425.223 C804.668,425.223 806.788,428.032 806.788,432.325 C806.788,433.809 806.311,434.233 804.615,434.233 L795.34,434.233 "/>
<path class="Lyrics" d="M897.326,423.739 L888.157,424.322 L888.157,426.601 L890.065,426.601 C892.079,426.654 892.344,426.972 892.344,429.251 L892.344,444.409 C892.291,445.204 892.238,445.522 892.026,445.787 C891.655,446.264 890.648,446.476 888.369,446.529 L888.157,446.529 L888.157,448.437 L901.566,448.437 L901.566,446.529 L901.354,446.529 C897.803,446.423 897.326,446.158 897.326,444.25 L897.326,436.406 C897.326,433.809 897.697,431.424 898.28,430.205 C899.393,427.82 901.778,426.177 904.057,426.177 C905.435,426.177 907.025,426.919 907.82,428.032 C908.615,429.198 908.986,430.788 908.986,433.332 L908.986,444.409 C908.933,445.204 908.88,445.522 908.668,445.787 C908.297,446.264 907.237,446.476 904.958,446.529 L904.746,446.529 L904.746,448.437 L918.155,448.437 L918.155,446.529 L917.943,446.529 C914.445,446.423 913.968,446.158 913.968,444.25 L913.968,433.597 C913.968,429.781 913.809,428.827 912.855,427.025 C911.53,424.481 908.88,422.944 905.7,422.944 C902.255,422.944 899.658,424.534 897.326,428.032 L897.326,423.739 M943.746,436.512 C943.799,428.562 939.294,422.944 932.828,422.944 C926.044,422.944 920.956,428.827 920.956,436.777 C920.956,444.25 925.779,449.232 932.934,449.232 C938.022,449.232 941.573,446.741 943.746,441.706 L941.891,440.699 C939.718,444.78 937.492,446.37 933.941,446.37 C931.238,446.37 929.277,445.257 927.899,442.872 C926.945,441.282 926.521,439.427 926.574,436.512 L943.746,436.512 M926.627,434.233 C926.627,430.523 928.323,425.223 932.775,425.223 C935.955,425.223 938.075,428.032 938.075,432.325 C938.075,433.809 937.598,434.233 935.902,434.233 L926.627,434.233 "/>
<path class="Lyrics" d="M1578.84,782.296 C1578.84,778.957 1578.26,777.261 1576.72,775.989 C1574.97,774.558 1572.37,773.869 1568.98,773.869 C1562.99,773.869 1558.65,776.678 1558.65,780.547 C1558.65,782.508 1559.87,783.78 1561.72,783.78 C1563.42,783.78 1564.58,782.667 1564.58,781.077 C1564.58,780.388 1564.32,779.646 1563.79,778.904 C1563.47,778.533 1563.42,778.427 1563.42,778.162 C1563.42,777.102 1565.54,776.148 1568.08,776.148 C1569.78,776.148 1571.63,776.678 1572.48,777.473 C1573.49,778.321 1573.86,779.593 1573.86,781.978 L1573.86,784.045 C1568.35,784.999 1566.6,785.423 1564,786.43 C1559.39,788.126 1557.22,790.564 1557.22,793.956 C1557.22,797.772 1560.18,800.157 1564.9,800.157 C1568.56,800.157 1571.84,798.673 1574.12,795.97 C1574.97,798.673 1576.3,799.733 1578.79,799.733 C1581.17,799.733 1583.66,798.196 1583.66,796.659 C1583.66,796.288 1583.45,796.023 1583.13,796.023 C1582.92,796.023 1582.71,796.076 1582.34,796.235 C1581.6,796.553 1581.28,796.606 1580.85,796.606 C1579.37,796.606 1578.84,795.652 1578.84,792.949 L1578.84,782.296 M1573.86,788.762 C1573.86,791.942 1573.7,792.684 1572.8,794.062 C1571.47,796.023 1569.09,797.348 1566.76,797.348 C1564.32,797.348 1562.57,795.599 1562.57,793.214 C1562.57,790.988 1563.68,789.398 1566.01,788.285 C1567.66,787.543 1569.72,787.013 1573.86,786.324 L1573.86,788.762 "/>
<path class="Lyrics" d="M1015.79,423.156 L1013.93,423.156 L1012.4,425.064 C1010.49,423.58 1008.58,422.944 1005.93,422.944 C1001.27,422.944 998.192,425.965 998.192,430.629 C998.192,435.611 1001.42,436.883 1005.66,437.89 L1008.47,438.526 C1012.66,439.533 1014.14,440.593 1014.14,442.713 C1014.14,445.204 1011.97,446.953 1008.9,446.953 C1004.39,446.953 1001.21,444.091 999.941,438.791 L997.821,438.791 L997.821,448.808 L999.676,448.808 L1001.53,446.635 C1003.7,448.384 1006.09,449.232 1008.79,449.232 C1013.99,449.232 1017.43,445.999 1017.43,441.07 C1017.43,438.738 1016.69,436.936 1015.2,435.717 C1013.93,434.604 1012.87,434.18 1009.64,433.491 L1006.99,432.908 C1004.07,432.272 1004.07,432.272 1003.12,431.742 C1001.95,431.212 1001.27,430.099 1001.27,428.933 C1001.27,426.76 1003.28,425.276 1006.19,425.276 C1010.54,425.276 1012.66,428.35 1013.93,432.06 L1015.79,432.06 L1015.79,423.156 M1040.16,440.646 C1038.46,444.462 1036.66,445.999 1033.91,445.999 C1029.67,445.999 1027.02,442.13 1027.02,435.929 C1027.02,429.463 1029.61,425.223 1033.54,425.223 C1035.13,425.223 1036.5,425.965 1036.5,426.813 C1036.5,426.972 1036.45,427.131 1036.19,427.449 C1035.34,428.456 1035.13,428.986 1035.13,429.887 C1035.13,431.636 1036.45,432.855 1038.31,432.855 C1040.21,432.855 1041.54,431.371 1041.54,429.251 C1041.54,425.647 1037.99,422.944 1033.27,422.944 C1026.38,422.944 1021.45,428.562 1021.45,436.512 C1021.45,444.038 1025.96,449.232 1032.53,449.232 C1037.25,449.232 1039.95,447.059 1042.23,441.441 L1040.16,440.646 M1051.61,410.542 C1049.91,410.542 1048.53,411.92 1048.53,413.616 C1048.53,415.312 1049.91,416.69 1051.55,416.69 C1053.3,416.69 1054.68,415.312 1054.68,413.616 C1054.68,411.92 1053.3,410.542 1051.61,410.542 M1054.1,423.739 L1044.13,424.322 L1044.13,426.601 L1046.84,426.601 C1048.85,426.654 1049.12,426.972 1049.12,429.251 L1049.12,444.409 C1049.06,445.204 1049.01,445.522 1048.8,445.787 C1048.43,446.264 1047.42,446.476 1045.14,446.529 L1044.77,446.529 L1044.77,448.437 L1058.5,448.437 L1058.5,446.529 L1058.13,446.529 C1054.58,446.423 1054.1,446.158 1054.1,444.25 L1054.1,423.739 "/>
<path class="Lyrics" d="M1179.7,431.371 C1179.7,428.032 1179.12,426.336 1177.58,425.064 C1175.83,423.633 1173.23,422.944 1169.84,422.944 C1163.85,422.944 1159.51,425.753 1159.51,429.622 C1159.51,431.583 1160.73,432.855 1162.58,432.855 C1164.28,432.855 1165.44,431.742 1165.44,430.152 C1165.44,429.463 1165.18,428.721 1164.65,427.979 C1164.33,427.608 1164.28,427.502 1164.28,427.237 C1164.28,426.177 1166.4,425.223 1168.94,425.223 C1170.64,425.223 1172.49,425.753 1173.34,426.548 C1174.35,427.396 1174.72,428.668 1174.72,431.053 L1174.72,433.12 C1169.21,434.074 1167.46,434.498 1164.86,435.505 C1160.25,437.201 1158.08,439.639 1158.08,443.031 C1158.08,446.847 1161.04,449.232 1165.76,449.232 C1169.42,449.232 1172.7,447.748 1174.98,445.045 C1175.83,447.748 1177.16,448.808 1179.65,448.808 C1182.03,448.808 1184.52,447.271 1184.52,445.734 C1184.52,445.363 1184.31,445.098 1183.99,445.098 C1183.78,445.098 1183.57,445.151 1183.2,445.31 C1182.46,445.628 1182.14,445.681 1181.71,445.681 C1180.23,445.681 1179.7,444.727 1179.7,442.024 L1179.7,431.371 M1174.72,437.837 C1174.72,441.017 1174.56,441.759 1173.66,443.137 C1172.33,445.098 1169.95,446.423 1167.62,446.423 C1165.18,446.423 1163.43,444.674 1163.43,442.289 C1163.43,440.063 1164.54,438.473 1166.87,437.36 C1168.52,436.618 1170.58,436.088 1174.72,435.399 L1174.72,437.837 M1189.65,458.189 C1194.42,454.903 1196.6,451.67 1196.6,447.96 C1196.6,444.78 1194.85,442.713 1192.25,442.713 C1190.29,442.713 1188.8,444.091 1188.8,445.893 C1188.8,447.801 1190.24,449.02 1192.46,449.02 C1192.73,449.02 1193.1,449.02 1193.26,448.967 L1193.42,448.967 C1193.68,448.967 1193.79,449.126 1193.79,449.444 C1193.79,451.67 1191.98,454.161 1188.43,456.652 L1189.65,458.189 "/>
<path class="Lyrics" d="M2639.48,774.664 L2630.1,775.247 L2630.1,777.526 L2632.27,777.526 C2634.28,777.579 2634.55,777.897 2634.55,780.176 L2634.55,795.334 C2634.5,796.129 2634.44,796.447 2634.23,796.712 C2633.86,797.189 2632.8,797.401 2630.52,797.454 L2630.31,797.454 L2630.31,799.362 L2644.46,799.362 L2644.46,797.454 L2643.51,797.454 C2639.96,797.348 2639.48,797.083 2639.48,795.175 L2639.48,792.313 C2639.53,783.409 2642.71,776.625 2646.85,776.413 C2646.1,777.261 2645.89,777.791 2645.89,778.798 C2645.89,780.494 2647.11,781.713 2648.81,781.713 C2650.77,781.713 2652.04,780.282 2652.04,778.162 C2652.04,775.565 2650.24,773.869 2647.43,773.869 C2644.09,773.869 2641.23,776.519 2639.48,781.236 L2639.48,774.664 M2676.85,787.437 C2676.9,779.487 2672.4,773.869 2665.93,773.869 C2659.15,773.869 2654.06,779.752 2654.06,787.702 C2654.06,795.175 2658.88,800.157 2666.04,800.157 C2671.12,800.157 2674.68,797.666 2676.85,792.631 L2674.99,791.624 C2672.82,795.705 2670.59,797.295 2667.04,797.295 C2664.34,797.295 2662.38,796.182 2661,793.797 C2660.05,792.207 2659.62,790.352 2659.68,787.437 L2676.85,787.437 M2659.73,785.158 C2659.73,781.448 2661.43,776.148 2665.88,776.148 C2669.06,776.148 2671.18,778.957 2671.18,783.25 C2671.18,784.734 2670.7,785.158 2669,785.158 L2659.73,785.158 M2685.54,793.479 C2683.69,793.479 2682.2,794.963 2682.2,796.765 C2682.2,798.62 2683.69,800.104 2685.49,800.104 C2687.34,800.104 2688.83,798.62 2688.83,796.765 C2688.83,794.963 2687.34,793.479 2685.54,793.479"/>
<path class="Lyrics" d="M1232.45,423.739 L1223.28,424.322 L1223.28,426.601 L1225.19,426.601 C1227.2,426.654 1227.47,426.972 1227.47,429.251 L1227.47,455.168 C1227.41,455.91 1227.36,456.228 1227.15,456.493 C1226.78,456.97 1225.77,457.182 1223.49,457.235 L1223.28,457.235 L1223.28,459.143 L1237.06,459.143 L1237.06,457.235 L1236.48,457.235 C1232.92,457.129 1232.45,456.864 1232.45,454.956 L1232.45,444.939 C1234.2,448.013 1236.16,449.232 1239.44,449.232 C1246.49,449.232 1250.15,442.289 1250.15,435.982 C1250.15,429.993 1246.49,422.944 1239.76,422.944 C1236.48,422.944 1234.3,424.322 1232.45,427.502 L1232.45,423.739 M1238.81,425.806 C1242.46,425.806 1244.58,429.463 1244.58,435.664 C1244.58,442.501 1242.46,446.37 1238.65,446.37 C1234.83,446.37 1232.39,442.448 1232.39,436.353 C1232.39,429.728 1234.78,425.806 1238.81,425.806 M1263.03,409.376 L1253.22,409.959 L1253.22,412.238 L1255.82,412.238 C1257.78,412.291 1258.05,412.609 1258.05,414.888 L1258.05,444.409 C1257.99,445.204 1257.94,445.522 1257.73,445.787 C1257.36,446.264 1256.35,446.476 1254.07,446.529 L1253.7,446.529 L1253.7,448.437 L1267.43,448.437 L1267.43,446.529 L1267.06,446.529 C1263.51,446.423 1263.03,446.158 1263.03,444.25 L1263.03,409.376 M1292.86,431.371 C1292.86,428.032 1292.28,426.336 1290.74,425.064 C1288.99,423.633 1286.39,422.944 1283,422.944 C1277.01,422.944 1272.67,425.753 1272.67,429.622 C1272.67,431.583 1273.89,432.855 1275.74,432.855 C1277.44,432.855 1278.6,431.742 1278.6,430.152 C1278.6,429.463 1278.34,428.721 1277.81,427.979 C1277.49,427.608 1277.44,427.502 1277.44,427.237 C1277.44,426.177 1279.56,425.223 1282.1,425.223 C1283.8,425.223 1285.65,425.753 1286.5,426.548 C1287.51,427.396 1287.88,428.668 1287.88,431.053 L1287.88,433.12 C1282.37,434.074 1280.62,434.498 1278.02,435.505 C1273.41,437.201 1271.24,439.639 1271.24,443.031 C1271.24,446.847 1274.2,449.232 1278.92,449.232 C1282.58,449.232 1285.86,447.748 1288.14,445.045 C1288.99,447.748 1290.32,448.808 1292.81,448.808 C1295.19,448.808 1297.68,447.271 1297.68,445.734 C1297.68,445.363 1297.47,445.098 1297.15,445.098 C1296.94,445.098 1296.73,445.151 1296.36,445.31 C1295.62,445.628 1295.3,445.681 1294.87,445.681 C1293.39,445.681 1292.86,444.727 1292.86,442.024 L1292.86,431.371 M1287.88,437.837 C1287.88,441.017 1287.72,441.759 1286.82,443.137 C1285.49,445.098 1283.11,446.423 1280.78,446.423 C1278.34,446.423 1276.59,444.674 1276.59,442.289 C1276.59,440.063 1277.7,438.473 1280.03,437.36 C1281.68,436.618 1283.74,436.088 1287.88,435.399 L1287.88,437.837 M1308.96,423.739 L1299.79,424.322 L1299.79,426.601 L1301.7,426.601 C1303.71,426.654 1303.98,426.972 1303.98,429.251 L1303.98,444.409 C1303.92,445.204 1303.87,445.522 1303.66,445.787 C1303.29,446.264 1302.28,446.476 1300,446.529 L1299.79,446.529 L1299.79,448.437 L1313.2,448.437 L1313.2,446.529 L1312.99,446.529 C1309.43,446.423 1308.96,446.158 1308.96,444.25 L1308.96,436.406 C1308.96,433.809 1309.33,431.424 1309.91,430.205 C1311.02,427.82 1313.41,426.177 1315.69,426.177 C1317.07,426.177 1318.66,426.919 1319.45,428.032 C1320.25,429.198 1320.62,430.788 1320.62,433.332 L1320.62,444.409 C1320.56,445.204 1320.51,445.522 1320.3,445.787 C1319.93,446.264 1318.87,446.476 1316.59,446.529 L1316.38,446.529 L1316.38,448.437 L1329.79,448.437 L1329.79,446.529 L1329.57,446.529 C1326.08,446.423 1325.6,446.158 1325.6,444.25 L1325.6,433.597 C1325.6,429.781 1325.44,428.827 1324.49,427.025 C1323.16,424.481 1320.51,422.944 1317.33,422.944 C1313.89,422.944 1311.29,424.534 1308.96,428.032 L1308.96,423.739 M1351.24,440.646 C1349.55,444.462 1347.75,445.999 1344.99,445.999 C1340.75,445.999 1338.1,442.13 1338.1,435.929 C1338.1,429.463 1340.7,425.223 1344.62,425.223 C1346.21,425.223 1347.59,425.965 1347.59,426.813 C1347.59,426.972 1347.53,427.131 1347.27,427.449 C1346.42,428.456 1346.21,428.986 1346.21,429.887 C1346.21,431.636 1347.53,432.855 1349.39,432.855 C1351.3,432.855 1352.62,431.371 1352.62,429.251 C1352.62,425.647 1349.07,422.944 1344.35,422.944 C1337.46,422.944 1332.53,428.562 1332.53,436.512 C1332.53,444.038 1337.04,449.232 1343.61,449.232 C1348.33,449.232 1351.03,447.059 1353.31,441.441 L1351.24,440.646 "/>
<path class="Lyrics" d="M1695.99,774.664 L1690.96,774.664 L1690.96,776.943 L1695.99,776.943 L1695.99,795.334 C1695.94,796.076 1695.89,796.447 1695.68,796.712 C1695.31,797.189 1694.25,797.401 1691.97,797.454 L1691.75,797.454 L1691.75,799.362 L1705.16,799.362 L1705.16,797.454 L1704.95,797.454 C1701.45,797.348 1700.98,797.083 1700.98,795.175 L1700.98,776.943 L1709.83,776.943 C1712,776.996 1712.16,777.261 1712.11,780.6 L1712.11,795.387 C1712.05,796.076 1712,796.394 1711.74,796.712 C1711.42,797.189 1710.36,797.401 1708.08,797.454 L1707.87,797.454 L1707.87,799.362 L1721.28,799.362 L1721.28,797.454 L1721.06,797.454 C1717.57,797.348 1717.09,797.083 1717.09,795.175 L1717.09,774.293 C1713.22,774.611 1711.74,774.664 1708.98,774.664 L1700.98,774.664 L1700.98,773.551 C1700.98,768.304 1702.3,762.474 1708.71,762.474 C1710.41,762.474 1711.21,762.739 1711.21,763.322 C1711.21,763.534 1711.21,763.587 1710.89,764.011 C1710.52,764.488 1710.3,765.23 1710.3,765.919 C1710.3,767.509 1711.74,768.675 1713.59,768.675 C1715.66,768.675 1716.93,767.456 1716.93,765.495 C1716.93,762.315 1713.91,760.354 1709.09,760.354 C1705,760.354 1701.88,761.52 1699.39,764.011 C1696.95,766.396 1695.99,769.311 1695.99,774.187 L1695.99,774.664 "/>
<path class="Lyrics" d="M1389.24,423.739 L1389.24,413.245 L1387.07,413.245 C1386.54,420.135 1384.21,423.633 1379.92,423.951 L1379.92,426.018 L1384.26,426.018 L1384.26,439.533 C1384.26,443.243 1384.37,444.568 1384.9,445.787 C1385.75,448.013 1387.87,449.232 1390.94,449.232 C1395.71,449.232 1398.78,445.628 1398.78,440.01 C1398.78,439.692 1398.78,439.321 1398.73,438.791 L1396.5,438.791 C1396.35,443.561 1394.97,445.999 1392.37,445.999 C1391.15,445.999 1390.09,445.363 1389.72,444.462 C1389.4,443.72 1389.24,442.395 1389.24,440.487 L1389.24,426.018 L1397.03,426.018 L1397.03,423.739 L1389.24,423.739 M1421.36,448.808 L1431.01,448.437 L1431.01,446.158 L1429.68,446.158 C1426.61,446.052 1426.34,445.734 1426.34,442.289 L1426.34,423.739 L1416.38,424.322 L1416.38,426.601 L1419.08,426.601 C1421.1,426.654 1421.36,426.972 1421.36,429.251 L1421.36,435.77 C1421.36,440.381 1420.25,445.999 1414.42,445.999 C1412.77,445.999 1411.4,445.416 1410.71,444.356 C1410.02,443.349 1409.91,442.819 1409.91,439.904 L1409.91,423.739 L1400.64,424.322 L1400.64,426.601 L1402.65,426.601 C1404.67,426.654 1404.93,426.972 1404.93,429.251 L1404.93,440.699 C1404.93,443.402 1405.14,444.621 1405.94,445.84 C1407.37,448.013 1409.91,449.232 1413.09,449.232 C1416.59,449.232 1419.03,447.801 1421.36,444.409 L1421.36,448.808 "/>
<path class="Lyrics" d="M1797.76,760.301 L1787.96,760.884 L1787.96,763.163 L1790.55,763.163 C1792.51,763.216 1792.78,763.534 1792.78,765.813 L1792.78,795.334 C1792.73,796.129 1792.67,796.447 1792.46,796.712 C1792.09,797.189 1791.08,797.401 1788.8,797.454 L1788.43,797.454 L1788.43,799.362 L1802.16,799.362 L1802.16,797.454 L1801.79,797.454 C1798.24,797.348 1797.76,797.083 1797.76,795.175 L1797.76,760.301 M1812.06,761.467 C1810.37,761.467 1808.99,762.845 1808.99,764.541 C1808.99,766.237 1810.37,767.615 1812.01,767.615 C1813.76,767.615 1815.14,766.237 1815.14,764.541 C1815.14,762.845 1813.76,761.467 1812.06,761.467 M1814.55,774.664 L1804.59,775.247 L1804.59,777.526 L1807.29,777.526 C1809.31,777.579 1809.57,777.897 1809.57,780.176 L1809.57,795.334 C1809.52,796.129 1809.47,796.447 1809.25,796.712 C1808.88,797.189 1807.88,797.401 1805.6,797.454 L1805.23,797.454 L1805.23,799.362 L1818.95,799.362 L1818.95,797.454 L1818.58,797.454 C1815.03,797.348 1814.55,797.083 1814.55,795.175 L1814.55,774.664 "/>
<path class="Lyrics" d="M1496.88,409.376 L1487.08,409.959 L1487.08,412.238 L1489.68,412.238 C1491.64,412.291 1491.9,412.609 1491.9,414.888 L1491.9,444.409 C1491.85,445.204 1491.8,445.522 1491.58,445.787 C1491.21,446.264 1490.21,446.476 1487.93,446.529 L1487.56,446.529 L1487.56,448.437 L1501.28,448.437 L1501.28,446.529 L1500.91,446.529 C1497.36,446.423 1496.88,446.158 1496.88,444.25 L1496.88,409.376 M1526.72,431.371 C1526.72,428.032 1526.13,426.336 1524.6,425.064 C1522.85,423.633 1520.25,422.944 1516.86,422.944 C1510.87,422.944 1506.52,425.753 1506.52,429.622 C1506.52,431.583 1507.74,432.855 1509.6,432.855 C1511.29,432.855 1512.46,431.742 1512.46,430.152 C1512.46,429.463 1512.19,428.721 1511.66,427.979 C1511.35,427.608 1511.29,427.502 1511.29,427.237 C1511.29,426.177 1513.41,425.223 1515.96,425.223 C1517.65,425.223 1519.51,425.753 1520.36,426.548 C1521.36,427.396 1521.73,428.668 1521.73,431.053 L1521.73,433.12 C1516.22,434.074 1514.47,434.498 1511.88,435.505 C1507.26,437.201 1505.09,439.639 1505.09,443.031 C1505.09,446.847 1508.06,449.232 1512.78,449.232 C1516.43,449.232 1519.72,447.748 1522,445.045 C1522.85,447.748 1524.17,448.808 1526.66,448.808 C1529.05,448.808 1531.54,447.271 1531.54,445.734 C1531.54,445.363 1531.33,445.098 1531.01,445.098 C1530.8,445.098 1530.58,445.151 1530.21,445.31 C1529.47,445.628 1529.15,445.681 1528.73,445.681 C1527.25,445.681 1526.72,444.727 1526.72,442.024 L1526.72,431.371 M1521.73,437.837 C1521.73,441.017 1521.57,441.759 1520.67,443.137 C1519.35,445.098 1516.96,446.423 1514.63,446.423 C1512.19,446.423 1510.44,444.674 1510.44,442.289 C1510.44,440.063 1511.56,438.473 1513.89,437.36 C1515.53,436.618 1517.6,436.088 1521.73,435.399 L1521.73,437.837 M1542.87,423.739 L1533.7,424.322 L1533.7,426.601 L1535.6,426.601 C1537.62,426.654 1537.88,426.972 1537.88,429.251 L1537.88,455.168 C1537.83,455.91 1537.78,456.228 1537.57,456.493 C1537.19,456.97 1536.19,457.182 1533.91,457.235 L1533.7,457.235 L1533.7,459.143 L1547.48,459.143 L1547.48,457.235 L1546.89,457.235 C1543.34,457.129 1542.87,456.864 1542.87,454.956 L1542.87,444.939 C1544.61,448.013 1546.58,449.232 1549.86,449.232 C1556.91,449.232 1560.57,442.289 1560.57,435.982 C1560.57,429.993 1556.91,422.944 1550.18,422.944 C1546.89,422.944 1544.72,424.322 1542.87,427.502 L1542.87,423.739 M1549.23,425.806 C1552.88,425.806 1555,429.463 1555,435.664 C1555,442.501 1552.88,446.37 1549.07,446.37 C1545.25,446.37 1542.81,442.448 1542.81,436.353 C1542.81,429.728 1545.2,425.806 1549.23,425.806"/>
<path class="Lyrics" d="M2499.42,791.571 C2497.72,795.387 2495.92,796.924 2493.16,796.924 C2488.92,796.924 2486.27,793.055 2486.27,786.854 C2486.27,780.388 2488.87,776.148 2492.79,776.148 C2494.38,776.148 2495.76,776.89 2495.76,777.738 C2495.76,777.897 2495.71,778.056 2495.44,778.374 C2494.59,779.381 2494.38,779.911 2494.38,780.812 C2494.38,782.561 2495.71,783.78 2497.56,783.78 C2499.47,783.78 2500.8,782.296 2500.8,780.176 C2500.8,776.572 2497.24,773.869 2492.53,773.869 C2485.64,773.869 2480.71,779.487 2480.71,787.437 C2480.71,794.963 2485.21,800.157 2491.79,800.157 C2496.5,800.157 2499.21,797.984 2501.48,792.366 L2499.42,791.571 M2515.75,773.869 C2509.23,773.869 2504.19,779.646 2504.19,787.066 C2504.19,794.327 2509.28,800.157 2515.64,800.157 C2522,800.157 2527.09,794.327 2527.09,787.013 C2527.09,779.752 2522,773.869 2515.75,773.869 M2515.75,776.148 C2519.46,776.148 2521.52,780.017 2521.52,787.013 C2521.52,794.062 2519.46,797.878 2515.64,797.878 C2511.82,797.878 2509.76,794.062 2509.76,787.066 C2509.76,779.858 2511.77,776.148 2515.75,776.148"/>
<path class="Lyrics" d="M1931.36,773.869 C1924.84,773.869 1919.8,779.646 1919.8,787.066 C1919.8,794.327 1924.89,800.157 1931.25,800.157 C1937.61,800.157 1942.7,794.327 1942.7,787.013 C1942.7,779.752 1937.61,773.869 1931.36,773.869 M1931.36,776.148 C1935.07,776.148 1937.13,780.017 1937.13,787.013 C1937.13,794.062 1935.07,797.878 1931.25,797.878 C1927.44,797.878 1925.37,794.062 1925.37,787.066 C1925.37,779.858 1927.38,776.148 1931.36,776.148"/>
<path class="Lyrics" d="M1636.5,423.156 L1634.64,423.156 L1633.1,425.064 C1631.2,423.58 1629.29,422.944 1626.64,422.944 C1621.97,422.944 1618.9,425.965 1618.9,430.629 C1618.9,435.611 1622.13,436.883 1626.37,437.89 L1629.18,438.526 C1633.37,439.533 1634.85,440.593 1634.85,442.713 C1634.85,445.204 1632.68,446.953 1629.61,446.953 C1625.1,446.953 1621.92,444.091 1620.65,438.791 L1618.53,438.791 L1618.53,448.808 L1620.38,448.808 L1622.24,446.635 C1624.41,448.384 1626.8,449.232 1629.5,449.232 C1634.69,449.232 1638.14,445.999 1638.14,441.07 C1638.14,438.738 1637.4,436.936 1635.91,435.717 C1634.64,434.604 1633.58,434.18 1630.35,433.491 L1627.7,432.908 C1624.78,432.272 1624.78,432.272 1623.83,431.742 C1622.66,431.212 1621.97,430.099 1621.97,428.933 C1621.97,426.76 1623.99,425.276 1626.9,425.276 C1631.25,425.276 1633.37,428.35 1634.64,432.06 L1636.5,432.06 L1636.5,423.156 M1653.71,422.944 C1647.19,422.944 1642.16,428.721 1642.16,436.141 C1642.16,443.402 1647.25,449.232 1653.61,449.232 C1659.97,449.232 1665.06,443.402 1665.06,436.088 C1665.06,428.827 1659.97,422.944 1653.71,422.944 M1653.71,425.223 C1657.42,425.223 1659.49,429.092 1659.49,436.088 C1659.49,443.137 1657.42,446.953 1653.61,446.953 C1649.79,446.953 1647.72,443.137 1647.72,436.141 C1647.72,428.933 1649.74,425.223 1653.71,425.223 M1677.35,423.739 L1667.97,424.322 L1667.97,426.601 L1670.14,426.601 C1672.16,426.654 1672.42,426.972 1672.42,429.251 L1672.42,444.409 C1672.37,445.204 1672.32,445.522 1672.1,445.787 C1671.73,446.264 1670.67,446.476 1668.39,446.529 L1668.18,446.529 L1668.18,448.437 L1682.33,448.437 L1682.33,446.529 L1681.38,446.529 C1677.83,446.423 1677.35,446.158 1677.35,444.25 L1677.35,441.388 C1677.4,432.484 1680.58,425.7 1684.72,425.488 C1683.98,426.336 1683.76,426.866 1683.76,427.873 C1683.76,429.569 1684.98,430.788 1686.68,430.788 C1688.64,430.788 1689.91,429.357 1689.91,427.237 C1689.91,424.64 1688.11,422.944 1685.3,422.944 C1681.96,422.944 1679.1,425.594 1677.35,430.311 L1677.35,423.739 "/>
<path class="Lyrics" d="M1759.38,431.371 C1759.38,428.032 1758.8,426.336 1757.26,425.064 C1755.51,423.633 1752.92,422.944 1749.52,422.944 C1743.54,422.944 1739.19,425.753 1739.19,429.622 C1739.19,431.583 1740.41,432.855 1742.26,432.855 C1743.96,432.855 1745.13,431.742 1745.13,430.152 C1745.13,429.463 1744.86,428.721 1744.33,427.979 C1744.01,427.608 1743.96,427.502 1743.96,427.237 C1743.96,426.177 1746.08,425.223 1748.62,425.223 C1750.32,425.223 1752.17,425.753 1753.02,426.548 C1754.03,427.396 1754.4,428.668 1754.4,431.053 L1754.4,433.12 C1748.89,434.074 1747.14,434.498 1744.54,435.505 C1739.93,437.201 1737.76,439.639 1737.76,443.031 C1737.76,446.847 1740.73,449.232 1745.44,449.232 C1749.1,449.232 1752.39,447.748 1754.67,445.045 C1755.51,447.748 1756.84,448.808 1759.33,448.808 C1761.71,448.808 1764.21,447.271 1764.21,445.734 C1764.21,445.363 1763.99,445.098 1763.68,445.098 C1763.46,445.098 1763.25,445.151 1762.88,445.31 C1762.14,445.628 1761.82,445.681 1761.4,445.681 C1759.91,445.681 1759.38,444.727 1759.38,442.024 L1759.38,431.371 M1754.4,437.837 C1754.4,441.017 1754.24,441.759 1753.34,443.137 C1752.02,445.098 1749.63,446.423 1747.3,446.423 C1744.86,446.423 1743.11,444.674 1743.11,442.289 C1743.11,440.063 1744.22,438.473 1746.56,437.36 C1748.2,436.618 1750.27,436.088 1754.4,435.399 L1754.4,437.837 M1775.48,423.739 L1766.31,424.322 L1766.31,426.601 L1768.22,426.601 C1770.23,426.654 1770.5,426.972 1770.5,429.251 L1770.5,444.409 C1770.44,445.204 1770.39,445.522 1770.18,445.787 C1769.81,446.264 1768.8,446.476 1766.52,446.529 L1766.31,446.529 L1766.31,448.437 L1779.72,448.437 L1779.72,446.529 L1779.51,446.529 C1775.96,446.423 1775.48,446.158 1775.48,444.25 L1775.48,436.406 C1775.48,433.809 1775.85,431.424 1776.43,430.205 C1777.55,427.82 1779.93,426.177 1782.21,426.177 C1783.59,426.177 1785.18,426.919 1785.97,428.032 C1786.77,429.198 1787.14,430.788 1787.14,433.332 L1787.14,444.409 C1787.09,445.204 1787.03,445.522 1786.82,445.787 C1786.45,446.264 1785.39,446.476 1783.11,446.529 L1782.9,446.529 L1782.9,448.437 L1796.31,448.437 L1796.31,446.529 L1796.1,446.529 C1792.6,446.423 1792.12,446.158 1792.12,444.25 L1792.12,433.597 C1792.12,429.781 1791.96,428.827 1791.01,427.025 C1789.68,424.481 1787.03,422.944 1783.85,422.944 C1780.41,422.944 1777.81,424.534 1775.48,428.032 L1775.48,423.739 "/>
<path class="Lyrics" d="M2664.04,423.739 L2654.66,424.322 L2654.66,426.601 L2656.83,426.601 C2658.84,426.654 2659.11,426.972 2659.11,429.251 L2659.11,444.409 C2659.06,445.204 2659,445.522 2658.79,445.787 C2658.42,446.264 2657.36,446.476 2655.08,446.529 L2654.87,446.529 L2654.87,448.437 L2669.02,448.437 L2669.02,446.529 L2668.07,446.529 C2664.51,446.423 2664.04,446.158 2664.04,444.25 L2664.04,441.388 C2664.09,432.484 2667.27,425.7 2671.4,425.488 C2670.66,426.336 2670.45,426.866 2670.45,427.873 C2670.45,429.569 2671.67,430.788 2673.37,430.788 C2675.33,430.788 2676.6,429.357 2676.6,427.237 C2676.6,424.64 2674.8,422.944 2671.99,422.944 C2668.65,422.944 2665.79,425.594 2664.04,430.311 L2664.04,423.739 M2701.41,436.512 C2701.46,428.562 2696.96,422.944 2690.49,422.944 C2683.71,422.944 2678.62,428.827 2678.62,436.777 C2678.62,444.25 2683.44,449.232 2690.6,449.232 C2695.68,449.232 2699.23,446.741 2701.41,441.706 L2699.55,440.699 C2697.38,444.78 2695.15,446.37 2691.6,446.37 C2688.9,446.37 2686.94,445.257 2685.56,442.872 C2684.61,441.282 2684.18,439.427 2684.24,436.512 L2701.41,436.512 M2684.29,434.233 C2684.29,430.523 2685.98,425.223 2690.44,425.223 C2693.62,425.223 2695.74,428.032 2695.74,432.325 C2695.74,433.809 2695.26,434.233 2693.56,434.233 L2684.29,434.233 M2710.1,442.554 C2708.25,442.554 2706.76,444.038 2706.76,445.84 C2706.76,447.695 2708.25,449.179 2710.05,449.179 C2711.9,449.179 2713.39,447.695 2713.39,445.84 C2713.39,444.038 2711.9,442.554 2710.1,442.554"/>
<path class="Lyrics" d="M2366.73,799.733 L2375.95,799.362 L2375.95,797.083 L2375,797.083 C2371.98,796.924 2371.71,796.606 2371.71,793.214 L2371.71,760.301 L2361.32,760.884 L2361.32,763.163 L2364.45,763.163 C2366.46,763.216 2366.73,763.534 2366.73,765.813 L2366.73,777.791 C2364.77,775.088 2362.49,773.869 2359.41,773.869 C2353.43,773.869 2348.87,779.646 2348.87,787.278 C2348.87,794.804 2353.27,800.157 2359.41,800.157 C2362.75,800.157 2365.03,798.726 2366.73,795.546 L2366.73,799.733 M2360.47,776.731 C2362.65,776.731 2364.71,778.321 2365.67,780.759 C2366.36,782.349 2366.68,784.522 2366.68,787.119 C2366.68,793.32 2364.24,797.295 2360.42,797.295 C2356.66,797.295 2354.43,793.797 2354.43,787.914 C2354.43,784.734 2354.75,782.349 2355.44,780.6 C2356.34,778.215 2358.3,776.731 2360.47,776.731 M2398.85,799.733 L2408.49,799.362 L2408.49,797.083 L2407.17,797.083 C2404.09,796.977 2403.83,796.659 2403.83,793.214 L2403.83,774.664 L2393.86,775.247 L2393.86,777.526 L2396.57,777.526 C2398.58,777.579 2398.85,777.897 2398.85,780.176 L2398.85,786.695 C2398.85,791.306 2397.73,796.924 2391.9,796.924 C2390.26,796.924 2388.88,796.341 2388.19,795.281 C2387.5,794.274 2387.4,793.744 2387.4,790.829 L2387.4,774.664 L2378.12,775.247 L2378.12,777.526 L2380.14,777.526 C2382.15,777.579 2382.42,777.897 2382.42,780.176 L2382.42,791.624 C2382.42,794.327 2382.63,795.546 2383.42,796.765 C2384.85,798.938 2387.4,800.157 2390.58,800.157 C2394.08,800.157 2396.51,798.726 2398.85,795.334 L2398.85,799.733 M2420.2,760.301 L2410.39,760.884 L2410.39,763.163 L2412.99,763.163 C2414.95,763.216 2415.22,763.534 2415.22,765.813 L2415.22,795.334 C2415.16,796.129 2415.11,796.447 2414.9,796.712 C2414.53,797.189 2413.52,797.401 2411.24,797.454 L2410.87,797.454 L2410.87,799.362 L2424.6,799.362 L2424.6,797.454 L2424.23,797.454 C2420.67,797.348 2420.2,797.083 2420.2,795.175 L2420.2,760.301 "/>
<path class="Lyrics" d="M2515.56,409.376 L2505.75,409.959 L2505.75,412.238 L2508.35,412.238 C2510.31,412.291 2510.57,412.609 2510.57,414.888 L2510.57,444.409 C2510.52,445.204 2510.47,445.522 2510.26,445.787 C2509.89,446.264 2508.88,446.476 2506.6,446.529 L2506.23,446.529 L2506.23,448.437 L2519.96,448.437 L2519.96,446.529 L2519.58,446.529 C2516.03,446.423 2515.56,446.158 2515.56,444.25 L2515.56,409.376 M2534.79,422.944 C2528.27,422.944 2523.23,428.721 2523.23,436.141 C2523.23,443.402 2528.32,449.232 2534.68,449.232 C2541.04,449.232 2546.13,443.402 2546.13,436.088 C2546.13,428.827 2541.04,422.944 2534.79,422.944 M2534.79,425.223 C2538.5,425.223 2540.57,429.092 2540.57,436.088 C2540.57,443.137 2538.5,446.953 2534.68,446.953 C2530.87,446.953 2528.8,443.137 2528.8,436.141 C2528.8,428.933 2530.81,425.223 2534.79,425.223"/>
<path class="Lyrics" d="M2034.43,795.44 C2031.51,795.387 2031.35,795.334 2030.72,794.963 C2030.35,794.751 2030.08,794.168 2030.08,793.585 C2030.08,791.995 2031.51,791.306 2035.06,791.2 C2040.05,791.094 2040.84,790.988 2042.64,790.193 C2045.82,788.762 2047.57,786.006 2047.57,782.508 C2047.57,780.388 2047.09,779.063 2045.66,777.314 C2046.56,776.36 2047.04,776.042 2047.47,776.042 C2047.73,776.042 2047.89,776.201 2048,776.784 C2048.21,778.056 2049.06,778.745 2050.38,778.745 C2051.76,778.745 2052.77,777.632 2052.77,776.201 C2052.77,774.399 2051.33,773.127 2049.27,773.127 C2047.57,773.127 2046.62,773.657 2044.18,775.883 C2041.95,774.399 2040.26,773.869 2037.61,773.869 C2031.3,773.869 2027.17,777.367 2027.17,782.667 C2027.17,785.794 2028.86,788.444 2031.62,789.769 C2028.07,790.564 2026.58,792.154 2026.58,795.069 C2026.58,797.401 2027.64,798.779 2030.13,799.627 C2026.85,800.846 2025.26,802.489 2025.26,804.662 C2025.26,806.252 2026.32,807.736 2028.01,808.637 C2030.08,809.697 2032.63,810.121 2036.44,810.121 C2045.29,810.121 2049.69,807.312 2049.69,801.747 C2049.69,799.097 2048.47,796.977 2046.56,796.182 C2045.13,795.652 2043.44,795.44 2039.83,795.44 L2034.43,795.44 M2037.55,776.148 C2040.84,776.148 2042.7,778.427 2042.7,782.561 C2042.7,786.695 2040.68,789.186 2037.34,789.186 C2034.06,789.186 2031.99,786.695 2031.99,782.72 C2031.99,778.533 2034,776.148 2037.55,776.148 M2037.08,799.998 C2041.48,799.998 2041.79,799.998 2042.54,800.104 C2044.71,800.316 2045.98,801.482 2045.98,803.178 C2045.98,806.199 2042.54,807.948 2036.65,807.948 C2032.15,807.948 2029.66,806.623 2029.66,804.238 C2029.66,802.489 2030.61,801.323 2033.16,799.998 L2037.08,799.998 M2076.14,782.296 C2076.14,778.957 2075.55,777.261 2074.02,775.989 C2072.27,774.558 2069.67,773.869 2066.28,773.869 C2060.29,773.869 2055.94,776.678 2055.94,780.547 C2055.94,782.508 2057.16,783.78 2059.02,783.78 C2060.71,783.78 2061.88,782.667 2061.88,781.077 C2061.88,780.388 2061.61,779.646 2061.08,778.904 C2060.77,778.533 2060.71,778.427 2060.71,778.162 C2060.71,777.102 2062.83,776.148 2065.38,776.148 C2067.07,776.148 2068.93,776.678 2069.78,777.473 C2070.78,778.321 2071.15,779.593 2071.15,781.978 L2071.15,784.045 C2065.64,784.999 2063.89,785.423 2061.3,786.43 C2056.68,788.126 2054.51,790.564 2054.51,793.956 C2054.51,797.772 2057.48,800.157 2062.2,800.157 C2065.85,800.157 2069.14,798.673 2071.42,795.97 C2072.27,798.673 2073.59,799.733 2076.08,799.733 C2078.47,799.733 2080.96,798.196 2080.96,796.659 C2080.96,796.288 2080.75,796.023 2080.43,796.023 C2080.22,796.023 2080,796.076 2079.63,796.235 C2078.89,796.553 2078.57,796.606 2078.15,796.606 C2076.67,796.606 2076.14,795.652 2076.14,792.949 L2076.14,782.296 M2071.15,788.762 C2071.15,791.942 2070.99,792.684 2070.09,794.062 C2068.77,796.023 2066.38,797.348 2064.05,797.348 C2061.61,797.348 2059.86,795.599 2059.86,793.214 C2059.86,790.988 2060.98,789.398 2063.31,788.285 C2064.95,787.543 2067.02,787.013 2071.15,786.324 L2071.15,788.762 M2103.47,799.733 L2113.11,799.362 L2113.11,797.083 L2111.79,797.083 C2108.72,796.977 2108.45,796.659 2108.45,793.214 L2108.45,774.664 L2098.49,775.247 L2098.49,777.526 L2101.19,777.526 C2103.2,777.579 2103.47,777.897 2103.47,780.176 L2103.47,786.695 C2103.47,791.306 2102.36,796.924 2096.53,796.924 C2094.88,796.924 2093.5,796.341 2092.82,795.281 C2092.13,794.274 2092.02,793.744 2092.02,790.829 L2092.02,774.664 L2082.75,775.247 L2082.75,777.526 L2084.76,777.526 C2086.77,777.579 2087.04,777.897 2087.04,780.176 L2087.04,791.624 C2087.04,794.327 2087.25,795.546 2088.05,796.765 C2089.48,798.938 2092.02,800.157 2095.2,800.157 C2098.7,800.157 2101.14,798.726 2103.47,795.334 L2103.47,799.733 "/>
<path class="Lyrics" d="M2415.35,448.808 L2424.57,448.437 L2424.57,446.158 L2423.62,446.158 C2420.6,445.999 2420.33,445.681 2420.33,442.289 L2420.33,409.376 L2409.95,409.959 L2409.95,412.238 L2413.07,412.238 C2415.09,412.291 2415.35,412.609 2415.35,414.888 L2415.35,426.866 C2413.39,424.163 2411.11,422.944 2408.04,422.944 C2402.05,422.944 2397.49,428.721 2397.49,436.353 C2397.49,443.879 2401.89,449.232 2408.04,449.232 C2411.38,449.232 2413.66,447.801 2415.35,444.621 L2415.35,448.808 M2409.1,425.806 C2411.27,425.806 2413.34,427.396 2414.29,429.834 C2414.98,431.424 2415.3,433.597 2415.3,436.194 C2415.3,442.395 2412.86,446.37 2409.05,446.37 C2405.28,446.37 2403.06,442.872 2403.06,436.989 C2403.06,433.809 2403.37,431.424 2404.06,429.675 C2404.96,427.29 2406.93,425.806 2409.1,425.806 M2438.99,422.944 C2432.47,422.944 2427.44,428.721 2427.44,436.141 C2427.44,443.402 2432.52,449.232 2438.88,449.232 C2445.24,449.232 2450.33,443.402 2450.33,436.088 C2450.33,428.827 2445.24,422.944 2438.99,422.944 M2438.99,425.223 C2442.7,425.223 2444.77,429.092 2444.77,436.088 C2444.77,443.137 2442.7,446.953 2438.88,446.953 C2435.07,446.953 2433,443.137 2433,436.141 C2433,428.933 2435.02,425.223 2438.99,425.223"/>
<path class="Lyrics" d="M2164.03,799.733 L2173.26,799.362 L2173.26,797.083 L2172.3,797.083 C2169.28,796.924 2169.02,796.606 2169.02,793.214 L2169.02,760.301 L2158.63,760.884 L2158.63,763.163 L2161.76,763.163 C2163.77,763.216 2164.03,763.534 2164.03,765.813 L2164.03,777.791 C2162.07,775.088 2159.79,773.869 2156.72,773.869 C2150.73,773.869 2146.17,779.646 2146.17,787.278 C2146.17,794.804 2150.57,800.157 2156.72,800.157 C2160.06,800.157 2162.34,798.726 2164.03,795.546 L2164.03,799.733 M2157.78,776.731 C2159.95,776.731 2162.02,778.321 2162.97,780.759 C2163.66,782.349 2163.98,784.522 2163.98,787.119 C2163.98,793.32 2161.54,797.295 2157.73,797.295 C2153.96,797.295 2151.74,793.797 2151.74,787.914 C2151.74,784.734 2152.06,782.349 2152.75,780.6 C2153.65,778.215 2155.61,776.731 2157.78,776.731 M2182.74,761.467 C2181.05,761.467 2179.67,762.845 2179.67,764.541 C2179.67,766.237 2181.05,767.615 2182.69,767.615 C2184.44,767.615 2185.82,766.237 2185.82,764.541 C2185.82,762.845 2184.44,761.467 2182.74,761.467 M2185.23,774.664 L2175.27,775.247 L2175.27,777.526 L2177.97,777.526 C2179.99,777.579 2180.25,777.897 2180.25,780.176 L2180.25,795.334 C2180.2,796.129 2180.15,796.447 2179.93,796.712 C2179.56,797.189 2178.56,797.401 2176.28,797.454 L2175.91,797.454 L2175.91,799.362 L2189.63,799.362 L2189.63,797.454 L2189.26,797.454 C2185.71,797.348 2185.23,797.083 2185.23,795.175 L2185.23,774.664 "/>
<path class="Lyrics" d="M2313.21,422.944 C2306.69,422.944 2301.65,428.721 2301.65,436.141 C2301.65,443.402 2306.74,449.232 2313.1,449.232 C2319.46,449.232 2324.55,443.402 2324.55,436.088 C2324.55,428.827 2319.46,422.944 2313.21,422.944 M2313.21,425.223 C2316.92,425.223 2318.98,429.092 2318.98,436.088 C2318.98,443.137 2316.92,446.953 2313.1,446.953 C2309.28,446.953 2307.22,443.137 2307.22,436.141 C2307.22,428.933 2309.23,425.223 2313.21,425.223 M2336.84,423.739 L2327.46,424.322 L2327.46,426.601 L2329.64,426.601 C2331.65,426.654 2331.92,426.972 2331.92,429.251 L2331.92,444.409 C2331.86,445.204 2331.81,445.522 2331.6,445.787 C2331.23,446.264 2330.17,446.476 2327.89,446.529 L2327.68,446.529 L2327.68,448.437 L2341.83,448.437 L2341.83,446.529 L2340.87,446.529 C2337.32,446.423 2336.84,446.158 2336.84,444.25 L2336.84,441.388 C2336.9,432.484 2340.08,425.7 2344.21,425.488 C2343.47,426.336 2343.26,426.866 2343.26,427.873 C2343.26,429.569 2344.48,430.788 2346.17,430.788 C2348.13,430.788 2349.41,429.357 2349.41,427.237 C2349.41,424.64 2347.6,422.944 2344.79,422.944 C2341.46,422.944 2338.59,425.594 2336.84,430.311 L2336.84,423.739 "/>
<path class="Lyrics" d="M2267.11,773.869 C2260.59,773.869 2255.55,779.646 2255.55,787.066 C2255.55,794.327 2260.64,800.157 2267,800.157 C2273.36,800.157 2278.45,794.327 2278.45,787.013 C2278.45,779.752 2273.36,773.869 2267.11,773.869 M2267.11,776.148 C2270.82,776.148 2272.88,780.017 2272.88,787.013 C2272.88,794.062 2270.82,797.878 2267,797.878 C2263.18,797.878 2261.12,794.062 2261.12,787.066 C2261.12,779.858 2263.13,776.148 2267.11,776.148"/>
<path class="Lyrics" d="M2227.06,440.646 C2225.37,444.462 2223.56,445.999 2220.81,445.999 C2216.57,445.999 2213.92,442.13 2213.92,435.929 C2213.92,429.463 2216.51,425.223 2220.44,425.223 C2222.03,425.223 2223.4,425.965 2223.4,426.813 C2223.4,426.972 2223.35,427.131 2223.09,427.449 C2222.24,428.456 2222.03,428.986 2222.03,429.887 C2222.03,431.636 2223.35,432.855 2225.21,432.855 C2227.11,432.855 2228.44,431.371 2228.44,429.251 C2228.44,425.647 2224.89,422.944 2220.17,422.944 C2213.28,422.944 2208.35,428.562 2208.35,436.512 C2208.35,444.038 2212.86,449.232 2219.43,449.232 C2224.15,449.232 2226.85,447.059 2229.13,441.441 L2227.06,440.646 M2238.51,410.542 C2236.81,410.542 2235.43,411.92 2235.43,413.616 C2235.43,415.312 2236.81,416.69 2238.46,416.69 C2240.2,416.69 2241.58,415.312 2241.58,413.616 C2241.58,411.92 2240.2,410.542 2238.51,410.542 M2241,423.739 L2231.04,424.322 L2231.04,426.601 L2233.74,426.601 C2235.75,426.654 2236.02,426.972 2236.02,429.251 L2236.02,444.409 C2235.96,445.204 2235.91,445.522 2235.7,445.787 C2235.33,446.264 2234.32,446.476 2232.04,446.529 L2231.67,446.529 L2231.67,448.437 L2245.4,448.437 L2245.4,446.529 L2245.03,446.529 C2241.48,446.423 2241,446.158 2241,444.25 L2241,423.739 "/>
<path class="Lyrics" d="M2107.98,440.646 C2106.28,444.462 2104.48,445.999 2101.73,445.999 C2097.49,445.999 2094.84,442.13 2094.84,435.929 C2094.84,429.463 2097.43,425.223 2101.35,425.223 C2102.94,425.223 2104.32,425.965 2104.32,426.813 C2104.32,426.972 2104.27,427.131 2104,427.449 C2103.16,428.456 2102.94,428.986 2102.94,429.887 C2102.94,431.636 2104.27,432.855 2106.12,432.855 C2108.03,432.855 2109.36,431.371 2109.36,429.251 C2109.36,425.647 2105.81,422.944 2101.09,422.944 C2094.2,422.944 2089.27,428.562 2089.27,436.512 C2089.27,444.038 2093.78,449.232 2100.35,449.232 C2105.06,449.232 2107.77,447.059 2110.05,441.441 L2107.98,440.646 M2121.49,423.739 L2112.11,424.322 L2112.11,426.601 L2114.29,426.601 C2116.3,426.654 2116.57,426.972 2116.57,429.251 L2116.57,444.409 C2116.51,445.204 2116.46,445.522 2116.25,445.787 C2115.88,446.264 2114.82,446.476 2112.54,446.529 L2112.33,446.529 L2112.33,448.437 L2126.48,448.437 L2126.48,446.529 L2125.52,446.529 C2121.97,446.423 2121.49,446.158 2121.49,444.25 L2121.49,441.388 C2121.55,432.484 2124.73,425.7 2128.86,425.488 C2128.12,426.336 2127.91,426.866 2127.91,427.873 C2127.91,429.569 2129.13,430.788 2130.82,430.788 C2132.78,430.788 2134.06,429.357 2134.06,427.237 C2134.06,424.64 2132.25,422.944 2129.44,422.944 C2126.11,422.944 2123.24,425.594 2121.49,430.311 L2121.49,423.739 M2157.32,448.808 L2166.97,448.437 L2166.97,446.158 L2165.64,446.158 C2162.57,446.052 2162.3,445.734 2162.3,442.289 L2162.3,423.739 L2152.34,424.322 L2152.34,426.601 L2155.04,426.601 C2157.06,426.654 2157.32,426.972 2157.32,429.251 L2157.32,435.77 C2157.32,440.381 2156.21,445.999 2150.38,445.999 C2148.73,445.999 2147.36,445.416 2146.67,444.356 C2145.98,443.349 2145.87,442.819 2145.87,439.904 L2145.87,423.739 L2136.6,424.322 L2136.6,426.601 L2138.61,426.601 C2140.63,426.654 2140.89,426.972 2140.89,429.251 L2140.89,440.699 C2140.89,443.402 2141.1,444.621 2141.9,445.84 C2143.33,448.013 2145.87,449.232 2149.05,449.232 C2152.55,449.232 2154.99,447.801 2157.32,444.409 L2157.32,448.808 "/>
<path class="Lyrics" d="M2001.61,431.371 C2001.61,428.032 2001.02,426.336 1999.49,425.064 C1997.74,423.633 1995.14,422.944 1991.75,422.944 C1985.76,422.944 1981.41,425.753 1981.41,429.622 C1981.41,431.583 1982.63,432.855 1984.49,432.855 C1986.18,432.855 1987.35,431.742 1987.35,430.152 C1987.35,429.463 1987.08,428.721 1986.55,427.979 C1986.24,427.608 1986.18,427.502 1986.18,427.237 C1986.18,426.177 1988.3,425.223 1990.85,425.223 C1992.54,425.223 1994.4,425.753 1995.25,426.548 C1996.25,427.396 1996.62,428.668 1996.62,431.053 L1996.62,433.12 C1991.11,434.074 1989.36,434.498 1986.77,435.505 C1982.15,437.201 1979.98,439.639 1979.98,443.031 C1979.98,446.847 1982.95,449.232 1987.67,449.232 C1991.32,449.232 1994.61,447.748 1996.89,445.045 C1997.74,447.748 1999.06,448.808 2001.55,448.808 C2003.94,448.808 2006.43,447.271 2006.43,445.734 C2006.43,445.363 2006.22,445.098 2005.9,445.098 C2005.69,445.098 2005.47,445.151 2005.1,445.31 C2004.36,445.628 2004.04,445.681 2003.62,445.681 C2002.14,445.681 2001.61,444.727 2001.61,442.024 L2001.61,431.371 M1996.62,437.837 C1996.62,441.017 1996.46,441.759 1995.56,443.137 C1994.24,445.098 1991.85,446.423 1989.52,446.423 C1987.08,446.423 1985.33,444.674 1985.33,442.289 C1985.33,440.063 1986.45,438.473 1988.78,437.36 C1990.42,436.618 1992.49,436.088 1996.62,435.399 L1996.62,437.837 "/>
<path class="Lyrics" d="M493.334,760.301 L484.218,760.884 L484.218,763.163 L486.073,763.163 C488.087,763.216 488.352,763.534 488.352,765.813 L488.352,786.43 C488.352,793.797 488.034,797.825 487.398,800.104 L489.412,800.104 L492.009,795.97 C494.182,798.832 496.673,800.157 499.959,800.157 C506.531,800.157 511.354,794.539 511.354,786.854 C511.354,779.222 506.902,773.869 500.542,773.869 C497.309,773.869 495.348,774.982 493.334,778.003 L493.334,760.301 M499.588,776.572 C503.563,776.572 505.789,780.441 505.789,787.384 C505.789,794.115 503.616,797.878 499.747,797.878 C495.56,797.878 493.069,794.009 493.069,787.49 C493.069,780.388 495.348,776.572 499.588,776.572 M537.203,782.296 C537.203,778.957 536.62,777.261 535.083,775.989 C533.334,774.558 530.737,773.869 527.345,773.869 C521.356,773.869 517.01,776.678 517.01,780.547 C517.01,782.508 518.229,783.78 520.084,783.78 C521.78,783.78 522.946,782.667 522.946,781.077 C522.946,780.388 522.681,779.646 522.151,778.904 C521.833,778.533 521.78,778.427 521.78,778.162 C521.78,777.102 523.9,776.148 526.444,776.148 C528.14,776.148 529.995,776.678 530.843,777.473 C531.85,778.321 532.221,779.593 532.221,781.978 L532.221,784.045 C526.709,784.999 524.96,785.423 522.363,786.43 C517.752,788.126 515.579,790.564 515.579,793.956 C515.579,797.772 518.547,800.157 523.264,800.157 C526.921,800.157 530.207,798.673 532.486,795.97 C533.334,798.673 534.659,799.733 537.15,799.733 C539.535,799.733 542.026,798.196 542.026,796.659 C542.026,796.288 541.814,796.023 541.496,796.023 C541.284,796.023 541.072,796.076 540.701,796.235 C539.959,796.553 539.641,796.606 539.217,796.606 C537.733,796.606 537.203,795.652 537.203,792.949 L537.203,782.296 M532.221,788.762 C532.221,791.942 532.062,792.684 531.161,794.062 C529.836,796.023 527.451,797.348 525.119,797.348 C522.681,797.348 520.932,795.599 520.932,793.214 C520.932,790.988 522.045,789.398 524.377,788.285 C526.02,787.543 528.087,787.013 532.221,786.324 L532.221,788.762 M551.608,774.664 L551.608,764.17 L549.435,764.17 C548.905,771.06 546.573,774.558 542.28,774.876 L542.28,776.943 L546.626,776.943 L546.626,790.458 C546.626,794.168 546.732,795.493 547.262,796.712 C548.11,798.938 550.23,800.157 553.304,800.157 C558.074,800.157 561.148,796.553 561.148,790.935 C561.148,790.617 561.148,790.246 561.095,789.716 L558.869,789.716 C558.71,794.486 557.332,796.924 554.735,796.924 C553.516,796.924 552.456,796.288 552.085,795.387 C551.767,794.645 551.608,793.32 551.608,791.412 L551.608,776.943 L559.399,776.943 L559.399,774.664 L551.608,774.664 "/>
<polyline class="LyricsLineSegment" fill="none" stroke="#000000" stroke-width="2.64" stroke-linejoin="bevel" points="2265.87,436.32 2281.68,436.32" />
<polyline class="LyricsLineSegment" fill="none" stroke="#000000" stroke-width="2.64" stroke-linejoin="bevel" points="2180.18,436.32 2196,436.32" />
<polyline class="LyricsLineSegment" fill="none" stroke="#000000" stroke-width="2.64" stroke-linejoin="bevel" points="1814.56,436.32 1830.38,436.32" />
<polyline class="LyricsLineSegment" fill="none" stroke="#000000" stroke-width="2.64" stroke-linejoin="bevel" points="496.469,436.32 512.286,436.32" />
<polyline class="LyricsLineSegment" fill="none" stroke="#000000" stroke-width="2.64" stroke-linejoin="bevel" points="963.271,436.32 979.089,436.32" />
<polyline class="LyricsLineSegment" fill="none" stroke="#000000" stroke-width="2.64" stroke-linejoin="bevel" points="1100.86,436.32 1116.68,436.32" />
<polyline class="LyricsLineSegment" fill="none" stroke="#000000" stroke-width="2.64" stroke-linejoin="bevel" points="1358.82,436.32 1374.64,436.32" />
<polyline class="LyricsLineSegment" fill="none" stroke="#000000" stroke-width="2.64" stroke-linejoin="bevel" points="2470.52,436.32 2486.33,436.32" />
<polyline class="LyricsLineSegment" fill="none" stroke="#000000" stroke-width="2.64" stroke-linejoin="bevel" points="723.481,436.32 739.298,436.32" />
<polyline class="LyricsLineSegment" fill="none" stroke="#000000" stroke-width="2.64" stroke-linejoin="bevel" points="817.93,447.119 867.758,447.119" />
<polyline class="LyricsLineSegment" fill="none" stroke="#000000" stroke-width="2.64" stroke-linejoin="bevel" points="1581.81,436.32 1597.63,436.32" />
<polyline class="LyricsLineSegment" fill="none" stroke="#000000" stroke-width="2.64" stroke-linejoin="bevel" points="2592.74,436.32 2608.55,436.32" />
<polyline class="LyricsLineSegment" fill="none" stroke="#000000" stroke-width="2.64" stroke-linejoin="bevel" points="1928.29,436.32 1944.11,436.32" />
<polyline class="LyricsLineSegment" fill="none" stroke="#000000" stroke-width="2.64" stroke-linejoin="bevel" points="2012.36,447.119 2079.95,447.119" />
<polyline class="LyricsLineSegment" fill="none" stroke="#000000" stroke-width="2.64" stroke-linejoin="bevel" points="1067.67,787.245 1083.49,787.245" />
<polyline class="LyricsLineSegment" fill="none" stroke="#000000" stroke-width="2.64" stroke-linejoin="bevel" points="1389.42,787.245 1405.23,787.245" />
<polyline class="LyricsLineSegment" fill="none" stroke="#000000" stroke-width="2.64" stroke-linejoin="bevel" points="2121.87,787.245 2137.68,787.245" />
<polyline class="LyricsLineSegment" fill="none" stroke="#000000" stroke-width="2.64" stroke-linejoin="bevel" points="2214.99,787.245 2230.81,787.245" />
<polyline class="LyricsLineSegment" fill="none" stroke="#000000" stroke-width="2.64" stroke-linejoin="bevel" points="461.864,787.245 477.681,787.245" />
<polyline class="LyricsLineSegment" fill="none" stroke="#000000" stroke-width="2.64" stroke-linejoin="bevel" points="1948.16,798.043 2019.98,798.043" />
<polyline class="LyricsLineSegment" fill="none" stroke="#000000" stroke-width="2.64" stroke-linejoin="bevel" points="936.733,787.245 952.55,787.245" />
<polyline class="LyricsLineSegment" fill="none" stroke="#000000" stroke-width="2.64" stroke-linejoin="bevel" points="1861.65,787.245 1877.46,787.245" />
<polyline class="LyricsLineSegment" fill="none" stroke="#000000" stroke-width="2.64" stroke-linejoin="bevel" points="1510.16,787.245 1525.98,787.245" />
<polyline class="LyricsLineSegment" fill="none" stroke="#000000" stroke-width="2.64" stroke-linejoin="bevel" points="1746.78,787.245 1762.6,787.245" />
<polyline class="LyricsLineSegment" fill="none" stroke="#000000" stroke-width="2.64" stroke-linejoin="bevel" points="686.781,787.245 702.598,787.245" />
<polyline class="LyricsLineSegment" fill="none" stroke="#000000" stroke-width="2.64" stroke-linejoin="bevel" points="1589.59,798.043 1657.39,798.043" />
<polyline class="LyricsLineSegment" fill="none" stroke="#000000" stroke-width="2.64" stroke-linejoin="bevel" points="2571.04,787.245 2586.85,787.245" />
<polyline class="LyricsLineSegment" fill="none" stroke="#000000" stroke-width="2.64" stroke-linejoin="bevel" points="2444.84,787.245 2460.66,787.245" />
</svg>
