<?xml version="1.0" encoding="UTF-8" standalone="no"?>
<svg width="210.058mm" height="296.926mm" viewBox="0 0 2977.2 4208.4"
 xmlns="http://www.w3.org/2000/svg" xmlns:xlink="http://www.w3.org/1999/xlink" version="1.2" baseProfile="full">
<title>CB034_emn (5)</title>
<desc>Generated by MuseScore Studio 4.6.5</desc>
<polyline class="StaffLines" fill="none" stroke="#000000" stroke-width="2.93" stroke-linejoin="bevel" points="212.598,273.609 2764.6,273.609" />
<polyline class="StaffLines" fill="none" stroke="#000000" stroke-width="2.93" stroke-linejoin="bevel" points="212.598,300.255 2764.6,300.255" />
<polyline class="StaffLines" fill="none" stroke="#000000" stroke-width="2.93" stroke-linejoin="bevel" points="212.598,326.9 2764.6,326.9" />
<polyline class="StaffLines" fill="none" stroke="#000000" stroke-width="2.93" stroke-linejoin="bevel" points="212.598,353.546 2764.6,353.546" />
<polyline class="StaffLines" fill="none" stroke="#000000" stroke-width="2.93" stroke-linejoin="bevel" points="212.598,380.192 2764.6,380.192" />
<polyline class="StaffLines" fill="none" stroke="#000000" stroke-width="2.93" stroke-linejoin="bevel" points="212.598,553.389 2764.6,553.389" />
<polyline class="StaffLines" fill="none" stroke="#000000" stroke-width="2.93" stroke-linejoin="bevel" points="212.598,580.034 2764.6,580.034" />
<polyline class="StaffLines" fill="none" stroke="#000000" stroke-width="2.93" stroke-linejoin="bevel" points="212.598,606.68 2764.6,606.68" />
<polyline class="StaffLines" fill="none" stroke="#000000" stroke-width="2.93" stroke-linejoin="bevel" points="212.598,633.326 2764.6,633.326" />
<polyline class="StaffLines" fill="none" stroke="#000000" stroke-width="2.93" stroke-linejoin="bevel" points="212.598,659.971 2764.6,659.971" />
<polyline class="StaffLines" fill="none" stroke="#000000" stroke-width="2.93" stroke-linejoin="bevel" points="212.598,920.06 2433.29,920.06" />
<polyline class="StaffLines" fill="none" stroke="#000000" stroke-width="2.93" stroke-linejoin="bevel" points="212.598,946.706 2433.29,946.706" />
<polyline class="StaffLines" fill="none" stroke="#000000" stroke-width="2.93" stroke-linejoin="bevel" points="212.598,973.351 2433.29,973.351" />
<polyline class="StaffLines" fill="none" stroke="#000000" stroke-width="2.93" stroke-linejoin="bevel" points="212.598,999.997 2433.29,999.997" />
<polyline class="StaffLines" fill="none" stroke="#000000" stroke-width="2.93" stroke-linejoin="bevel" points="212.598,1026.64 2433.29,1026.64" />
<polyline class="StaffLines" fill="none" stroke="#000000" stroke-width="2.93" stroke-linejoin="bevel" points="212.598,1199.84 2433.29,1199.84" />
<polyline class="StaffLines" fill="none" stroke="#000000" stroke-width="2.93" stroke-linejoin="bevel" points="212.598,1226.49 2433.29,1226.49" />
<polyline class="StaffLines" fill="none" stroke="#000000" stroke-width="2.93" stroke-linejoin="bevel" points="212.598,1253.13 2433.29,1253.13" />
<polyline class="StaffLines" fill="none" stroke="#000000" stroke-width="2.93" stroke-linejoin="bevel" points="212.598,1279.78 2433.29,1279.78" />
<polyline class="StaffLines" fill="none" stroke="#000000" stroke-width="2.93" stroke-linejoin="bevel" points="212.598,1306.42 2433.29,1306.42" />
<polyline class="BarLine" fill="none" stroke="#000000" stroke-width="4.80" stroke-linejoin="bevel" points="2118.56,298.789 2118.56,355.012" />
<polyline class="BarLine" fill="none" stroke="#000000" stroke-width="4.80" stroke-linejoin="bevel" points="214.996,918.595 214.996,1199.84" />
<polyline class="BarLine" fill="none" stroke="#000000" stroke-width="4.80" stroke-linejoin="bevel" points="591.267,945.24 591.267,1001.46" />
<polyline class="BarLine" fill="none" stroke="#000000" stroke-width="4.80" stroke-linejoin="bevel" points="214.996,272.144 214.996,553.389" />
<polyline class="BarLine" fill="none" stroke="#000000" stroke-width="4.80" stroke-linejoin="bevel" points="2406.37,918.595 2406.37,1028.11" />
<polyline class="BarLine" fill="none" stroke="#000000" stroke-width="14.66" stroke-linejoin="bevel" points="2425.96,918.595 2425.96,1028.11" />
<polyline class="BarLine" fill="none" stroke="#000000" stroke-width="4.80" stroke-linejoin="bevel" points="600.212,298.789 600.212,355.012" />
<polyline class="BarLine" fill="none" stroke="#000000" stroke-width="4.80" stroke-linejoin="bevel" points="1443.93,945.24 1443.93,1001.46" />
<polyline class="BarLine" fill="none" stroke="#000000" stroke-width="4.80" stroke-linejoin="bevel" points="1252.8,298.789 1252.8,355.012" />
<polyline class="BarLine" fill="none" stroke="#000000" stroke-width="4.80" stroke-linejoin="bevel" points="1896.45,578.569 1896.45,634.791" />
<polyline class="BarLine" fill="none" stroke="#000000" stroke-width="4.80" stroke-linejoin="bevel" points="2406.37,1198.37 2406.37,1307.89" />
<polyline class="BarLine" fill="none" stroke="#000000" stroke-width="14.66" stroke-linejoin="bevel" points="2425.96,1198.37 2425.96,1307.89" />
<polyline class="BarLine" fill="none" stroke="#000000" stroke-width="4.80" stroke-linejoin="bevel" points="2762.2,578.569 2762.2,634.791" />
<polyline class="BarLine" fill="none" stroke="#000000" stroke-width="4.80" stroke-linejoin="bevel" points="214.996,551.923 214.996,661.437" />
<polyline class="BarLine" fill="none" stroke="#000000" stroke-width="4.80" stroke-linejoin="bevel" points="1030.69,578.569 1030.69,634.791" />
<polyline class="BarLine" fill="none" stroke="#000000" stroke-width="4.80" stroke-linejoin="bevel" points="214.996,1198.37 214.996,1307.89" />
<polyline class="BarLine" fill="none" stroke="#000000" stroke-width="4.80" stroke-linejoin="bevel" points="600.212,578.569 600.212,634.791" />
<path class="SlurSegment" stroke="#000000" stroke-width="1.33" stroke-linecap="round" stroke-linejoin="round" fill-rule="evenodd" d="M1798.23,936.047 C1809.21,912.418 1836.19,909.354 1852.19,929.919 C1836.92,915.749 1809.93,918.813 1798.23,936.047"/>
<path class="SlurSegment" stroke="#000000" stroke-width="1.33" stroke-linecap="round" stroke-linejoin="round" fill-rule="evenodd" d="M1496.94,1285.91 C1513.6,1303.51 1546.91,1303.51 1563.56,1285.91 C1546.91,1310.43 1513.6,1310.43 1496.94,1285.91"/>
<polyline class="Stem" fill="none" stroke="#000000" stroke-width="2.66" stroke-linejoin="bevel" points="936.062,911.214 936.062,999.89" />
<polyline class="Stem" fill="none" stroke="#000000" stroke-width="2.66" stroke-linejoin="bevel" points="2339.6,304.731 2339.6,393.515" />
<polyline class="Stem" fill="none" stroke="#000000" stroke-width="2.66" stroke-linejoin="bevel" points="1718.99,335.96 1718.99,253.625" />
<polyline class="Stem" fill="none" stroke="#000000" stroke-width="2.66" stroke-linejoin="bevel" points="853.232,349.283 853.232,260.286" />
<polyline class="Stem" fill="none" stroke="#000000" stroke-width="2.66" stroke-linejoin="bevel" points="1660.82,964.505 1660.82,1046.63" />
<polyline class="Stem" fill="none" stroke="#000000" stroke-width="2.66" stroke-linejoin="bevel" points="736.219,951.182 736.219,1039.86" />
<polyline class="Stem" fill="none" stroke="#000000" stroke-width="2.66" stroke-linejoin="bevel" points="978.253,335.96 978.253,253.838" />
<polyline class="Stem" fill="none" stroke="#000000" stroke-width="2.66" stroke-linejoin="bevel" points="1965.46,349.283 1965.46,260.286" />
<polyline class="Stem" fill="none" stroke="#000000" stroke-width="2.66" stroke-linejoin="bevel" points="1289.84,318.054 1289.84,400.176" />
<polyline class="Stem" fill="none" stroke="#000000" stroke-width="2.66" stroke-linejoin="bevel" points="1594.21,977.828 1594.21,1059.84" />
<polyline class="Stem" fill="none" stroke="#000000" stroke-width="2.66" stroke-linejoin="bevel" points="1149.23,937.859 1149.23,1026.54" />
<polyline class="Stem" fill="none" stroke="#000000" stroke-width="2.66" stroke-linejoin="bevel" points="1844.01,335.96 1844.01,253.838" />
<polyline class="Stem" fill="none" stroke="#000000" stroke-width="2.66" stroke-linejoin="bevel" points="808.162,937.859 808.162,1026.64" />
<polyline class="Stem" fill="none" stroke="#000000" stroke-width="2.66" stroke-linejoin="bevel" points="628.304,924.537 628.304,1013.32" />
<polyline class="Stem" fill="none" stroke="#000000" stroke-width="2.66" stroke-linejoin="bevel" points="779.629,335.96 779.629,253.838" />
<polyline class="Stem" fill="none" stroke="#000000" stroke-width="2.66" stroke-linejoin="bevel" points="415.139,924.537 415.139,1013.32" />
<polyline class="Stem" fill="none" stroke="#000000" stroke-width="2.66" stroke-linejoin="bevel" points="1234.49,951.182 1234.49,1039.97" />
<polyline class="Stem" fill="none" stroke="#000000" stroke-width="2.66" stroke-linejoin="bevel" points="2155.6,278.086 2155.6,366.869" />
<polyline class="Stem" fill="none" stroke="#000000" stroke-width="2.66" stroke-linejoin="bevel" points="637.25,331.377 637.25,406.837" />
<polyline class="Stem" fill="none" stroke="#000000" stroke-width="2.66" stroke-linejoin="bevel" points="1480.97,964.505 1480.97,1046.63" />
<polyline class="Stem" fill="none" stroke="#000000" stroke-width="2.66" stroke-linejoin="bevel" points="1021.33,924.537 1021.33,1013.32" />
<polyline class="Stem" fill="none" stroke="#000000" stroke-width="2.66" stroke-linejoin="bevel" points="2467.5,291.408 2467.5,380.085" />
<polyline class="Stem" fill="none" stroke="#000000" stroke-width="2.66" stroke-linejoin="bevel" points="1601.75,331.377 1601.75,413.392" />
<polyline class="Stem" fill="none" stroke="#000000" stroke-width="2.66" stroke-linejoin="bevel" points="2266,291.408 2266,380.085" />
<polyline class="Stem" fill="none" stroke="#000000" stroke-width="2.66" stroke-linejoin="bevel" points="1400.24,318.054 1400.24,400.069" />
<polyline class="Stem" fill="none" stroke="#000000" stroke-width="2.66" stroke-linejoin="bevel" points="2677.79,304.731 2677.79,393.408" />
<polyline class="Stem" fill="none" stroke="#000000" stroke-width="2.66" stroke-linejoin="bevel" points="1099.7,362.606 1099.7,273.609" />
<polyline class="Stem" fill="none" stroke="#000000" stroke-width="2.66" stroke-linejoin="bevel" points="447.114,349.283 447.114,260.286" />
<polyline class="Stem" fill="none" stroke="#000000" stroke-width="2.66" stroke-linejoin="bevel" points="1473.85,331.377 1473.85,406.837" />
<polyline class="Stem" fill="none" stroke="#000000" stroke-width="2.66" stroke-linejoin="bevel" points="2552.77,318.054 2552.77,400.176" />
<polyline class="Stem" fill="none" stroke="#000000" stroke-width="2.66" stroke-linejoin="bevel" points="2187.57,642.385 2187.57,553.389" />
<polyline class="Stem" fill="none" stroke="#000000" stroke-width="2.66" stroke-linejoin="bevel" points="447.114,629.062 447.114,540.066" />
<polyline class="Stem" fill="none" stroke="#000000" stroke-width="2.66" stroke-linejoin="bevel" points="637.25,611.156 637.25,686.617" />
<polyline class="Stem" fill="none" stroke="#000000" stroke-width="2.66" stroke-linejoin="bevel" points="1718.99,642.385 1718.99,553.389" />
<polyline class="Stem" fill="none" stroke="#000000" stroke-width="2.66" stroke-linejoin="bevel" points="447.114,1288.84 447.114,1199.84" />
<polyline class="Stem" fill="none" stroke="#000000" stroke-width="2.66" stroke-linejoin="bevel" points="1178.13,611.156 1178.13,693.172" />
<polyline class="Stem" fill="none" stroke="#000000" stroke-width="2.66" stroke-linejoin="bevel" points="1021.33,1257.61 1021.33,1333.07" />
<polyline class="Stem" fill="none" stroke="#000000" stroke-width="2.66" stroke-linejoin="bevel" points="1512.94,1248.87 1512.94,1179.93" />
<polyline class="Stem" fill="none" stroke="#000000" stroke-width="2.66" stroke-linejoin="bevel" points="1965.46,629.062 1965.46,540.066" />
<polyline class="Stem" fill="none" stroke="#000000" stroke-width="2.66" stroke-linejoin="bevel" points="1067.73,611.156 1067.73,686.617" />
<polyline class="Stem" fill="none" stroke="#000000" stroke-width="2.66" stroke-linejoin="bevel" points="1149.23,1244.28 1149.23,1326.3" />
<polyline class="Stem" fill="none" stroke="#000000" stroke-width="2.66" stroke-linejoin="bevel" points="821.257,597.834 821.257,679.956" />
<polyline class="Stem" fill="none" stroke="#000000" stroke-width="2.66" stroke-linejoin="bevel" points="968.036,1275.51 968.036,1186.73" />
<polyline class="Stem" fill="none" stroke="#000000" stroke-width="2.66" stroke-linejoin="bevel" points="2552.77,597.834 2552.77,679.956" />
<polyline class="Stem" fill="none" stroke="#000000" stroke-width="2.66" stroke-linejoin="bevel" points="628.304,1257.61 628.304,1333.07" />
<polyline class="Stem" fill="none" stroke="#000000" stroke-width="2.66" stroke-linejoin="bevel" points="1321.82,615.74 1321.82,533.404" />
<polyline class="Stem" fill="none" stroke="#000000" stroke-width="1.87" stroke-linejoin="bevel" points="1574.76,1263.47 1574.76,1183.48" />
<polyline class="Stem" fill="none" stroke="#000000" stroke-width="2.66" stroke-linejoin="bevel" points="1626.18,1275.51 1626.18,1186.44" />
<polyline class="Stem" fill="none" stroke="#000000" stroke-width="2.66" stroke-linejoin="bevel" points="1432.22,615.74 1432.22,533.618" />
<polyline class="Stem" fill="none" stroke="#000000" stroke-width="2.66" stroke-linejoin="bevel" points="736.219,1257.61 736.219,1339.62" />
<polyline class="Stem" fill="none" stroke="#000000" stroke-width="2.66" stroke-linejoin="bevel" points="1692.8,1288.84 1692.8,1199.84" />
<polyline class="Stem" fill="none" stroke="#000000" stroke-width="2.66" stroke-linejoin="bevel" points="840.137,1262.19 840.137,1179.86" />
<polyline class="Stem" fill="none" stroke="#000000" stroke-width="2.66" stroke-linejoin="bevel" points="1359.51,1244.28 1359.51,1326.3" />
<polyline class="Stem" fill="none" stroke="#000000" stroke-width="2.66" stroke-linejoin="bevel" points="1633.72,629.062 1633.72,540.279" />
<polyline class="Stem" fill="none" stroke="#000000" stroke-width="2.66" stroke-linejoin="bevel" points="1505.82,629.062 1505.82,540.066" />
<polyline class="Stem" fill="none" stroke="#000000" stroke-width="2.66" stroke-linejoin="bevel" points="2339.6,611.156 2339.6,686.617" />
<polyline class="Stem" fill="none" stroke="#000000" stroke-width="2.66" stroke-linejoin="bevel" points="1234.49,1230.96 1234.49,1319.75" />
<polyline class="Stem" fill="none" stroke="#000000" stroke-width="2.66" stroke-linejoin="bevel" points="548.8,1275.51 548.8,1186.73" />
<path class="Hook" transform="matrix(1.06583,0,0,1.06583,1592.88,1059.95)" d="M0,-0.1 C0,0.6 0.6,1.2 1.3,1.2 C1.8,1.2 2.4,0.8 2.5,0.4 C2.5,0.3 3.4,-3.2 3.5,-3.5 C3.6,-3.9 4.5,-7.7 8.1,-13.6 C12,-20.1 18,-24.8 23,-31.8 C27.9,-38.8 30.9,-45.4 30.9,-54.2 C30.9,-63.3 28.8,-70.9 23.5,-80.6 C23.2,-81.3 22.6,-81.7 22,-81.7 C21.8,-81.7 21.6,-81.7 21.5,-81.6 C21,-81.4 20.8,-81 20.8,-80.4 C20.8,-80.1 20.9,-79.6 21.1,-79.2 C25.1,-69.9 26.7,-64.6 26.7,-57.4 C26.7,-49.1 23.8,-44.8 22,-41.7 C15.5,-30.6 5,-25.2 0.8,-23.8 C0.1,-23.5 0,-23 0,-22.7 L0,-0.1 "/>
<path class="Hook" transform="matrix(1.06583,0,0,1.06583,976.921,253.625)" d="M0,22.7 C0,23 0.1,23.5 0.8,23.8 C5.1,25.2 13.7,30.6 20.2,41.7 C22,44.8 24.9,49.1 24.9,57.4 C24.9,64.6 23,72 20.4,79.2 C20.2,79.8 20,80.3 20.1,80.7 C20.1,81.3 20.5,81.7 21.1,81.7 C21.8,81.7 22.3,81.3 22.7,80.6 C27.2,72.6 28.9,63.3 28.9,54.2 C28.4,41.3 21,31.8 21,31.8 C21.3,31.8 11.8,19.5 9.1,15.3 C5.4,9.6 3.7,3.9 3.5,3.5 C3.4,3.2 2.5,-0.4 2.5,-0.4 C2.4,-0.8 1.9,-1.2 1.3,-1.2 C0.6,-1.2 0,-0.6 0,0.1 L0,22.7 "/>
<path class="Hook" transform="matrix(1.06583,0,0,1.06583,934.729,999.997)" d="M0,-0.1 C0,0.6 0.6,1.2 1.3,1.2 C1.8,1.2 2.4,0.8 2.5,0.4 C2.5,0.3 3.4,-3.2 3.5,-3.5 C3.6,-3.9 4.5,-7.7 8.1,-13.6 C12,-20.1 18,-24.8 23,-31.8 C27.9,-38.8 30.9,-45.4 30.9,-54.2 C30.9,-63.3 28.8,-70.9 23.5,-80.6 C23.2,-81.3 22.6,-81.7 22,-81.7 C21.8,-81.7 21.6,-81.7 21.5,-81.6 C21,-81.4 20.8,-81 20.8,-80.4 C20.8,-80.1 20.9,-79.6 21.1,-79.2 C25.1,-69.9 26.7,-64.6 26.7,-57.4 C26.7,-49.1 23.8,-44.8 22,-41.7 C15.5,-30.6 5,-25.2 0.8,-23.8 C0.1,-23.5 0,-23 0,-22.7 L0,-0.1 "/>
<path class="Hook" transform="matrix(1.06583,0,0,1.06583,1398.91,400.176)" d="M0,-0.1 C0,0.6 0.6,1.2 1.3,1.2 C1.8,1.2 2.4,0.8 2.5,0.4 C2.5,0.3 3.4,-3.2 3.5,-3.5 C3.6,-3.9 4.5,-7.7 8.1,-13.6 C12,-20.1 18,-24.8 23,-31.8 C27.9,-38.8 30.9,-45.4 30.9,-54.2 C30.9,-63.3 28.8,-70.9 23.5,-80.6 C23.2,-81.3 22.6,-81.7 22,-81.7 C21.8,-81.7 21.6,-81.7 21.5,-81.6 C21,-81.4 20.8,-81 20.8,-80.4 C20.8,-80.1 20.9,-79.6 21.1,-79.2 C25.1,-69.9 26.7,-64.6 26.7,-57.4 C26.7,-49.1 23.8,-44.8 22,-41.7 C15.5,-30.6 5,-25.2 0.8,-23.8 C0.1,-23.5 0,-23 0,-22.7 L0,-0.1 "/>
<path class="Hook" transform="matrix(1.06583,0,0,1.06583,1842.68,253.625)" d="M0,22.7 C0,23 0.1,23.5 0.8,23.8 C5.1,25.2 13.7,30.6 20.2,41.7 C22,44.8 24.9,49.1 24.9,57.4 C24.9,64.6 23,72 20.4,79.2 C20.2,79.8 20,80.3 20.1,80.7 C20.1,81.3 20.5,81.7 21.1,81.7 C21.8,81.7 22.3,81.3 22.7,80.6 C27.2,72.6 28.9,63.3 28.9,54.2 C28.4,41.3 21,31.8 21,31.8 C21.3,31.8 11.8,19.5 9.1,15.3 C5.4,9.6 3.7,3.9 3.5,3.5 C3.4,3.2 2.5,-0.4 2.5,-0.4 C2.4,-0.8 1.9,-1.2 1.3,-1.2 C0.6,-1.2 0,-0.6 0,0.1 L0,22.7 "/>
<path class="Hook" transform="matrix(1.06583,0,0,1.06583,2676.46,393.515)" d="M0,-0.1 C0,0.6 0.6,1.2 1.3,1.2 C1.8,1.2 2.4,0.8 2.5,0.4 C2.5,0.3 3.4,-3.2 3.5,-3.5 C3.6,-3.9 4.5,-7.7 8.1,-13.6 C12,-20.1 18,-24.8 23,-31.8 C27.9,-38.8 30.9,-45.4 30.9,-54.2 C30.9,-63.3 28.8,-70.9 23.5,-80.6 C23.2,-81.3 22.6,-81.7 22,-81.7 C21.8,-81.7 21.6,-81.7 21.5,-81.6 C21,-81.4 20.8,-81 20.8,-80.4 C20.8,-80.1 20.9,-79.6 21.1,-79.2 C25.1,-69.9 26.7,-64.6 26.7,-57.4 C26.7,-49.1 23.8,-44.8 22,-41.7 C15.5,-30.6 5,-25.2 0.8,-23.8 C0.1,-23.5 0,-23 0,-22.7 L0,-0.1 "/>
<path class="Hook" transform="matrix(1.06583,0,0,1.06583,734.887,1039.97)" d="M0,-0.1 C0,0.6 0.6,1.2 1.3,1.2 C1.8,1.2 2.4,0.8 2.5,0.4 C2.5,0.3 3.4,-3.2 3.5,-3.5 C3.6,-3.9 4.5,-7.7 8.1,-13.6 C12,-20.1 18,-24.8 23,-31.8 C27.9,-38.8 30.9,-45.4 30.9,-54.2 C30.9,-63.3 28.8,-70.9 23.5,-80.6 C23.2,-81.3 22.6,-81.7 22,-81.7 C21.8,-81.7 21.6,-81.7 21.5,-81.6 C21,-81.4 20.8,-81 20.8,-80.4 C20.8,-80.1 20.9,-79.6 21.1,-79.2 C25.1,-69.9 26.7,-64.6 26.7,-57.4 C26.7,-49.1 23.8,-44.8 22,-41.7 C15.5,-30.6 5,-25.2 0.8,-23.8 C0.1,-23.5 0,-23 0,-22.7 L0,-0.1 "/>
<path class="Hook" transform="matrix(1.06583,0,0,1.06583,1147.89,1026.64)" d="M0,-0.1 C0,0.6 0.6,1.2 1.3,1.2 C1.8,1.2 2.4,0.8 2.5,0.4 C2.5,0.3 3.4,-3.2 3.5,-3.5 C3.6,-3.9 4.5,-7.7 8.1,-13.6 C12,-20.1 18,-24.8 23,-31.8 C27.9,-38.8 30.9,-45.4 30.9,-54.2 C30.9,-63.3 28.8,-70.9 23.5,-80.6 C23.2,-81.3 22.6,-81.7 22,-81.7 C21.8,-81.7 21.6,-81.7 21.5,-81.6 C21,-81.4 20.8,-81 20.8,-80.4 C20.8,-80.1 20.9,-79.6 21.1,-79.2 C25.1,-69.9 26.7,-64.6 26.7,-57.4 C26.7,-49.1 23.8,-44.8 22,-41.7 C15.5,-30.6 5,-25.2 0.8,-23.8 C0.1,-23.5 0,-23 0,-22.7 L0,-0.1 "/>
<path class="Hook" transform="matrix(1.06583,0,0,1.06583,778.297,253.625)" d="M0,22.7 C0,23 0.1,23.5 0.8,23.8 C5.1,25.2 13.7,30.6 20.2,41.7 C22,44.8 24.9,49.1 24.9,57.4 C24.9,64.6 23,72 20.4,79.2 C20.2,79.8 20,80.3 20.1,80.7 C20.1,81.3 20.5,81.7 21.1,81.7 C21.8,81.7 22.3,81.3 22.7,80.6 C27.2,72.6 28.9,63.3 28.9,54.2 C28.4,41.3 21,31.8 21,31.8 C21.3,31.8 11.8,19.5 9.1,15.3 C5.4,9.6 3.7,3.9 3.5,3.5 C3.4,3.2 2.5,-0.4 2.5,-0.4 C2.4,-0.8 1.9,-1.2 1.3,-1.2 C0.6,-1.2 0,-0.6 0,0.1 L0,22.7 "/>
<path class="Hook" transform="matrix(1.06583,0,0,1.06583,2466.17,380.192)" d="M0,-0.1 C0,0.6 0.6,1.2 1.3,1.2 C1.8,1.2 2.4,0.8 2.5,0.4 C2.5,0.3 3.4,-3.2 3.5,-3.5 C3.6,-3.9 4.5,-7.7 8.1,-13.6 C12,-20.1 18,-24.8 23,-31.8 C27.9,-38.8 30.9,-45.4 30.9,-54.2 C30.9,-63.3 28.8,-70.9 23.5,-80.6 C23.2,-81.3 22.6,-81.7 22,-81.7 C21.8,-81.7 21.6,-81.7 21.5,-81.6 C21,-81.4 20.8,-81 20.8,-80.4 C20.8,-80.1 20.9,-79.6 21.1,-79.2 C25.1,-69.9 26.7,-64.6 26.7,-57.4 C26.7,-49.1 23.8,-44.8 22,-41.7 C15.5,-30.6 5,-25.2 0.8,-23.8 C0.1,-23.5 0,-23 0,-22.7 L0,-0.1 "/>
<path class="Hook" transform="matrix(1.06583,0,0,1.06583,2264.67,380.192)" d="M0,-0.1 C0,0.6 0.6,1.2 1.3,1.2 C1.8,1.2 2.4,0.8 2.5,0.4 C2.5,0.3 3.4,-3.2 3.5,-3.5 C3.6,-3.9 4.5,-7.7 8.1,-13.6 C12,-20.1 18,-24.8 23,-31.8 C27.9,-38.8 30.9,-45.4 30.9,-54.2 C30.9,-63.3 28.8,-70.9 23.5,-80.6 C23.2,-81.3 22.6,-81.7 22,-81.7 C21.8,-81.7 21.6,-81.7 21.5,-81.6 C21,-81.4 20.8,-81 20.8,-80.4 C20.8,-80.1 20.9,-79.6 21.1,-79.2 C25.1,-69.9 26.7,-64.6 26.7,-57.4 C26.7,-49.1 23.8,-44.8 22,-41.7 C15.5,-30.6 5,-25.2 0.8,-23.8 C0.1,-23.5 0,-23 0,-22.7 L0,-0.1 "/>
<path class="Hook" transform="matrix(1.06583,0,0,1.06583,1600.41,413.499)" d="M0,-0.1 C0,0.6 0.6,1.2 1.3,1.2 C1.8,1.2 2.4,0.8 2.5,0.4 C2.5,0.3 3.4,-3.2 3.5,-3.5 C3.6,-3.9 4.5,-7.7 8.1,-13.6 C12,-20.1 18,-24.8 23,-31.8 C27.9,-38.8 30.9,-45.4 30.9,-54.2 C30.9,-63.3 28.8,-70.9 23.5,-80.6 C23.2,-81.3 22.6,-81.7 22,-81.7 C21.8,-81.7 21.6,-81.7 21.5,-81.6 C21,-81.4 20.8,-81 20.8,-80.4 C20.8,-80.1 20.9,-79.6 21.1,-79.2 C25.1,-69.9 26.7,-64.6 26.7,-57.4 C26.7,-49.1 23.8,-44.8 22,-41.7 C15.5,-30.6 5,-25.2 0.8,-23.8 C0.1,-23.5 0,-23 0,-22.7 L0,-0.1 "/>
<path class="Hook" transform="matrix(1.06583,0,0,1.06583,1632.39,540.066)" d="M0,22.7 C0,23 0.1,23.5 0.8,23.8 C5.1,25.2 13.7,30.6 20.2,41.7 C22,44.8 24.9,49.1 24.9,57.4 C24.9,64.6 23,72 20.4,79.2 C20.2,79.8 20,80.3 20.1,80.7 C20.1,81.3 20.5,81.7 21.1,81.7 C21.8,81.7 22.3,81.3 22.7,80.6 C27.2,72.6 28.9,63.3 28.9,54.2 C28.4,41.3 21,31.8 21,31.8 C21.3,31.8 11.8,19.5 9.1,15.3 C5.4,9.6 3.7,3.9 3.5,3.5 C3.4,3.2 2.5,-0.4 2.5,-0.4 C2.4,-0.8 1.9,-1.2 1.3,-1.2 C0.6,-1.2 0,-0.6 0,0.1 L0,22.7 "/>
<path class="Hook" transform="matrix(1.06583,0,0,1.06583,1358.18,1326.41)" d="M0,-0.1 C0,0.6 0.6,1.2 1.3,1.2 C1.8,1.2 2.4,0.8 2.5,0.4 C2.5,0.3 3.4,-3.2 3.5,-3.5 C3.6,-3.9 4.5,-7.7 8.1,-13.6 C12,-20.1 18,-24.8 23,-31.8 C27.9,-38.8 30.9,-45.4 30.9,-54.2 C30.9,-63.3 28.8,-70.9 23.5,-80.6 C23.2,-81.3 22.6,-81.7 22,-81.7 C21.8,-81.7 21.6,-81.7 21.5,-81.6 C21,-81.4 20.8,-81 20.8,-80.4 C20.8,-80.1 20.9,-79.6 21.1,-79.2 C25.1,-69.9 26.7,-64.6 26.7,-57.4 C26.7,-49.1 23.8,-44.8 22,-41.7 C15.5,-30.6 5,-25.2 0.8,-23.8 C0.1,-23.5 0,-23 0,-22.7 L0,-0.1 "/>
<path class="Hook" transform="matrix(1.06583,0,0,1.06583,734.887,1339.73)" d="M0,-0.1 C0,0.6 0.6,1.2 1.3,1.2 C1.8,1.2 2.4,0.8 2.5,0.4 C2.5,0.3 3.4,-3.2 3.5,-3.5 C3.6,-3.9 4.5,-7.7 8.1,-13.6 C12,-20.1 18,-24.8 23,-31.8 C27.9,-38.8 30.9,-45.4 30.9,-54.2 C30.9,-63.3 28.8,-70.9 23.5,-80.6 C23.2,-81.3 22.6,-81.7 22,-81.7 C21.8,-81.7 21.6,-81.7 21.5,-81.6 C21,-81.4 20.8,-81 20.8,-80.4 C20.8,-80.1 20.9,-79.6 21.1,-79.2 C25.1,-69.9 26.7,-64.6 26.7,-57.4 C26.7,-49.1 23.8,-44.8 22,-41.7 C15.5,-30.6 5,-25.2 0.8,-23.8 C0.1,-23.5 0,-23 0,-22.7 L0,-0.1 "/>
<path class="Hook" transform="matrix(1.06583,0,0,1.06583,1430.89,533.404)" d="M0,22.7 C0,23 0.1,23.5 0.8,23.8 C5.1,25.2 13.7,30.6 20.2,41.7 C22,44.8 24.9,49.1 24.9,57.4 C24.9,64.6 23,72 20.4,79.2 C20.2,79.8 20,80.3 20.1,80.7 C20.1,81.3 20.5,81.7 21.1,81.7 C21.8,81.7 22.3,81.3 22.7,80.6 C27.2,72.6 28.9,63.3 28.9,54.2 C28.4,41.3 21,31.8 21,31.8 C21.3,31.8 11.8,19.5 9.1,15.3 C5.4,9.6 3.7,3.9 3.5,3.5 C3.4,3.2 2.5,-0.4 2.5,-0.4 C2.4,-0.8 1.9,-1.2 1.3,-1.2 C0.6,-1.2 0,-0.6 0,0.1 L0,22.7 "/>
<path class="Hook" transform="matrix(1.06583,0,0,1.06583,966.704,1186.52)" d="M0,22.7 C0,23 0.1,23.5 0.8,23.8 C5.1,25.2 13.7,30.6 20.2,41.7 C22,44.8 24.9,49.1 24.9,57.4 C24.9,64.6 23,72 20.4,79.2 C20.2,79.8 20,80.3 20.1,80.7 C20.1,81.3 20.5,81.7 21.1,81.7 C21.8,81.7 22.3,81.3 22.7,80.6 C27.2,72.6 28.9,63.3 28.9,54.2 C28.4,41.3 21,31.8 21,31.8 C21.3,31.8 11.8,19.5 9.1,15.3 C5.4,9.6 3.7,3.9 3.5,3.5 C3.4,3.2 2.5,-0.4 2.5,-0.4 C2.4,-0.8 1.9,-1.2 1.3,-1.2 C0.6,-1.2 0,-0.6 0,0.1 L0,22.7 "/>
<path class="Hook" transform="matrix(1.06583,0,0,1.06583,1147.89,1326.41)" d="M0,-0.1 C0,0.6 0.6,1.2 1.3,1.2 C1.8,1.2 2.4,0.8 2.5,0.4 C2.5,0.3 3.4,-3.2 3.5,-3.5 C3.6,-3.9 4.5,-7.7 8.1,-13.6 C12,-20.1 18,-24.8 23,-31.8 C27.9,-38.8 30.9,-45.4 30.9,-54.2 C30.9,-63.3 28.8,-70.9 23.5,-80.6 C23.2,-81.3 22.6,-81.7 22,-81.7 C21.8,-81.7 21.6,-81.7 21.5,-81.6 C21,-81.4 20.8,-81 20.8,-80.4 C20.8,-80.1 20.9,-79.6 21.1,-79.2 C25.1,-69.9 26.7,-64.6 26.7,-57.4 C26.7,-49.1 23.8,-44.8 22,-41.7 C15.5,-30.6 5,-25.2 0.8,-23.8 C0.1,-23.5 0,-23 0,-22.7 L0,-0.1 "/>
<path class="Hook" transform="matrix(1.06583,0,0,1.06583,1176.8,693.278)" d="M0,-0.1 C0,0.6 0.6,1.2 1.3,1.2 C1.8,1.2 2.4,0.8 2.5,0.4 C2.5,0.3 3.4,-3.2 3.5,-3.5 C3.6,-3.9 4.5,-7.7 8.1,-13.6 C12,-20.1 18,-24.8 23,-31.8 C27.9,-38.8 30.9,-45.4 30.9,-54.2 C30.9,-63.3 28.8,-70.9 23.5,-80.6 C23.2,-81.3 22.6,-81.7 22,-81.7 C21.8,-81.7 21.6,-81.7 21.5,-81.6 C21,-81.4 20.8,-81 20.8,-80.4 C20.8,-80.1 20.9,-79.6 21.1,-79.2 C25.1,-69.9 26.7,-64.6 26.7,-57.4 C26.7,-49.1 23.8,-44.8 22,-41.7 C15.5,-30.6 5,-25.2 0.8,-23.8 C0.1,-23.5 0,-23 0,-22.7 L0,-0.1 "/>
<path class="Hook" transform="matrix(1.06583,0,0,1.06583,547.468,1186.52)" d="M0,22.7 C0,23 0.1,23.5 0.8,23.8 C5.1,25.2 13.7,30.6 20.2,41.7 C22,44.8 24.9,49.1 24.9,57.4 C24.9,64.6 23,72 20.4,79.2 C20.2,79.8 20,80.3 20.1,80.7 C20.1,81.3 20.5,81.7 21.1,81.7 C21.8,81.7 22.3,81.3 22.7,80.6 C27.2,72.6 28.9,63.3 28.9,54.2 C28.4,41.3 21,31.8 21,31.8 C21.3,31.8 11.8,19.5 9.1,15.3 C5.4,9.6 3.7,3.9 3.5,3.5 C3.4,3.2 2.5,-0.4 2.5,-0.4 C2.4,-0.8 1.9,-1.2 1.3,-1.2 C0.6,-1.2 0,-0.6 0,0.1 L0,22.7 "/>
<path class="Note" transform="matrix(1.06583,0,0,1.06583,2007.11,960.029)" d="M0,4.2 C0,8.5 3.1,13.3 11.2,13.3 C21.6,13.3 32.5,4.8 32.5,-4 C32.5,-9.9 27.5,-13.2 21.3,-13.2 C11.6,-13.2 0,-5 0,4.2"/>
<path class="Note" transform="matrix(1.06583,0,0,1.06583,1810.7,340.223)" d="M0,4.2 C0,8.5 3.1,13.3 11.2,13.3 C21.6,13.3 32.5,4.8 32.5,-4 C32.5,-9.9 27.5,-13.2 21.3,-13.2 C11.6,-13.2 0,-5 0,4.2"/>
<path class="Note" transform="matrix(1.06583,0,0,1.06583,1917.47,933.383)" d="M0,4.2 C0,8.5 3.1,13.3 11.2,13.3 C21.6,13.3 32.5,4.8 32.5,-4 C32.5,-9.9 27.5,-13.2 21.3,-13.2 C11.6,-13.2 0,-5 0,4.2"/>
<path class="Note" transform="matrix(1.06583,0,0,1.06583,1872.66,920.06)" d="M0,4.2 C0,8.5 3.1,13.3 11.2,13.3 C21.6,13.3 32.5,4.8 32.5,-4 C32.5,-9.9 27.5,-13.2 21.3,-13.2 C11.6,-13.2 0,-5 0,4.2"/>
<path class="Note" transform="matrix(1.06583,0,0,1.06583,413.806,920.06)" d="M0,4.2 C0,8.5 3.1,13.3 11.2,13.3 C21.6,13.3 32.5,4.8 32.5,-4 C32.5,-9.9 27.5,-13.2 21.3,-13.2 C11.6,-13.2 0,-5 0,4.2"/>
<path class="Note" transform="matrix(1.06583,0,0,1.06583,413.806,353.546)" d="M0,4.2 C0,8.5 3.1,13.3 11.2,13.3 C21.6,13.3 32.5,4.8 32.5,-4 C32.5,-9.9 27.5,-13.2 21.3,-13.2 C11.6,-13.2 0,-5 0,4.2"/>
<path class="Note" transform="matrix(1.06583,0,0,1.06583,626.972,920.06)" d="M0,4.2 C0,8.5 3.1,13.3 11.2,13.3 C21.6,13.3 32.5,4.8 32.5,-4 C32.5,-9.9 27.5,-13.2 21.3,-13.2 C11.6,-13.2 0,-5 0,4.2"/>
<path class="Note" transform="matrix(0.746079,0,0,0.746079,1840.07,946.706)" d="M0,4.2 C0,8.5 3.1,13.3 11.2,13.3 C21.6,13.3 32.5,4.8 32.5,-4 C32.5,-9.9 27.5,-13.2 21.3,-13.2 C11.6,-13.2 0,-5 0,4.2"/>
<path class="Note" transform="matrix(1.06583,0,0,1.06583,1780.91,960.029)" d="M0,4.2 C0,8.5 3.1,13.3 11.2,13.3 C21.6,13.3 32.5,4.8 32.5,-4 C32.5,-9.9 27.5,-13.2 21.3,-13.2 C11.6,-13.2 0,-5 0,4.2"/>
<path class="Note" transform="matrix(1.06583,0,0,1.06583,1659.49,960.029)" d="M0,4.2 C0,8.5 3.1,13.3 11.2,13.3 C21.6,13.3 32.5,4.8 32.5,-4 C32.5,-9.9 27.5,-13.2 21.3,-13.2 C11.6,-13.2 0,-5 0,4.2"/>
<path class="Note" transform="matrix(1.06583,0,0,1.06583,635.917,326.9)" d="M0,4.2 C0,8.5 3.1,13.3 11.2,13.3 C21.6,13.3 32.5,4.8 32.5,-4 C32.5,-9.9 27.5,-13.2 21.3,-13.2 C11.6,-13.2 0,-5 0,4.2"/>
<path class="Note" transform="matrix(1.06583,0,0,1.06583,734.887,946.706)" d="M0,4.2 C0,8.5 3.1,13.3 11.2,13.3 C21.6,13.3 32.5,4.8 32.5,-4 C32.5,-9.9 27.5,-13.2 21.3,-13.2 C11.6,-13.2 0,-5 0,4.2"/>
<path class="Note" transform="matrix(1.06583,0,0,1.06583,2051.92,973.351)" d="M0,4.2 C0,8.5 3.1,13.3 11.2,13.3 C21.6,13.3 32.5,4.8 32.5,-4 C32.5,-9.9 27.5,-13.2 21.3,-13.2 C11.6,-13.2 0,-5 0,4.2"/>
<path class="Note" transform="matrix(1.06583,0,0,1.06583,2096.74,986.674)" d="M0,4.2 C0,8.5 3.1,13.3 11.2,13.3 C21.6,13.3 32.5,4.8 32.5,-4 C32.5,-9.9 27.5,-13.2 21.3,-13.2 C11.6,-13.2 0,-5 0,4.2"/>
<path class="Note" transform="matrix(1.06583,0,0,1.06583,746.322,340.223)" d="M0,4.2 C0,8.5 3.1,13.3 11.2,13.3 C21.6,13.3 32.5,4.8 32.5,-4 C32.5,-9.9 27.5,-13.2 21.3,-13.2 C11.6,-13.2 0,-5 0,4.2"/>
<path class="Note" transform="matrix(1.06583,0,0,1.06583,2141.55,999.997)" d="M0,4.2 C0,8.5 3.1,13.3 11.2,13.3 C21.6,13.3 32.5,4.8 32.5,-4 C32.5,-9.9 27.5,-13.2 21.3,-13.2 C11.6,-13.2 0,-5 0,4.2"/>
<path class="Note" transform="matrix(1.06583,0,0,1.06583,2186.37,999.997)" d="M0,4.2 C0,8.5 3.1,13.3 11.2,13.3 C21.6,13.3 32.5,4.8 32.5,-4 C32.5,-9.9 27.5,-13.2 21.3,-13.2 C11.6,-13.2 0,-5 0,4.2"/>
<path class="Note" transform="matrix(1.06583,0,0,1.06583,2248.54,986.674)" d="M0,4.2 C0,8.5 3.1,13.3 11.2,13.3 C21.6,13.3 32.5,4.8 32.5,-4 C32.5,-9.9 27.5,-13.2 21.3,-13.2 C11.6,-13.2 0,-5 0,4.2"/>
<path class="Note" transform="matrix(1.06583,0,0,1.06583,2310.72,999.997)" d="M0,4.2 C0,8.5 3.1,13.3 11.2,13.3 C21.6,13.3 32.5,4.8 32.5,-4 C32.5,-9.9 27.5,-13.2 21.3,-13.2 C11.6,-13.2 0,-5 0,4.2"/>
<path class="Note" transform="matrix(1.06583,0,0,1.06583,819.925,353.546)" d="M0,4.2 C0,8.5 3.1,13.3 11.2,13.3 C21.6,13.3 32.5,4.8 32.5,-4 C32.5,-9.9 27.5,-13.2 21.3,-13.2 C11.6,-13.2 0,-5 0,4.2"/>
<path class="Note" transform="matrix(1.06583,0,0,1.06583,806.83,933.383)" d="M0,4.2 C0,8.5 3.1,13.3 11.2,13.3 C21.6,13.3 32.5,4.8 32.5,-4 C32.5,-9.9 27.5,-13.2 21.3,-13.2 C11.6,-13.2 0,-5 0,4.2"/>
<path class="Note" transform="matrix(1.06583,0,0,1.06583,1592.88,973.351)" d="M0,4.2 C0,8.5 3.1,13.3 11.2,13.3 C21.6,13.3 32.5,4.8 32.5,-4 C32.5,-9.9 27.5,-13.2 21.3,-13.2 C11.6,-13.2 0,-5 0,4.2"/>
<path class="Note" transform="matrix(1.06583,0,0,1.06583,944.946,340.223)" d="M0,4.2 C0,8.5 3.1,13.3 11.2,13.3 C21.6,13.3 32.5,4.8 32.5,-4 C32.5,-9.9 27.5,-13.2 21.3,-13.2 C11.6,-13.2 0,-5 0,4.2"/>
<path class="Note" transform="matrix(1.06583,0,0,1.06583,1066.4,366.869)" d="M0,4.2 C0,8.5 3.1,13.3 11.2,13.3 C21.6,13.3 32.5,4.8 32.5,-4 C32.5,-9.9 27.5,-13.2 21.3,-13.2 C11.6,-13.2 0,-5 0,4.2"/>
<path class="Note" transform="matrix(1.06583,0,0,1.06583,2676.46,300.255)" d="M0,4.2 C0,8.5 3.1,13.3 11.2,13.3 C21.6,13.3 32.5,4.8 32.5,-4 C32.5,-9.9 27.5,-13.2 21.3,-13.2 C11.6,-13.2 0,-5 0,4.2"/>
<path class="Note" transform="matrix(1.06583,0,0,1.06583,934.729,906.737)" d="M0,4.2 C0,8.5 3.1,13.3 11.2,13.3 C21.6,13.3 32.5,4.8 32.5,-4 C32.5,-9.9 27.5,-13.2 21.3,-13.2 C11.6,-13.2 0,-5 0,4.2"/>
<path class="Note" transform="matrix(1.06583,0,0,1.06583,1479.63,960.029)" d="M0,4.2 C0,8.5 3.1,13.3 11.2,13.3 C21.6,13.3 32.5,4.8 32.5,-4 C32.5,-9.9 27.5,-13.2 21.3,-13.2 C11.6,-13.2 0,-5 0,4.2"/>
<path class="Note" transform="matrix(1.06583,0,0,1.06583,2551.44,313.578)" d="M0,4.2 C0,8.5 3.1,13.3 11.2,13.3 C21.6,13.3 32.5,4.8 32.5,-4 C32.5,-9.9 27.5,-13.2 21.3,-13.2 C11.6,-13.2 0,-5 0,4.2"/>
<path class="Note" transform="matrix(1.06583,0,0,1.06583,1288.51,313.578)" d="M0,4.2 C0,8.5 3.1,13.3 11.2,13.3 C21.6,13.3 32.5,4.8 32.5,-4 C32.5,-9.9 27.5,-13.2 21.3,-13.2 C11.6,-13.2 0,-5 0,4.2"/>
<path class="Note" transform="matrix(1.06583,0,0,1.06583,2466.17,286.932)" d="M0,4.2 C0,8.5 3.1,13.3 11.2,13.3 C21.6,13.3 32.5,4.8 32.5,-4 C32.5,-9.9 27.5,-13.2 21.3,-13.2 C11.6,-13.2 0,-5 0,4.2"/>
<path class="Note" transform="matrix(1.06583,0,0,1.06583,1398.91,313.578)" d="M0,4.2 C0,8.5 3.1,13.3 11.2,13.3 C21.6,13.3 32.5,4.8 32.5,-4 C32.5,-9.9 27.5,-13.2 21.3,-13.2 C11.6,-13.2 0,-5 0,4.2"/>
<path class="Note" transform="matrix(1.06583,0,0,1.06583,2338.27,300.255)" d="M0,4.2 C0,8.5 3.1,13.3 11.2,13.3 C21.6,13.3 32.5,4.8 32.5,-4 C32.5,-9.9 27.5,-13.2 21.3,-13.2 C11.6,-13.2 0,-5 0,4.2"/>
<path class="Note" transform="matrix(1.06583,0,0,1.06583,2264.67,286.932)" d="M0,4.2 C0,8.5 3.1,13.3 11.2,13.3 C21.6,13.3 32.5,4.8 32.5,-4 C32.5,-9.9 27.5,-13.2 21.3,-13.2 C11.6,-13.2 0,-5 0,4.2"/>
<path class="Note" transform="matrix(1.06583,0,0,1.06583,1472.52,326.9)" d="M0,4.2 C0,8.5 3.1,13.3 11.2,13.3 C21.6,13.3 32.5,4.8 32.5,-4 C32.5,-9.9 27.5,-13.2 21.3,-13.2 C11.6,-13.2 0,-5 0,4.2"/>
<path class="Note" transform="matrix(1.06583,0,0,1.06583,1020,920.06)" d="M0,4.2 C0,8.5 3.1,13.3 11.2,13.3 C21.6,13.3 32.5,4.8 32.5,-4 C32.5,-9.9 27.5,-13.2 21.3,-13.2 C11.6,-13.2 0,-5 0,4.2"/>
<path class="Note" transform="matrix(1.06583,0,0,1.06583,2154.26,273.609)" d="M0,4.2 C0,8.5 3.1,13.3 11.2,13.3 C21.6,13.3 32.5,4.8 32.5,-4 C32.5,-9.9 27.5,-13.2 21.3,-13.2 C11.6,-13.2 0,-5 0,4.2"/>
<path class="Note" transform="matrix(1.06583,0,0,1.06583,1233.16,946.706)" d="M0,4.2 C0,8.5 3.1,13.3 11.2,13.3 C21.6,13.3 32.5,4.8 32.5,-4 C32.5,-9.9 27.5,-13.2 21.3,-13.2 C11.6,-13.2 0,-5 0,4.2"/>
<path class="Note" transform="matrix(1.06583,0,0,1.06583,1600.41,326.9)" d="M0,4.2 C0,8.5 3.1,13.3 11.2,13.3 C21.6,13.3 32.5,4.8 32.5,-4 C32.5,-9.9 27.5,-13.2 21.3,-13.2 C11.6,-13.2 0,-5 0,4.2"/>
<path class="Note" transform="matrix(1.06583,0,0,1.06583,1685.68,340.223)" d="M0,4.2 C0,8.5 3.1,13.3 11.2,13.3 C21.6,13.3 32.5,4.8 32.5,-4 C32.5,-9.9 27.5,-13.2 21.3,-13.2 C11.6,-13.2 0,-5 0,4.2"/>
<path class="Note" transform="matrix(1.06583,0,0,1.06583,1147.89,933.383)" d="M0,4.2 C0,8.5 3.1,13.3 11.2,13.3 C21.6,13.3 32.5,4.8 32.5,-4 C32.5,-9.9 27.5,-13.2 21.3,-13.2 C11.6,-13.2 0,-5 0,4.2"/>
<path class="Note" transform="matrix(1.06583,0,0,1.06583,1932.15,353.546)" d="M0,4.2 C0,8.5 3.1,13.3 11.2,13.3 C21.6,13.3 32.5,4.8 32.5,-4 C32.5,-9.9 27.5,-13.2 21.3,-13.2 C11.6,-13.2 0,-5 0,4.2"/>
<path class="Note" transform="matrix(1.06583,0,0,1.06583,1962.29,946.706)" d="M0,4.2 C0,8.5 3.1,13.3 11.2,13.3 C21.6,13.3 32.5,4.8 32.5,-4 C32.5,-9.9 27.5,-13.2 21.3,-13.2 C11.6,-13.2 0,-5 0,4.2"/>
<path class="Note" transform="matrix(1.06583,0,0,1.06583,515.493,1279.78)" d="M0,4.2 C0,8.5 3.1,13.3 11.2,13.3 C21.6,13.3 32.5,4.8 32.5,-4 C32.5,-9.9 27.5,-13.2 21.3,-13.2 C11.6,-13.2 0,-5 0,4.2"/>
<path class="Note" transform="matrix(1.06583,0,0,1.06583,2310.72,1279.78)" d="M0,4.2 C0,8.5 3.1,13.3 11.2,13.3 C21.6,13.3 32.5,4.8 32.5,-4 C32.5,-9.9 27.5,-13.2 21.3,-13.2 C11.6,-13.2 0,-5 0,4.2"/>
<path class="Note" transform="matrix(1.06583,0,0,1.06583,1932.15,633.326)" d="M0,4.2 C0,8.5 3.1,13.3 11.2,13.3 C21.6,13.3 32.5,4.8 32.5,-4 C32.5,-9.9 27.5,-13.2 21.3,-13.2 C11.6,-13.2 0,-5 0,4.2"/>
<path class="Note" transform="matrix(1.06583,0,0,1.06583,1600.41,633.326)" d="M0,4.2 C0,8.5 3.1,13.3 11.2,13.3 C21.6,13.3 32.5,4.8 32.5,-4 C32.5,-9.9 27.5,-13.2 21.3,-13.2 C11.6,-13.2 0,-5 0,4.2"/>
<path class="Note" transform="matrix(1.06583,0,0,1.06583,1020,1253.13)" d="M0,4.2 C0,8.5 3.1,13.3 11.2,13.3 C21.6,13.3 32.5,4.8 32.5,-4 C32.5,-9.9 27.5,-13.2 21.3,-13.2 C11.6,-13.2 0,-5 0,4.2"/>
<path class="Note" transform="matrix(1.06583,0,0,1.06583,1472.52,633.326)" d="M0,4.2 C0,8.5 3.1,13.3 11.2,13.3 C21.6,13.3 32.5,4.8 32.5,-4 C32.5,-9.9 27.5,-13.2 21.3,-13.2 C11.6,-13.2 0,-5 0,4.2"/>
<path class="Note" transform="matrix(1.06583,0,0,1.06583,1233.16,1226.49)" d="M0,4.2 C0,8.5 3.1,13.3 11.2,13.3 C21.6,13.3 32.5,4.8 32.5,-4 C32.5,-9.9 27.5,-13.2 21.3,-13.2 C11.6,-13.2 0,-5 0,4.2"/>
<path class="Note" transform="matrix(1.06583,0,0,1.06583,2154.26,646.649)" d="M0,4.2 C0,8.5 3.1,13.3 11.2,13.3 C21.6,13.3 32.5,4.8 32.5,-4 C32.5,-9.9 27.5,-13.2 21.3,-13.2 C11.6,-13.2 0,-5 0,4.2"/>
<path class="Note" transform="matrix(1.06583,0,0,1.06583,1398.91,620.003)" d="M0,4.2 C0,8.5 3.1,13.3 11.2,13.3 C21.6,13.3 32.5,4.8 32.5,-4 C32.5,-9.9 27.5,-13.2 21.3,-13.2 C11.6,-13.2 0,-5 0,4.2"/>
<path class="Note" transform="matrix(1.06583,0,0,1.06583,1872.66,1293.1)" d="M0,4.2 C0,8.5 3.1,13.3 11.2,13.3 C21.6,13.3 32.5,4.8 32.5,-4 C32.5,-9.9 27.5,-13.2 21.3,-13.2 C11.6,-13.2 0,-5 0,4.2"/>
<path class="Note" transform="matrix(1.06583,0,0,1.06583,413.806,1293.1)" d="M0,4.2 C0,8.5 3.1,13.3 11.2,13.3 C21.6,13.3 32.5,4.8 32.5,-4 C32.5,-9.9 27.5,-13.2 21.3,-13.2 C11.6,-13.2 0,-5 0,4.2"/>
<path class="Note" transform="matrix(1.06583,0,0,1.06583,626.972,1253.13)" d="M0,4.2 C0,8.5 3.1,13.3 11.2,13.3 C21.6,13.3 32.5,4.8 32.5,-4 C32.5,-9.9 27.5,-13.2 21.3,-13.2 C11.6,-13.2 0,-5 0,4.2"/>
<path class="Note" transform="matrix(1.06583,0,0,1.06583,1358.18,1239.81)" d="M0,4.2 C0,8.5 3.1,13.3 11.2,13.3 C21.6,13.3 32.5,4.8 32.5,-4 C32.5,-9.9 27.5,-13.2 21.3,-13.2 C11.6,-13.2 0,-5 0,4.2"/>
<path class="Note" transform="matrix(1.06583,0,0,1.06583,2338.27,606.68)" d="M0,4.2 C0,8.5 3.1,13.3 11.2,13.3 C21.6,13.3 32.5,4.8 32.5,-4 C32.5,-9.9 27.5,-13.2 21.3,-13.2 C11.6,-13.2 0,-5 0,4.2"/>
<path class="Note" transform="matrix(1.06583,0,0,1.06583,1288.51,620.003)" d="M0,4.2 C0,8.5 3.1,13.3 11.2,13.3 C21.6,13.3 32.5,4.8 32.5,-4 C32.5,-9.9 27.5,-13.2 21.3,-13.2 C11.6,-13.2 0,-5 0,4.2"/>
<path class="Note" transform="matrix(1.06583,0,0,1.06583,934.729,1279.78)" d="M0,4.2 C0,8.5 3.1,13.3 11.2,13.3 C21.6,13.3 32.5,4.8 32.5,-4 C32.5,-9.9 27.5,-13.2 21.3,-13.2 C11.6,-13.2 0,-5 0,4.2"/>
<path class="Note" transform="matrix(1.06583,0,0,1.06583,1176.8,606.68)" d="M0,4.2 C0,8.5 3.1,13.3 11.2,13.3 C21.6,13.3 32.5,4.8 32.5,-4 C32.5,-9.9 27.5,-13.2 21.3,-13.2 C11.6,-13.2 0,-5 0,4.2"/>
<path class="Note" transform="matrix(1.06583,0,0,1.06583,413.806,633.326)" d="M0,4.2 C0,8.5 3.1,13.3 11.2,13.3 C21.6,13.3 32.5,4.8 32.5,-4 C32.5,-9.9 27.5,-13.2 21.3,-13.2 C11.6,-13.2 0,-5 0,4.2"/>
<path class="Note" transform="matrix(1.06583,0,0,1.06583,2551.44,593.357)" d="M0,4.2 C0,8.5 3.1,13.3 11.2,13.3 C21.6,13.3 32.5,4.8 32.5,-4 C32.5,-9.9 27.5,-13.2 21.3,-13.2 C11.6,-13.2 0,-5 0,4.2"/>
<path class="Note" transform="matrix(1.06583,0,0,1.06583,1066.4,606.68)" d="M0,4.2 C0,8.5 3.1,13.3 11.2,13.3 C21.6,13.3 32.5,4.8 32.5,-4 C32.5,-9.9 27.5,-13.2 21.3,-13.2 C11.6,-13.2 0,-5 0,4.2"/>
<path class="Note" transform="matrix(1.06583,0,0,1.06583,1479.63,1253.13)" d="M0,4.2 C0,8.5 3.1,13.3 11.2,13.3 C21.6,13.3 32.5,4.8 32.5,-4 C32.5,-9.9 27.5,-13.2 21.3,-13.2 C11.6,-13.2 0,-5 0,4.2"/>
<path class="Note" transform="matrix(1.06583,0,0,1.06583,1659.49,1293.1)" d="M0,4.2 C0,8.5 3.1,13.3 11.2,13.3 C21.6,13.3 32.5,4.8 32.5,-4 C32.5,-9.9 27.5,-13.2 21.3,-13.2 C11.6,-13.2 0,-5 0,4.2"/>
<path class="Note" transform="matrix(1.06583,0,0,1.06583,635.917,606.68)" d="M0,4.2 C0,8.5 3.1,13.3 11.2,13.3 C21.6,13.3 32.5,4.8 32.5,-4 C32.5,-9.9 27.5,-13.2 21.3,-13.2 C11.6,-13.2 0,-5 0,4.2"/>
<path class="Note" transform="matrix(0.746079,0,0,0.746079,1551.44,1266.45)" d="M0,4.2 C0,8.5 3.1,13.3 11.2,13.3 C21.6,13.3 32.5,4.8 32.5,-4 C32.5,-9.9 27.5,-13.2 21.3,-13.2 C11.6,-13.2 0,-5 0,4.2"/>
<path class="Note" transform="matrix(1.06583,0,0,1.06583,734.887,1253.13)" d="M0,4.2 C0,8.5 3.1,13.3 11.2,13.3 C21.6,13.3 32.5,4.8 32.5,-4 C32.5,-9.9 27.5,-13.2 21.3,-13.2 C11.6,-13.2 0,-5 0,4.2"/>
<path class="Note" transform="matrix(1.06583,0,0,1.06583,806.83,1266.45)" d="M0,4.2 C0,8.5 3.1,13.3 11.2,13.3 C21.6,13.3 32.5,4.8 32.5,-4 C32.5,-9.9 27.5,-13.2 21.3,-13.2 C11.6,-13.2 0,-5 0,4.2"/>
<path class="Note" transform="matrix(1.06583,0,0,1.06583,1147.89,1239.81)" d="M0,4.2 C0,8.5 3.1,13.3 11.2,13.3 C21.6,13.3 32.5,4.8 32.5,-4 C32.5,-9.9 27.5,-13.2 21.3,-13.2 C11.6,-13.2 0,-5 0,4.2"/>
<path class="Note" transform="matrix(1.06583,0,0,1.06583,819.925,593.357)" d="M0,4.2 C0,8.5 3.1,13.3 11.2,13.3 C21.6,13.3 32.5,4.8 32.5,-4 C32.5,-9.9 27.5,-13.2 21.3,-13.2 C11.6,-13.2 0,-5 0,4.2"/>
<path class="Note" transform="matrix(1.06583,0,0,1.06583,1592.88,1279.78)" d="M0,4.2 C0,8.5 3.1,13.3 11.2,13.3 C21.6,13.3 32.5,4.8 32.5,-4 C32.5,-9.9 27.5,-13.2 21.3,-13.2 C11.6,-13.2 0,-5 0,4.2"/>
<path class="Note" transform="matrix(1.06583,0,0,1.06583,1685.68,646.649)" d="M0,4.2 C0,8.5 3.1,13.3 11.2,13.3 C21.6,13.3 32.5,4.8 32.5,-4 C32.5,-9.9 27.5,-13.2 21.3,-13.2 C11.6,-13.2 0,-5 0,4.2"/>
<path class="Clef" transform="matrix(1.06583,0,0,1.06583,237.379,999.997)" d="M36.2,21.2 C21.9,21.2 9.7,11.2 9.7,-3.9 C9.7,-16.1 18.3,-27 27.1,-34.7 C28.8,-36.1 30.4,-37.5 31.9,-39 C32.8,-33.6 33.5,-29 34.2,-24.8 C25.1,-22.2 18.9,-12.5 18.9,-3.2 C18.9,3.9 24.4,13.5 32.4,13.5 C33.2,13.5 34.1,13.1 34.1,12.1 C34.1,11.3 33.2,10.7 31.9,9.9 C28,7.6 25.8,4.9 25.8,0.1 C25.8,-6 30.4,-10.9 36.2,-12.3 L42,20.5 C40,20.9 38.2,21.2 36.2,21.2 M33.2,-82.2 C34.2,-86.2 38.7,-96.7 43.9,-96.7 C45.4,-96.7 47.9,-91.9 47.9,-84.9 C47.9,-74.6 40.1,-66.8 33.2,-59.9 C32.6,-63.9 32.1,-67.9 32.1,-72 C32.1,-75.8 32.5,-79.1 33.2,-82.2 M46.2,19.3 C44.1,7.4 41.4,-8.5 40.7,-12.9 C50.8,-12.9 55.1,-5.9 56,-1.1 C56.1,-0.3 56.3,0.8 56.3,2 C56.3,9.2 53.3,16.4 46.2,19.3 M32.3,87.7 C30.1,87.7 28.6,86.3 28.6,84.2 C28.6,82.2 29.5,80.6 31.2,79.6 C31.6,79.8 31.7,79.8 32,80 C33.2,80.6 33.2,80.6 33.4,80.8 C35.3,81.9 36.1,82.9 36.1,84.3 C36.1,86.2 34.5,87.7 32.3,87.7 M36.1,75.7 C34.6,74.9 34.2,74.7 33.9,74.5 L33.7,74.4 C32.2,73.5 31.7,72.8 31.7,71.6 C31.7,69.8 33.1,68.5 35.1,68.5 C37,68.5 38.2,69.7 38.2,71.8 C38.2,73.4 37.6,74.5 36.1,75.7 M64,-0.2 C64,-15.3 53.3,-25.5 38.7,-25.5 C37.7,-31.5 36.8,-37.4 35.9,-43 C46.4,-54.1 53.8,-66.7 53.8,-82.5 C53.8,-91.6 51,-99 49.3,-102.6 C46.9,-107.7 44,-111.2 42.3,-111.2 C41.6,-111.2 38.4,-110 35.2,-106.1 C28.7,-98.5 26.9,-85.8 26.9,-77.4 C26.9,-72 27.4,-67.1 29.1,-55.8 C29,-55.8 23.8,-50.5 21.7,-48.7 C12.6,-40.3 0,-28.1 0,-8.2 C0,10.6 16.3,25.3 34.9,25.3 C37.8,25.3 40.5,25 42.9,24.6 C44.7,34.1 45.9,41.2 45.9,46.5 C45.9,56.9 40.5,62.4 30.4,62.4 C28,62.4 25.9,61.9 25.7,61.8 C25.6,61.8 25.4,61.7 25.4,61.6 C25.4,61.4 25.6,61.3 25.9,61.2 C30.6,60.5 35.3,56.4 35.3,50.1 C35.3,44.7 31.2,39 23.7,39 C16.7,39 12.3,44.7 12.3,51.3 C12.3,57.9 17.3,66.6 30.8,66.6 C43.7,66.6 50,59.3 50,46.5 C50,42.6 49.4,38.1 48.4,32.4 C48.1,30.4 47.6,27.3 46.9,23.5 C56.7,20.2 64,10.1 64,-0.2 M42.3,71.7 C42.3,68 38.9,66.4 35.6,66.4 C31.4,66.4 27.3,69 27.3,73.5 C27.3,75.4 28,76.8 29.4,78.2 C26.8,79.2 24.2,81.2 24.2,84.3 C24.2,87.6 27.2,89.8 31.6,89.8 C37,89.8 40.8,86.8 40.8,82.5 C40.8,80.2 39.8,78.3 38,77 C40.9,75.7 42.3,74.1 42.3,71.7"/>
<path class="Clef" transform="matrix(1.06583,0,0,1.06583,237.379,353.546)" d="M36.2,21.2 C21.9,21.2 9.7,11.2 9.7,-3.9 C9.7,-16.1 18.3,-27 27.1,-34.7 C28.8,-36.1 30.4,-37.5 31.9,-39 C32.8,-33.6 33.5,-29 34.2,-24.8 C25.1,-22.2 18.9,-12.5 18.9,-3.2 C18.9,3.9 24.4,13.5 32.4,13.5 C33.2,13.5 34.1,13.1 34.1,12.1 C34.1,11.3 33.2,10.7 31.9,9.9 C28,7.6 25.8,4.9 25.8,0.1 C25.8,-6 30.4,-10.9 36.2,-12.3 L42,20.5 C40,20.9 38.2,21.2 36.2,21.2 M33.2,-82.2 C34.2,-86.2 38.7,-96.7 43.9,-96.7 C45.4,-96.7 47.9,-91.9 47.9,-84.9 C47.9,-74.6 40.1,-66.8 33.2,-59.9 C32.6,-63.9 32.1,-67.9 32.1,-72 C32.1,-75.8 32.5,-79.1 33.2,-82.2 M46.2,19.3 C44.1,7.4 41.4,-8.5 40.7,-12.9 C50.8,-12.9 55.1,-5.9 56,-1.1 C56.1,-0.3 56.3,0.8 56.3,2 C56.3,9.2 53.3,16.4 46.2,19.3 M32.3,87.7 C30.1,87.7 28.6,86.3 28.6,84.2 C28.6,82.2 29.5,80.6 31.2,79.6 C31.6,79.8 31.7,79.8 32,80 C33.2,80.6 33.2,80.6 33.4,80.8 C35.3,81.9 36.1,82.9 36.1,84.3 C36.1,86.2 34.5,87.7 32.3,87.7 M36.1,75.7 C34.6,74.9 34.2,74.7 33.9,74.5 L33.7,74.4 C32.2,73.5 31.7,72.8 31.7,71.6 C31.7,69.8 33.1,68.5 35.1,68.5 C37,68.5 38.2,69.7 38.2,71.8 C38.2,73.4 37.6,74.5 36.1,75.7 M64,-0.2 C64,-15.3 53.3,-25.5 38.7,-25.5 C37.7,-31.5 36.8,-37.4 35.9,-43 C46.4,-54.1 53.8,-66.7 53.8,-82.5 C53.8,-91.6 51,-99 49.3,-102.6 C46.9,-107.7 44,-111.2 42.3,-111.2 C41.6,-111.2 38.4,-110 35.2,-106.1 C28.7,-98.5 26.9,-85.8 26.9,-77.4 C26.9,-72 27.4,-67.1 29.1,-55.8 C29,-55.8 23.8,-50.5 21.7,-48.7 C12.6,-40.3 0,-28.1 0,-8.2 C0,10.6 16.3,25.3 34.9,25.3 C37.8,25.3 40.5,25 42.9,24.6 C44.7,34.1 45.9,41.2 45.9,46.5 C45.9,56.9 40.5,62.4 30.4,62.4 C28,62.4 25.9,61.9 25.7,61.8 C25.6,61.8 25.4,61.7 25.4,61.6 C25.4,61.4 25.6,61.3 25.9,61.2 C30.6,60.5 35.3,56.4 35.3,50.1 C35.3,44.7 31.2,39 23.7,39 C16.7,39 12.3,44.7 12.3,51.3 C12.3,57.9 17.3,66.6 30.8,66.6 C43.7,66.6 50,59.3 50,46.5 C50,42.6 49.4,38.1 48.4,32.4 C48.1,30.4 47.6,27.3 46.9,23.5 C56.7,20.2 64,10.1 64,-0.2 M42.3,71.7 C42.3,68 38.9,66.4 35.6,66.4 C31.4,66.4 27.3,69 27.3,73.5 C27.3,75.4 28,76.8 29.4,78.2 C26.8,79.2 24.2,81.2 24.2,84.3 C24.2,87.6 27.2,89.8 31.6,89.8 C37,89.8 40.8,86.8 40.8,82.5 C40.8,80.2 39.8,78.3 38,77 C40.9,75.7 42.3,74.1 42.3,71.7"/>
<path class="Clef" transform="matrix(1.06583,0,0,1.06583,237.379,1279.78)" d="M36.2,21.2 C21.9,21.2 9.7,11.2 9.7,-3.9 C9.7,-16.1 18.3,-27 27.1,-34.7 C28.8,-36.1 30.4,-37.5 31.9,-39 C32.8,-33.6 33.5,-29 34.2,-24.8 C25.1,-22.2 18.9,-12.5 18.9,-3.2 C18.9,3.9 24.4,13.5 32.4,13.5 C33.2,13.5 34.1,13.1 34.1,12.1 C34.1,11.3 33.2,10.7 31.9,9.9 C28,7.6 25.8,4.9 25.8,0.1 C25.8,-6 30.4,-10.9 36.2,-12.3 L42,20.5 C40,20.9 38.2,21.2 36.2,21.2 M33.2,-82.2 C34.2,-86.2 38.7,-96.7 43.9,-96.7 C45.4,-96.7 47.9,-91.9 47.9,-84.9 C47.9,-74.6 40.1,-66.8 33.2,-59.9 C32.6,-63.9 32.1,-67.9 32.1,-72 C32.1,-75.8 32.5,-79.1 33.2,-82.2 M46.2,19.3 C44.1,7.4 41.4,-8.5 40.7,-12.9 C50.8,-12.9 55.1,-5.9 56,-1.1 C56.1,-0.3 56.3,0.8 56.3,2 C56.3,9.2 53.3,16.4 46.2,19.3 M32.3,87.7 C30.1,87.7 28.6,86.3 28.6,84.2 C28.6,82.2 29.5,80.6 31.2,79.6 C31.6,79.8 31.7,79.8 32,80 C33.2,80.6 33.2,80.6 33.4,80.8 C35.3,81.9 36.1,82.9 36.1,84.3 C36.1,86.2 34.5,87.7 32.3,87.7 M36.1,75.7 C34.6,74.9 34.2,74.7 33.9,74.5 L33.7,74.4 C32.2,73.5 31.7,72.8 31.7,71.6 C31.7,69.8 33.1,68.5 35.1,68.5 C37,68.5 38.2,69.7 38.2,71.8 C38.2,73.4 37.6,74.5 36.1,75.7 M64,-0.2 C64,-15.3 53.3,-25.5 38.7,-25.5 C37.7,-31.5 36.8,-37.4 35.9,-43 C46.4,-54.1 53.8,-66.7 53.8,-82.5 C53.8,-91.6 51,-99 49.3,-102.6 C46.9,-107.7 44,-111.2 42.3,-111.2 C41.6,-111.2 38.4,-110 35.2,-106.1 C28.7,-98.5 26.9,-85.8 26.9,-77.4 C26.9,-72 27.4,-67.1 29.1,-55.8 C29,-55.8 23.8,-50.5 21.7,-48.7 C12.6,-40.3 0,-28.1 0,-8.2 C0,10.6 16.3,25.3 34.9,25.3 C37.8,25.3 40.5,25 42.9,24.6 C44.7,34.1 45.9,41.2 45.9,46.5 C45.9,56.9 40.5,62.4 30.4,62.4 C28,62.4 25.9,61.9 25.7,61.8 C25.6,61.8 25.4,61.7 25.4,61.6 C25.4,61.4 25.6,61.3 25.9,61.2 C30.6,60.5 35.3,56.4 35.3,50.1 C35.3,44.7 31.2,39 23.7,39 C16.7,39 12.3,44.7 12.3,51.3 C12.3,57.9 17.3,66.6 30.8,66.6 C43.7,66.6 50,59.3 50,46.5 C50,42.6 49.4,38.1 48.4,32.4 C48.1,30.4 47.6,27.3 46.9,23.5 C56.7,20.2 64,10.1 64,-0.2 M42.3,71.7 C42.3,68 38.9,66.4 35.6,66.4 C31.4,66.4 27.3,69 27.3,73.5 C27.3,75.4 28,76.8 29.4,78.2 C26.8,79.2 24.2,81.2 24.2,84.3 C24.2,87.6 27.2,89.8 31.6,89.8 C37,89.8 40.8,86.8 40.8,82.5 C40.8,80.2 39.8,78.3 38,77 C40.9,75.7 42.3,74.1 42.3,71.7"/>
<path class="Clef" transform="matrix(1.06583,0,0,1.06583,237.379,633.326)" d="M36.2,21.2 C21.9,21.2 9.7,11.2 9.7,-3.9 C9.7,-16.1 18.3,-27 27.1,-34.7 C28.8,-36.1 30.4,-37.5 31.9,-39 C32.8,-33.6 33.5,-29 34.2,-24.8 C25.1,-22.2 18.9,-12.5 18.9,-3.2 C18.9,3.9 24.4,13.5 32.4,13.5 C33.2,13.5 34.1,13.1 34.1,12.1 C34.1,11.3 33.2,10.7 31.9,9.9 C28,7.6 25.8,4.9 25.8,0.1 C25.8,-6 30.4,-10.9 36.2,-12.3 L42,20.5 C40,20.9 38.2,21.2 36.2,21.2 M33.2,-82.2 C34.2,-86.2 38.7,-96.7 43.9,-96.7 C45.4,-96.7 47.9,-91.9 47.9,-84.9 C47.9,-74.6 40.1,-66.8 33.2,-59.9 C32.6,-63.9 32.1,-67.9 32.1,-72 C32.1,-75.8 32.5,-79.1 33.2,-82.2 M46.2,19.3 C44.1,7.4 41.4,-8.5 40.7,-12.9 C50.8,-12.9 55.1,-5.9 56,-1.1 C56.1,-0.3 56.3,0.8 56.3,2 C56.3,9.2 53.3,16.4 46.2,19.3 M32.3,87.7 C30.1,87.7 28.6,86.3 28.6,84.2 C28.6,82.2 29.5,80.6 31.2,79.6 C31.6,79.8 31.7,79.8 32,80 C33.2,80.6 33.2,80.6 33.4,80.8 C35.3,81.9 36.1,82.9 36.1,84.3 C36.1,86.2 34.5,87.7 32.3,87.7 M36.1,75.7 C34.6,74.9 34.2,74.7 33.9,74.5 L33.7,74.4 C32.2,73.5 31.7,72.8 31.7,71.6 C31.7,69.8 33.1,68.5 35.1,68.5 C37,68.5 38.2,69.7 38.2,71.8 C38.2,73.4 37.6,74.5 36.1,75.7 M64,-0.2 C64,-15.3 53.3,-25.5 38.7,-25.5 C37.7,-31.5 36.8,-37.4 35.9,-43 C46.4,-54.1 53.8,-66.7 53.8,-82.5 C53.8,-91.6 51,-99 49.3,-102.6 C46.9,-107.7 44,-111.2 42.3,-111.2 C41.6,-111.2 38.4,-110 35.2,-106.1 C28.7,-98.5 26.9,-85.8 26.9,-77.4 C26.9,-72 27.4,-67.1 29.1,-55.8 C29,-55.8 23.8,-50.5 21.7,-48.7 C12.6,-40.3 0,-28.1 0,-8.2 C0,10.6 16.3,25.3 34.9,25.3 C37.8,25.3 40.5,25 42.9,24.6 C44.7,34.1 45.9,41.2 45.9,46.5 C45.9,56.9 40.5,62.4 30.4,62.4 C28,62.4 25.9,61.9 25.7,61.8 C25.6,61.8 25.4,61.7 25.4,61.6 C25.4,61.4 25.6,61.3 25.9,61.2 C30.6,60.5 35.3,56.4 35.3,50.1 C35.3,44.7 31.2,39 23.7,39 C16.7,39 12.3,44.7 12.3,51.3 C12.3,57.9 17.3,66.6 30.8,66.6 C43.7,66.6 50,59.3 50,46.5 C50,42.6 49.4,38.1 48.4,32.4 C48.1,30.4 47.6,27.3 46.9,23.5 C56.7,20.2 64,10.1 64,-0.2 M42.3,71.7 C42.3,68 38.9,66.4 35.6,66.4 C31.4,66.4 27.3,69 27.3,73.5 C27.3,75.4 28,76.8 29.4,78.2 C26.8,79.2 24.2,81.2 24.2,84.3 C24.2,87.6 27.2,89.8 31.6,89.8 C37,89.8 40.8,86.8 40.8,82.5 C40.8,80.2 39.8,78.3 38,77 C40.9,75.7 42.3,74.1 42.3,71.7"/>
<path class="KeySig" transform="matrix(1.06583,0,0,1.06583,325.559,973.351)" d="M13.2,-4 C13.2,3.9 9.1,8.1 3.3,12.7 L3.6,-6.8 C3.8,-7.7 5.3,-10.6 9.3,-10.6 C12.9,-10.6 13.2,-7.2 13.2,-5.1 L13.2,-4 M12,-15.5 C7,-15.5 4.1,-12.4 3.6,-11.8 L4,-43.9 C4,-44.7 3.4,-45.3 2.6,-45.3 L1.4,-45.3 C0.6,-45.3 0,-44.7 0,-43.9 L0.5,16.2 C0.5,17 1.1,17.6 1.9,17.6 C2.1,17.6 2.5,17.5 2.7,17.4 C11.3,13.1 20.3,4.9 20.3,-5.4 C20.3,-10.6 17.9,-15.5 12,-15.5"/>
<path class="KeySig" transform="matrix(1.06583,0,0,1.06583,325.559,326.9)" d="M13.2,-4 C13.2,3.9 9.1,8.1 3.3,12.7 L3.6,-6.8 C3.8,-7.7 5.3,-10.6 9.3,-10.6 C12.9,-10.6 13.2,-7.2 13.2,-5.1 L13.2,-4 M12,-15.5 C7,-15.5 4.1,-12.4 3.6,-11.8 L4,-43.9 C4,-44.7 3.4,-45.3 2.6,-45.3 L1.4,-45.3 C0.6,-45.3 0,-44.7 0,-43.9 L0.5,16.2 C0.5,17 1.1,17.6 1.9,17.6 C2.1,17.6 2.5,17.5 2.7,17.4 C11.3,13.1 20.3,4.9 20.3,-5.4 C20.3,-10.6 17.9,-15.5 12,-15.5"/>
<path class="KeySig" transform="matrix(1.06583,0,0,1.06583,325.559,1253.13)" d="M13.2,-4 C13.2,3.9 9.1,8.1 3.3,12.7 L3.6,-6.8 C3.8,-7.7 5.3,-10.6 9.3,-10.6 C12.9,-10.6 13.2,-7.2 13.2,-5.1 L13.2,-4 M12,-15.5 C7,-15.5 4.1,-12.4 3.6,-11.8 L4,-43.9 C4,-44.7 3.4,-45.3 2.6,-45.3 L1.4,-45.3 C0.6,-45.3 0,-44.7 0,-43.9 L0.5,16.2 C0.5,17 1.1,17.6 1.9,17.6 C2.1,17.6 2.5,17.5 2.7,17.4 C11.3,13.1 20.3,4.9 20.3,-5.4 C20.3,-10.6 17.9,-15.5 12,-15.5"/>
<path class="KeySig" transform="matrix(1.06583,0,0,1.06583,325.559,606.68)" d="M13.2,-4 C13.2,3.9 9.1,8.1 3.3,12.7 L3.6,-6.8 C3.8,-7.7 5.3,-10.6 9.3,-10.6 C12.9,-10.6 13.2,-7.2 13.2,-5.1 L13.2,-4 M12,-15.5 C7,-15.5 4.1,-12.4 3.6,-11.8 L4,-43.9 C4,-44.7 3.4,-45.3 2.6,-45.3 L1.4,-45.3 C0.6,-45.3 0,-44.7 0,-43.9 L0.5,16.2 C0.5,17 1.1,17.6 1.9,17.6 C2.1,17.6 2.5,17.5 2.7,17.4 C11.3,13.1 20.3,4.9 20.3,-5.4 C20.3,-10.6 17.9,-15.5 12,-15.5"/>
<path class="Rest" transform="matrix(1.06583,0,0,1.06583,524.211,326.9)" d="M26.7,-20.3 C26.6,-20.3 26.4,-20.4 26.3,-20.4 C25.7,-20.4 25.2,-20.1 25,-19.6 C24.6,-19 21.5,-13.1 17,-9.8 C15.7,-8.8 14.1,-8.1 12.5,-7.8 C13.6,-9.1 14.3,-10.7 14.3,-12.6 C14.3,-16.5 11.1,-19.7 7.2,-19.7 C3.2,-19.7 0,-16.5 0,-12.6 C0,-7.2 5.3,-4.7 10,-4.7 C15.3,-4.7 18.8,-7.2 22.2,-10.9 L10.8,24.7 L13.5,25.5 L27.5,-18.6 C27.6,-18.7 27.6,-18.9 27.6,-19.1 C27.6,-19.6 27.3,-20 26.7,-20.3"/>
<path class="Rest" transform="matrix(1.06583,0,0,1.06583,1176.8,326.9)" d="M26.7,-20.3 C26.6,-20.3 26.4,-20.4 26.3,-20.4 C25.7,-20.4 25.2,-20.1 25,-19.6 C24.6,-19 21.5,-13.1 17,-9.8 C15.7,-8.8 14.1,-8.1 12.5,-7.8 C13.6,-9.1 14.3,-10.7 14.3,-12.6 C14.3,-16.5 11.1,-19.7 7.2,-19.7 C3.2,-19.7 0,-16.5 0,-12.6 C0,-7.2 5.3,-4.7 10,-4.7 C15.3,-4.7 18.8,-7.2 22.2,-10.9 L10.8,24.7 L13.5,25.5 L27.5,-18.6 C27.6,-18.7 27.6,-18.9 27.6,-19.1 C27.6,-19.6 27.3,-20 26.7,-20.3"/>
<path class="Rest" transform="matrix(1.06583,0,0,1.06583,1358.18,973.351)" d="M26.7,-20.3 C26.6,-20.3 26.4,-20.4 26.3,-20.4 C25.7,-20.4 25.2,-20.1 25,-19.6 C24.6,-19 21.5,-13.1 17,-9.8 C15.7,-8.8 14.1,-8.1 12.5,-7.8 C13.6,-9.1 14.3,-10.7 14.3,-12.6 C14.3,-16.5 11.1,-19.7 7.2,-19.7 C3.2,-19.7 0,-16.5 0,-12.6 C0,-7.2 5.3,-4.7 10,-4.7 C15.3,-4.7 18.8,-7.2 22.2,-10.9 L10.8,24.7 L13.5,25.5 L27.5,-18.6 C27.6,-18.7 27.6,-18.9 27.6,-19.1 C27.6,-19.6 27.3,-20 26.7,-20.3"/>
<path class="Rest" transform="matrix(1.06583,0,0,1.06583,2042.56,326.9)" d="M26.7,-20.3 C26.6,-20.3 26.4,-20.4 26.3,-20.4 C25.7,-20.4 25.2,-20.1 25,-19.6 C24.6,-19 21.5,-13.1 17,-9.8 C15.7,-8.8 14.1,-8.1 12.5,-7.8 C13.6,-9.1 14.3,-10.7 14.3,-12.6 C14.3,-16.5 11.1,-19.7 7.2,-19.7 C3.2,-19.7 0,-16.5 0,-12.6 C0,-7.2 5.3,-4.7 10,-4.7 C15.3,-4.7 18.8,-7.2 22.2,-10.9 L10.8,24.7 L13.5,25.5 L27.5,-18.6 C27.6,-18.7 27.6,-18.9 27.6,-19.1 C27.6,-19.6 27.3,-20 26.7,-20.3"/>
<path class="Rest" transform="matrix(1.06583,0,0,1.06583,515.493,973.351)" d="M26.7,-20.3 C26.6,-20.3 26.4,-20.4 26.3,-20.4 C25.7,-20.4 25.2,-20.1 25,-19.6 C24.6,-19 21.5,-13.1 17,-9.8 C15.7,-8.8 14.1,-8.1 12.5,-7.8 C13.6,-9.1 14.3,-10.7 14.3,-12.6 C14.3,-16.5 11.1,-19.7 7.2,-19.7 C3.2,-19.7 0,-16.5 0,-12.6 C0,-7.2 5.3,-4.7 10,-4.7 C15.3,-4.7 18.8,-7.2 22.2,-10.9 L10.8,24.7 L13.5,25.5 L27.5,-18.6 C27.6,-18.7 27.6,-18.9 27.6,-19.1 C27.6,-19.6 27.3,-20 26.7,-20.3"/>
<path class="Rest" transform="matrix(1.06583,0,0,1.06583,944.946,606.68)" d="M26.7,-20.3 C26.6,-20.3 26.4,-20.4 26.3,-20.4 C25.7,-20.4 25.2,-20.1 25,-19.6 C24.6,-19 21.5,-13.1 17,-9.8 C15.7,-8.8 14.1,-8.1 12.5,-7.8 C13.6,-9.1 14.3,-10.7 14.3,-12.6 C14.3,-16.5 11.1,-19.7 7.2,-19.7 C3.2,-19.7 0,-16.5 0,-12.6 C0,-7.2 5.3,-4.7 10,-4.7 C15.3,-4.7 18.8,-7.2 22.2,-10.9 L10.8,24.7 L13.5,25.5 L27.5,-18.6 C27.6,-18.7 27.6,-18.9 27.6,-19.1 C27.6,-19.6 27.3,-20 26.7,-20.3"/>
<path class="Rest" transform="matrix(1.06583,0,0,1.06583,2676.46,606.68)" d="M26.7,-20.3 C26.6,-20.3 26.4,-20.4 26.3,-20.4 C25.7,-20.4 25.2,-20.1 25,-19.6 C24.6,-19 21.5,-13.1 17,-9.8 C15.7,-8.8 14.1,-8.1 12.5,-7.8 C13.6,-9.1 14.3,-10.7 14.3,-12.6 C14.3,-16.5 11.1,-19.7 7.2,-19.7 C3.2,-19.7 0,-16.5 0,-12.6 C0,-7.2 5.3,-4.7 10,-4.7 C15.3,-4.7 18.8,-7.2 22.2,-10.9 L10.8,24.7 L13.5,25.5 L27.5,-18.6 C27.6,-18.7 27.6,-18.9 27.6,-19.1 C27.6,-19.6 27.3,-20 26.7,-20.3"/>
<path class="Rest" transform="matrix(1.06583,0,0,1.06583,524.211,606.68)" d="M26.7,-20.3 C26.6,-20.3 26.4,-20.4 26.3,-20.4 C25.7,-20.4 25.2,-20.1 25,-19.6 C24.6,-19 21.5,-13.1 17,-9.8 C15.7,-8.8 14.1,-8.1 12.5,-7.8 C13.6,-9.1 14.3,-10.7 14.3,-12.6 C14.3,-16.5 11.1,-19.7 7.2,-19.7 C3.2,-19.7 0,-16.5 0,-12.6 C0,-7.2 5.3,-4.7 10,-4.7 C15.3,-4.7 18.8,-7.2 22.2,-10.9 L10.8,24.7 L13.5,25.5 L27.5,-18.6 C27.6,-18.7 27.6,-18.9 27.6,-19.1 C27.6,-19.6 27.3,-20 26.7,-20.3"/>
<path class="Rest" transform="matrix(1.06583,0,0,1.06583,1810.7,606.68)" d="M26.7,-20.3 C26.6,-20.3 26.4,-20.4 26.3,-20.4 C25.7,-20.4 25.2,-20.1 25,-19.6 C24.6,-19 21.5,-13.1 17,-9.8 C15.7,-8.8 14.1,-8.1 12.5,-7.8 C13.6,-9.1 14.3,-10.7 14.3,-12.6 C14.3,-16.5 11.1,-19.7 7.2,-19.7 C3.2,-19.7 0,-16.5 0,-12.6 C0,-7.2 5.3,-4.7 10,-4.7 C15.3,-4.7 18.8,-7.2 22.2,-10.9 L10.8,24.7 L13.5,25.5 L27.5,-18.6 C27.6,-18.7 27.6,-18.9 27.6,-19.1 C27.6,-19.6 27.3,-20 26.7,-20.3"/>
<path class="Beam" fill-rule="evenodd" d="M1511.61,1173.18 L1627.52,1179.84 L1627.52,1193.19 L1511.61,1186.53 L1511.61,1173.18 "/>
<path class="Lyrics" d="M2313.66,1361.66 L2304.28,1362.24 L2304.28,1364.52 L2306.45,1364.52 C2308.47,1364.58 2308.73,1364.89 2308.73,1367.17 L2308.73,1382.33 C2308.68,1383.13 2308.63,1383.44 2308.42,1383.71 C2308.04,1384.19 2306.98,1384.4 2304.71,1384.45 L2304.49,1384.45 L2304.49,1386.36 L2318.64,1386.36 L2318.64,1384.45 L2317.69,1384.45 C2314.14,1384.35 2313.66,1384.08 2313.66,1382.17 L2313.66,1379.31 C2313.72,1370.41 2316.9,1363.62 2321.03,1363.41 C2320.29,1364.26 2320.08,1364.79 2320.08,1365.8 C2320.08,1367.49 2321.29,1368.71 2322.99,1368.71 C2324.95,1368.71 2326.22,1367.28 2326.22,1365.16 C2326.22,1362.56 2324.42,1360.87 2321.61,1360.87 C2318.27,1360.87 2315.41,1363.52 2313.66,1368.23 L2313.66,1361.66 M2351.03,1374.43 C2351.09,1366.48 2346.58,1360.87 2340.11,1360.87 C2333.33,1360.87 2328.24,1366.75 2328.24,1374.7 C2328.24,1382.17 2333.07,1387.15 2340.22,1387.15 C2345.31,1387.15 2348.86,1384.66 2351.03,1379.63 L2349.18,1378.62 C2347,1382.7 2344.78,1384.29 2341.23,1384.29 C2338.52,1384.29 2336.56,1383.18 2335.19,1380.79 C2334.23,1379.2 2333.81,1377.35 2333.86,1374.43 L2351.03,1374.43 M2333.91,1372.16 C2333.91,1368.45 2335.61,1363.15 2340.06,1363.15 C2343.24,1363.15 2345.36,1365.95 2345.36,1370.25 C2345.36,1371.73 2344.88,1372.16 2343.19,1372.16 L2333.91,1372.16 M2360.74,1376.24 C2360.79,1366.86 2361,1364.26 2362.01,1359.28 C2362.75,1355.62 2362.96,1353.98 2362.96,1352.39 C2362.96,1348.99 2361.9,1347.35 2359.73,1347.35 C2357.56,1347.35 2356.44,1349.05 2356.44,1352.33 C2356.44,1353.92 2356.65,1355.57 2357.4,1359.28 C2358.4,1364.26 2358.56,1366.75 2358.67,1376.24 L2360.74,1376.24 M2359.73,1380.48 C2357.87,1380.48 2356.39,1381.96 2356.39,1383.76 C2356.39,1385.62 2357.87,1387.1 2359.68,1387.1 C2361.53,1387.1 2363.01,1385.62 2363.01,1383.76 C2363.01,1381.96 2361.53,1380.48 2359.73,1380.48"/>
<polyline class="TextLineSegment" fill="none" stroke="#000000" stroke-width="3.75" stroke-linejoin="miter" stroke-miterlimit="2" points="2466.17,253.492 2466.17,226.846 2649.81,226.846 2649.81,253.492" />
<polyline class="TextLineSegment" fill="none" stroke="#000000" stroke-width="3.75" stroke-linejoin="miter" stroke-miterlimit="2" points="1872.66,887.569 1872.66,860.923 2159.72,860.923 2159.72,887.569" />
<polyline class="TextLineSegment" fill="none" stroke="#000000" stroke-width="3.75" stroke-linejoin="miter" stroke-miterlimit="2" points="626.972,887.569 626.972,860.923 908.084,860.923 908.084,887.569" />
<polyline class="TextLineSegment" fill="none" stroke="#000000" stroke-width="3.75" stroke-linejoin="miter" stroke-miterlimit="2" points="2676.46,253.492 2676.46,226.846 2753.14,226.846" />
<polyline class="TextLineSegment" fill="none" stroke="#000000" stroke-width="3.75" stroke-linejoin="miter" stroke-miterlimit="2" points="2154.26,241.118 2154.26,214.472 2439.53,214.472 2439.53,241.118" />
<polyline class="TextLineSegment" fill="none" stroke="#000000" stroke-width="3.75" stroke-linejoin="miter" stroke-miterlimit="2" points="1810.7,253.492 1810.7,226.846 2015.91,226.846 2015.91,253.492" />
<polyline class="TextLineSegment" fill="none" stroke="#000000" stroke-width="3.75" stroke-linejoin="miter" stroke-miterlimit="2" points="373.838,873.297 488.847,873.297 488.847,899.943" />
<polyline class="TextLineSegment" fill="none" stroke="#000000" stroke-width="3.75" stroke-linejoin="miter" stroke-miterlimit="2" points="1600.41,253.492 1600.41,226.846 1784.06,226.846 1784.06,253.492" />
<polyline class="TextLineSegment" fill="none" stroke="#000000" stroke-width="3.75" stroke-linejoin="miter" stroke-miterlimit="2" points="1147.89,899.943 1147.89,873.297 1331.54,873.297 1331.54,899.943" />
<polyline class="TextLineSegment" fill="none" stroke="#000000" stroke-width="3.75" stroke-linejoin="miter" stroke-miterlimit="2" points="1398.91,253.492 1398.91,226.846 1573.77,226.846 1573.77,253.492" />
<polyline class="TextLineSegment" fill="none" stroke="#000000" stroke-width="3.75" stroke-linejoin="miter" stroke-miterlimit="2" points="1479.63,899.943 1479.63,873.297 1754.27,873.297 1754.27,899.943" />
<polyline class="TextLineSegment" fill="none" stroke="#000000" stroke-width="3.75" stroke-linejoin="miter" stroke-miterlimit="2" points="944.946,253.492 944.946,226.846 1150.16,226.846 1150.16,253.492" />
<polyline class="TextLineSegment" fill="none" stroke="#000000" stroke-width="3.75" stroke-linejoin="miter" stroke-miterlimit="2" points="635.917,253.492 635.917,226.846 918.301,226.846 918.301,253.492" />
<polyline class="TextLineSegment" fill="none" stroke="#000000" stroke-width="3.75" stroke-linejoin="miter" stroke-miterlimit="2" points="934.729,874.246 934.729,847.6 1121.25,847.6 1121.25,874.246" />
<polyline class="TextLineSegment" fill="none" stroke="#000000" stroke-width="3.75" stroke-linejoin="miter" stroke-miterlimit="2" points="2186.37,899.943 2186.37,873.297 2284.07,873.297 2284.07,899.943" />
<polyline class="TextLineSegment" fill="none" stroke="#000000" stroke-width="3.75" stroke-linejoin="miter" stroke-miterlimit="2" points="934.729,1179.72 934.729,1153.08 1121.25,1153.08 1121.25,1179.72" />
<polyline class="TextLineSegment" fill="none" stroke="#000000" stroke-width="3.75" stroke-linejoin="miter" stroke-miterlimit="2" points="1592.88,1157.87 1592.88,1131.23 1846.01,1131.23 1846.01,1157.87" />
<polyline class="TextLineSegment" fill="none" stroke="#000000" stroke-width="3.75" stroke-linejoin="miter" stroke-miterlimit="2" points="1176.8,533.271 1176.8,506.626 1372.27,506.626 1372.27,533.271" />
<polyline class="TextLineSegment" fill="none" stroke="#000000" stroke-width="3.75" stroke-linejoin="miter" stroke-miterlimit="2" points="1358.18,1156.21 1358.18,1129.56 1566.23,1129.56 1566.23,1156.21" />
<polyline class="TextLineSegment" fill="none" stroke="#000000" stroke-width="3.75" stroke-linejoin="miter" stroke-miterlimit="2" points="1147.89,1179.72 1147.89,1153.08 1331.54,1153.08 1331.54,1179.72" />
<polyline class="TextLineSegment" fill="none" stroke="#000000" stroke-width="3.75" stroke-linejoin="miter" stroke-miterlimit="2" points="1398.91,533.271 1398.91,506.626 1573.77,506.626 1573.77,533.271" />
<polyline class="TextLineSegment" fill="none" stroke="#000000" stroke-width="3.75" stroke-linejoin="miter" stroke-miterlimit="2" points="1600.41,533.271 1600.41,506.626 1784.06,506.626 1784.06,533.271" />
<polyline class="TextLineSegment" fill="none" stroke="#000000" stroke-width="3.75" stroke-linejoin="miter" stroke-miterlimit="2" points="413.806,1179.72 413.806,1153.08 708.241,1153.08 708.241,1179.72" />
<polyline class="TextLineSegment" fill="none" stroke="#000000" stroke-width="3.75" stroke-linejoin="miter" stroke-miterlimit="2" points="734.887,1179.72 734.887,1153.08 908.084,1153.08 908.084,1179.72" />
<polyline class="LyricsLineSegment" fill="none" stroke="#000000" stroke-width="2.66" stroke-linejoin="bevel" points="564.12,727.559 580.107,727.559" />
<polyline class="LyricsLineSegment" fill="none" stroke="#000000" stroke-width="2.66" stroke-linejoin="bevel" points="960.671,727.559 976.658,727.559" />
<polyline class="LyricsLineSegment" fill="none" stroke="#000000" stroke-width="2.66" stroke-linejoin="bevel" points="1357.22,727.559 1373.21,727.559" />
<polyline class="LyricsLineSegment" fill="none" stroke="#000000" stroke-width="2.66" stroke-linejoin="bevel" points="1753.77,727.559 1769.76,727.559" />
<polyline class="LyricsLineSegment" fill="none" stroke="#000000" stroke-width="2.66" stroke-linejoin="bevel" points="2150.32,727.559 2166.31,727.559" />
<polyline class="LyricsLineSegment" fill="none" stroke="#000000" stroke-width="2.66" stroke-linejoin="bevel" points="2546.88,727.559 2562.86,727.559" />
<polyline class="LyricsLineSegment" fill="none" stroke="#000000" stroke-width="2.66" stroke-linejoin="bevel" points="558.755,1374.01 574.742,1374.01" />
<polyline class="LyricsLineSegment" fill="none" stroke="#000000" stroke-width="2.66" stroke-linejoin="bevel" points="944.577,1374.01 960.564,1374.01" />
<polyline class="LyricsLineSegment" fill="none" stroke="#000000" stroke-width="2.66" stroke-linejoin="bevel" points="1330.4,1374.01 1346.39,1374.01" />
<polyline class="LyricsLineSegment" fill="none" stroke="#000000" stroke-width="2.66" stroke-linejoin="bevel" points="1716.22,1374.01 1732.21,1374.01" />
<polyline class="LyricsLineSegment" fill="none" stroke="#000000" stroke-width="2.66" stroke-linejoin="bevel" points="2102.04,1374.01 2118.03,1374.01" />
<path class="NoteDot" transform="matrix(1.06583,0,0,1.06583,1707.44,1293.1)" d="M0,0 C0,2.8 2.2,5 5,5 C7.8,5 10,2.8 10,0 C10,-2.8 7.8,-5 5,-5 C2.2,-5 0,-2.8 0,0"/>
<path class="NoteDot" transform="matrix(1.06583,0,0,1.06583,683.863,593.357)" d="M0,0 C0,2.8 2.2,5 5,5 C7.8,5 10,2.8 10,0 C10,-2.8 7.8,-5 5,-5 C2.2,-5 0,-2.8 0,0"/>
<path class="NoteDot" transform="matrix(1.06583,0,0,1.06583,1980.1,620.003)" d="M0,0 C0,2.8 2.2,5 5,5 C7.8,5 10,2.8 10,0 C10,-2.8 7.8,-5 5,-5 C2.2,-5 0,-2.8 0,0"/>
<path class="NoteDot" transform="matrix(1.06583,0,0,1.06583,2202.21,646.649)" d="M0,0 C0,2.8 2.2,5 5,5 C7.8,5 10,2.8 10,0 C10,-2.8 7.8,-5 5,-5 C2.2,-5 0,-2.8 0,0"/>
<path class="NoteDot" transform="matrix(1.06583,0,0,1.06583,2386.22,593.357)" d="M0,0 C0,2.8 2.2,5 5,5 C7.8,5 10,2.8 10,0 C10,-2.8 7.8,-5 5,-5 C2.2,-5 0,-2.8 0,0"/>
<polyline class="Bracket" fill="none" stroke="#000000" stroke-width="2.93" stroke-linejoin="bevel" points="173.829,920.06 173.829,1306.42" />
<polyline class="Bracket" fill="none" stroke="#000000" stroke-width="2.93" stroke-linejoin="bevel" points="172.363,920.06 188.617,920.06" />
<polyline class="Bracket" fill="none" stroke="#000000" stroke-width="2.93" stroke-linejoin="bevel" points="172.363,1306.42 188.617,1306.42" />
<polyline class="Bracket" fill="none" stroke="#000000" stroke-width="11.99" stroke-linejoin="bevel" points="194.613,900.742 194.613,1325.74" />
<path class="Bracket" transform="matrix(1.06583,0,0,1.06583,188.617,906.737)" d="M48.4,-27.7 C48.2,-27.8 47.9,-27.9 47.7,-27.9 C47.3,-27.9 46.8,-27.8 46.6,-27.4 C46.4,-27.1 36.4,-11.7 17.3,-11.7 L1.4,-11.7 C0.6,-11.7 0,-11.2 0,-10.4 L0,0 L12.2,0 C43,0 48.9,-25.7 49,-26 C49,-26.1 49.1,-26.3 49.1,-26.5 C49.1,-27 48.8,-27.4 48.4,-27.7"/>
<path class="Bracket" transform="matrix(1.06583,0,0,1.06583,188.617,1319.75)" d="M48.4,27.7 C48.8,27.4 49.1,27 49.1,26.5 C49.1,26.3 49,26.1 49,26 C48.9,25.7 43,0 12.2,0 L0,0 L0,10.4 C0,11.2 0.6,11.7 1.4,11.7 L17.3,11.7 C36.4,11.7 46.4,27.1 46.6,27.4 C46.8,27.8 47.3,27.9 47.7,27.9 C47.9,27.9 48.2,27.8 48.4,27.7"/>
<polyline class="Bracket" fill="none" stroke="#000000" stroke-width="11.99" stroke-linejoin="bevel" points="194.613,254.291 194.613,679.289" />
<path class="Bracket" transform="matrix(1.06583,0,0,1.06583,188.617,260.286)" d="M48.4,-27.7 C48.2,-27.8 47.9,-27.9 47.7,-27.9 C47.3,-27.9 46.8,-27.8 46.6,-27.4 C46.4,-27.1 36.4,-11.7 17.3,-11.7 L1.4,-11.7 C0.6,-11.7 0,-11.2 0,-10.4 L0,0 L12.2,0 C43,0 48.9,-25.7 49,-26 C49,-26.1 49.1,-26.3 49.1,-26.5 C49.1,-27 48.8,-27.4 48.4,-27.7"/>
<path class="Bracket" transform="matrix(1.06583,0,0,1.06583,188.617,673.294)" d="M48.4,27.7 C48.8,27.4 49.1,27 49.1,26.5 C49.1,26.3 49,26.1 49,26 C48.9,25.7 43,0 12.2,0 L0,0 L0,10.4 C0,11.2 0.6,11.7 1.4,11.7 L17.3,11.7 C36.4,11.7 46.4,27.1 46.6,27.4 C46.8,27.8 47.3,27.9 47.7,27.9 C47.9,27.9 48.2,27.8 48.4,27.7"/>
<polyline class="Bracket" fill="none" stroke="#000000" stroke-width="2.93" stroke-linejoin="bevel" points="173.829,273.609 173.829,659.971" />
<polyline class="Bracket" fill="none" stroke="#000000" stroke-width="2.93" stroke-linejoin="bevel" points="172.363,273.609 188.617,273.609" />
<polyline class="Bracket" fill="none" stroke="#000000" stroke-width="2.93" stroke-linejoin="bevel" points="172.363,659.971 188.617,659.971" />
</svg>
