<?xml version="1.0" encoding="UTF-8" standalone="no"?>
<svg width="210.058mm" height="296.926mm" viewBox="0 0 2977.2 4208.4"
 xmlns="http://www.w3.org/2000/svg" xmlns:xlink="http://www.w3.org/1999/xlink" version="1.2" baseProfile="full">
<title>CB090_5539 (2)</title>
<desc>Generated by MuseScore Studio 4.6.5</desc>
<polyline class="StaffLines" fill="none" stroke="#000000" stroke-width="2.88" stroke-linejoin="bevel" points="212.598,281.96 1923.56,281.96" />
<polyline class="StaffLines" fill="none" stroke="#000000" stroke-width="2.88" stroke-linejoin="bevel" points="212.598,308.181 1923.56,308.181" />
<polyline class="StaffLines" fill="none" stroke="#000000" stroke-width="2.88" stroke-linejoin="bevel" points="212.598,334.401 1923.56,334.401" />
<polyline class="StaffLines" fill="none" stroke="#000000" stroke-width="2.88" stroke-linejoin="bevel" points="212.598,360.622 1923.56,360.622" />
<polyline class="StaffLines" fill="none" stroke="#000000" stroke-width="2.88" stroke-linejoin="bevel" points="212.598,386.842 1923.56,386.842" />
<polyline class="StaffLines" fill="none" stroke="#000000" stroke-width="2.88" stroke-linejoin="bevel" points="212.598,557.275 1923.56,557.275" />
<polyline class="StaffLines" fill="none" stroke="#000000" stroke-width="2.88" stroke-linejoin="bevel" points="212.598,583.496 1923.56,583.496" />
<polyline class="StaffLines" fill="none" stroke="#000000" stroke-width="2.88" stroke-linejoin="bevel" points="212.598,609.716 1923.56,609.716" />
<polyline class="StaffLines" fill="none" stroke="#000000" stroke-width="2.88" stroke-linejoin="bevel" points="212.598,635.937 1923.56,635.937" />
<polyline class="StaffLines" fill="none" stroke="#000000" stroke-width="2.88" stroke-linejoin="bevel" points="212.598,662.157 1923.56,662.157" />
<polyline class="StaffLines" fill="none" stroke="#000000" stroke-width="2.88" stroke-linejoin="bevel" points="212.598,885.031 2764.6,885.031" />
<polyline class="StaffLines" fill="none" stroke="#000000" stroke-width="2.88" stroke-linejoin="bevel" points="212.598,911.252 2764.6,911.252" />
<polyline class="StaffLines" fill="none" stroke="#000000" stroke-width="2.88" stroke-linejoin="bevel" points="212.598,937.472 2764.6,937.472" />
<polyline class="StaffLines" fill="none" stroke="#000000" stroke-width="2.88" stroke-linejoin="bevel" points="212.598,963.693 2764.6,963.693" />
<polyline class="StaffLines" fill="none" stroke="#000000" stroke-width="2.88" stroke-linejoin="bevel" points="212.598,989.913 2764.6,989.913" />
<polyline class="StaffLines" fill="none" stroke="#000000" stroke-width="2.88" stroke-linejoin="bevel" points="212.598,1160.35 2764.6,1160.35" />
<polyline class="StaffLines" fill="none" stroke="#000000" stroke-width="2.88" stroke-linejoin="bevel" points="212.598,1186.57 2764.6,1186.57" />
<polyline class="StaffLines" fill="none" stroke="#000000" stroke-width="2.88" stroke-linejoin="bevel" points="212.598,1212.79 2764.6,1212.79" />
<polyline class="StaffLines" fill="none" stroke="#000000" stroke-width="2.88" stroke-linejoin="bevel" points="212.598,1239.01 2764.6,1239.01" />
<polyline class="StaffLines" fill="none" stroke="#000000" stroke-width="2.88" stroke-linejoin="bevel" points="212.598,1265.23 2764.6,1265.23" />
<polyline class="BarLine" fill="none" stroke="#000000" stroke-width="4.72" stroke-linejoin="bevel" points="214.958,280.518 214.958,557.275" />
<polyline class="BarLine" fill="none" stroke="#000000" stroke-width="4.72" stroke-linejoin="bevel" points="1075.59,280.518 1075.59,388.284" />
<polyline class="BarLine" fill="none" stroke="#000000" stroke-width="4.72" stroke-linejoin="bevel" points="1075.65,883.589 1075.65,991.355" />
<polyline class="BarLine" fill="none" stroke="#000000" stroke-width="4.72" stroke-linejoin="bevel" points="2738.12,883.589 2738.12,991.355" />
<polyline class="BarLine" fill="none" stroke="#000000" stroke-width="14.42" stroke-linejoin="bevel" points="2757.39,883.589 2757.39,991.355" />
<polyline class="BarLine" fill="none" stroke="#000000" stroke-width="4.72" stroke-linejoin="bevel" points="214.958,883.589 214.958,1160.35" />
<polyline class="BarLine" fill="none" stroke="#000000" stroke-width="4.72" stroke-linejoin="bevel" points="1921.2,280.518 1921.2,388.284" />
<polyline class="BarLine" fill="none" stroke="#000000" stroke-width="4.72" stroke-linejoin="bevel" points="1075.59,555.833 1075.59,663.599" />
<polyline class="BarLine" fill="none" stroke="#000000" stroke-width="4.72" stroke-linejoin="bevel" points="1075.65,1158.9 1075.65,1266.67" />
<polyline class="BarLine" fill="none" stroke="#000000" stroke-width="4.72" stroke-linejoin="bevel" points="1921.2,555.833 1921.2,663.599" />
<polyline class="BarLine" fill="none" stroke="#000000" stroke-width="4.72" stroke-linejoin="bevel" points="2738.12,1158.9 2738.12,1266.67" />
<polyline class="BarLine" fill="none" stroke="#000000" stroke-width="14.42" stroke-linejoin="bevel" points="2757.39,1158.9 2757.39,1266.67" />
<polyline class="BarLine" fill="none" stroke="#000000" stroke-width="4.72" stroke-linejoin="bevel" points="214.958,555.833 214.958,663.599" />
<polyline class="BarLine" fill="none" stroke="#000000" stroke-width="4.72" stroke-linejoin="bevel" points="214.958,1158.9 214.958,1266.67" />
<path class="SlurSegment" stroke="#000000" stroke-width="1.31" stroke-linecap="round" stroke-linejoin="round" fill-rule="evenodd" d="M908.736,1202.3 C914.163,1181.84 938.893,1178.22 949.953,1196.27 C939.742,1184.02 915.012,1187.64 908.736,1202.3"/>
<path class="SlurSegment" stroke="#000000" stroke-width="1.31" stroke-linecap="round" stroke-linejoin="round" fill-rule="evenodd" d="M757.627,1180.54 C765.87,1161.18 790.6,1161.18 798.843,1180.54 C790.6,1167.02 765.87,1167.02 757.627,1180.54"/>
<path class="SlurSegment" stroke="#000000" stroke-width="1.31" stroke-linecap="round" stroke-linejoin="round" fill-rule="evenodd" d="M986.713,1202.3 C992.14,1181.84 1016.87,1178.22 1027.93,1196.27 C1017.72,1184.02 992.988,1187.64 986.713,1202.3"/>
<path class="SlurSegment" stroke="#000000" stroke-width="1.31" stroke-linecap="round" stroke-linejoin="round" fill-rule="evenodd" d="M835.938,1180.54 C844.181,1161.18 868.911,1161.18 877.155,1180.54 C868.911,1167.02 844.181,1167.02 835.938,1180.54"/>
<polyline class="LedgerLine" fill="none" stroke="#000000" stroke-width="4.20" stroke-linejoin="bevel" points="2196.58,1291.45 2247.95,1291.45" />
<polyline class="Stem" fill="none" stroke="#000000" stroke-width="2.62" stroke-linejoin="bevel" points="1364.99,338.806 1364.99,413.063" />
<polyline class="Stem" fill="none" stroke="#000000" stroke-width="2.62" stroke-linejoin="bevel" points="2516.67,972.608 2516.67,885.241" />
<polyline class="Stem" fill="none" stroke="#000000" stroke-width="2.62" stroke-linejoin="bevel" points="1536.8,356.426 1536.8,268.85" />
<polyline class="Stem" fill="none" stroke="#000000" stroke-width="2.62" stroke-linejoin="bevel" points="1366.98,941.877 1366.98,1016.13" />
<polyline class="Stem" fill="none" stroke="#000000" stroke-width="2.62" stroke-linejoin="bevel" points="1677.62,972.608 1677.62,885.241" />
<polyline class="Stem" fill="none" stroke="#000000" stroke-width="2.62" stroke-linejoin="bevel" points="1436.39,954.987 1436.39,1022.57" />
<polyline class="Stem" fill="none" stroke="#000000" stroke-width="2.62" stroke-linejoin="bevel" points="2168.09,946.387 2168.09,865.366" />
<polyline class="Stem" fill="none" stroke="#000000" stroke-width="2.62" stroke-linejoin="bevel" points="1926.86,954.987 1926.86,1022.63" />
<polyline class="Stem" fill="none" stroke="#000000" stroke-width="2.62" stroke-linejoin="bevel" points="1295.57,325.696 1295.57,406.629" />
<polyline class="Stem" fill="none" stroke="#000000" stroke-width="2.62" stroke-linejoin="bevel" points="1143.56,959.497 1143.56,871.853" />
<polyline class="Stem" fill="none" stroke="#000000" stroke-width="2.62" stroke-linejoin="bevel" points="1675.62,369.537 1675.62,282.17" />
<polyline class="Stem" fill="none" stroke="#000000" stroke-width="2.62" stroke-linejoin="bevel" points="1874.42,972.608 1874.42,885.241" />
<polyline class="Stem" fill="none" stroke="#000000" stroke-width="2.62" stroke-linejoin="bevel" points="1996.78,928.767 1996.78,1019.41" />
<polyline class="Stem" fill="none" stroke="#000000" stroke-width="2.62" stroke-linejoin="bevel" points="1538.79,959.497 1538.79,871.921" />
<polyline class="Stem" fill="none" stroke="#000000" stroke-width="2.62" stroke-linejoin="bevel" points="2587.61,959.497 2587.61,871.921" />
<polyline class="Stem" fill="none" stroke="#000000" stroke-width="2.62" stroke-linejoin="bevel" points="1265.86,330.206 1265.86,262.364" />
<polyline class="Stem" fill="none" stroke="#000000" stroke-width="2.62" stroke-linejoin="bevel" points="1204.68,343.316 1204.68,265.572" />
<polyline class="Stem" fill="none" stroke="#000000" stroke-width="2.62" stroke-linejoin="bevel" points="1297.57,928.767 1297.57,1009.7" />
<polyline class="Stem" fill="none" stroke="#000000" stroke-width="2.62" stroke-linejoin="bevel" points="1205.38,946.387 1205.38,868.643" />
<polyline class="Stem" fill="none" stroke="#000000" stroke-width="2.62" stroke-linejoin="bevel" points="1746.57,356.426 1746.57,268.85" />
<polyline class="Stem" fill="none" stroke="#000000" stroke-width="2.62" stroke-linejoin="bevel" points="1143.5,356.426 1143.5,268.781" />
<polyline class="Stem" fill="none" stroke="#000000" stroke-width="2.62" stroke-linejoin="bevel" points="2377.85,959.497 2377.85,871.921" />
<polyline class="Stem" fill="none" stroke="#000000" stroke-width="2.62" stroke-linejoin="bevel" points="2066.7,941.877 2066.7,1016.19" />
<polyline class="Stem" fill="none" stroke="#000000" stroke-width="2.62" stroke-linejoin="bevel" points="1267.21,933.277 1267.21,865.434" />
<polyline class="Stem" fill="none" stroke="#000000" stroke-width="2.62" stroke-linejoin="bevel" points="1748.56,946.387 1748.56,865.366" />
<polyline class="Stem" fill="none" stroke="#000000" stroke-width="2.62" stroke-linejoin="bevel" points="1434.4,351.917 1434.4,419.496" />
<polyline class="Stem" fill="none" stroke="#000000" stroke-width="2.62" stroke-linejoin="bevel" points="1536.8,631.741 1536.8,544.104" />
<polyline class="Stem" fill="none" stroke="#000000" stroke-width="2.62" stroke-linejoin="bevel" points="2516.67,1208.59 2516.67,1140.74" />
<polyline class="Stem" fill="none" stroke="#000000" stroke-width="2.62" stroke-linejoin="bevel" points="2587.61,1234.81 2587.61,1147.24" />
<polyline class="Stem" fill="none" stroke="#000000" stroke-width="2.62" stroke-linejoin="bevel" points="1746.57,631.741 1746.57,544.165" />
<polyline class="Stem" fill="none" stroke="#000000" stroke-width="2.62" stroke-linejoin="bevel" points="1467.85,1247.92 1467.85,1160.56" />
<polyline class="Stem" fill="none" stroke="#000000" stroke-width="2.62" stroke-linejoin="bevel" points="1675.62,605.521 1675.62,537.671" />
<polyline class="Stem" fill="none" stroke="#000000" stroke-width="2.62" stroke-linejoin="bevel" points="1958.32,1247.92 1958.32,1160.35" />
<polyline class="Stem" fill="none" stroke="#000000" stroke-width="2.62" stroke-linejoin="bevel" points="1677.62,1208.59 1677.62,1140.74" />
<polyline class="Stem" fill="none" stroke="#000000" stroke-width="2.62" stroke-linejoin="bevel" points="1606.21,618.631 1606.21,540.887" />
<polyline class="Stem" fill="none" stroke="#000000" stroke-width="2.62" stroke-linejoin="bevel" points="2168.09,1274.14 2168.09,1193.06" />
<polyline class="Stem" fill="none" stroke="#000000" stroke-width="2.62" stroke-linejoin="bevel" points="1465.86,644.852 1465.86,557.485" />
<polyline class="Stem" fill="none" stroke="#000000" stroke-width="2.62" stroke-linejoin="bevel" points="2238.01,1287.25 2238.01,1189.84" />
<polyline class="Stem" fill="none" stroke="#000000" stroke-width="2.62" stroke-linejoin="bevel" points="1327.04,631.741 1327.04,544.165" />
<polyline class="Stem" fill="none" stroke="#000000" stroke-width="2.62" stroke-linejoin="bevel" points="2307.93,1261.03 2307.93,1186.63" />
<polyline class="Stem" fill="none" stroke="#000000" stroke-width="2.62" stroke-linejoin="bevel" points="1234.39,627.231 1234.39,694.795" />
<polyline class="Stem" fill="none" stroke="#000000" stroke-width="2.62" stroke-linejoin="bevel" points="1329.03,1234.81 1329.03,1147.24" />
<polyline class="Stem" fill="none" stroke="#000000" stroke-width="2.62" stroke-linejoin="bevel" points="1173.21,614.121 1173.21,688.378" />
<polyline class="Stem" fill="none" stroke="#000000" stroke-width="2.62" stroke-linejoin="bevel" points="1112.09,1204.08 1112.09,1285.03" />
<polyline class="Stem" fill="none" stroke="#000000" stroke-width="2.62" stroke-linejoin="bevel" points="1112.03,601.011 1112.03,681.96" />
<polyline class="Stem" fill="none" stroke="#000000" stroke-width="2.62" stroke-linejoin="bevel" points="1608.2,1221.7 1608.2,1143.96" />
<polyline class="Stem" fill="none" stroke="#000000" stroke-width="2.62" stroke-linejoin="bevel" points="1748.56,1274.14 1748.56,1186.57" />
<polyline class="Stem" fill="none" stroke="#000000" stroke-width="2.62" stroke-linejoin="bevel" points="1173.92,1217.19 1173.92,1291.45" />
<polyline class="Stem" fill="none" stroke="#000000" stroke-width="2.62" stroke-linejoin="bevel" points="2377.85,1234.81 2377.85,1147.18" />
<polyline class="Stem" fill="none" stroke="#000000" stroke-width="2.62" stroke-linejoin="bevel" points="2447.26,1221.7 2447.26,1143.96" />
<polyline class="Stem" fill="none" stroke="#000000" stroke-width="2.62" stroke-linejoin="bevel" points="1235.74,1230.3 1235.74,1297.87" />
<polyline class="Stem" fill="none" stroke="#000000" stroke-width="2.62" stroke-linejoin="bevel" points="1538.79,1234.81 1538.79,1147.18" />
<polyline class="Stem" fill="none" stroke="#000000" stroke-width="2.62" stroke-linejoin="bevel" points="2098.16,1261.03 2098.16,1173.67" />
<path class="Hook" transform="matrix(1.04882,0,0,1.04882,2515.36,885.031)" d="M0,22.7 C0,23 0.1,23.5 0.8,23.8 C5.1,25.2 13.7,30.6 20.2,41.7 C22,44.8 24.9,49.1 24.9,57.4 C24.9,64.6 23,72 20.4,79.2 C20.2,79.8 20,80.3 20.1,80.7 C20.1,81.3 20.5,81.7 21.1,81.7 C21.8,81.7 22.3,81.3 22.7,80.6 C27.2,72.6 28.9,63.3 28.9,54.2 C28.4,41.3 21,31.8 21,31.8 C21.3,31.8 11.8,19.5 9.1,15.3 C5.4,9.6 3.7,3.9 3.5,3.5 C3.4,3.2 2.5,-0.4 2.5,-0.4 C2.4,-0.8 1.9,-1.2 1.3,-1.2 C0.6,-1.2 0,-0.6 0,0.1 L0,22.7 "/>
<path class="Hook" transform="matrix(1.04882,0,0,1.04882,1873.11,885.031)" d="M0,22.7 C0,23 0.1,23.5 0.8,23.8 C5.1,25.2 13.7,30.6 20.2,41.7 C22,44.8 24.9,49.1 24.9,57.4 C24.9,64.6 23,72 20.4,79.2 C20.2,79.8 20,80.3 20.1,80.7 C20.1,81.3 20.5,81.7 21.1,81.7 C21.8,81.7 22.3,81.3 22.7,80.6 C27.2,72.6 28.9,63.3 28.9,54.2 C28.4,41.3 21,31.8 21,31.8 C21.3,31.8 11.8,19.5 9.1,15.3 C5.4,9.6 3.7,3.9 3.5,3.5 C3.4,3.2 2.5,-0.4 2.5,-0.4 C2.4,-0.8 1.9,-1.2 1.3,-1.2 C0.6,-1.2 0,-0.6 0,0.1 L0,22.7 "/>
<path class="Hook" transform="matrix(1.04882,0,0,1.04882,1674.31,281.96)" d="M0,22.7 C0,23 0.1,23.5 0.8,23.8 C5.1,25.2 13.7,30.6 20.2,41.7 C22,44.8 24.9,49.1 24.9,57.4 C24.9,64.6 23,72 20.4,79.2 C20.2,79.8 20,80.3 20.1,80.7 C20.1,81.3 20.5,81.7 21.1,81.7 C21.8,81.7 22.3,81.3 22.7,80.6 C27.2,72.6 28.9,63.3 28.9,54.2 C28.4,41.3 21,31.8 21,31.8 C21.3,31.8 11.8,19.5 9.1,15.3 C5.4,9.6 3.7,3.9 3.5,3.5 C3.4,3.2 2.5,-0.4 2.5,-0.4 C2.4,-0.8 1.9,-1.2 1.3,-1.2 C0.6,-1.2 0,-0.6 0,0.1 L0,22.7 "/>
<path class="Hook" transform="matrix(1.04882,0,0,1.04882,1676.3,885.031)" d="M0,22.7 C0,23 0.1,23.5 0.8,23.8 C5.1,25.2 13.7,30.6 20.2,41.7 C22,44.8 24.9,49.1 24.9,57.4 C24.9,64.6 23,72 20.4,79.2 C20.2,79.8 20,80.3 20.1,80.7 C20.1,81.3 20.5,81.7 21.1,81.7 C21.8,81.7 22.3,81.3 22.7,80.6 C27.2,72.6 28.9,63.3 28.9,54.2 C28.4,41.3 21,31.8 21,31.8 C21.3,31.8 11.8,19.5 9.1,15.3 C5.4,9.6 3.7,3.9 3.5,3.5 C3.4,3.2 2.5,-0.4 2.5,-0.4 C2.4,-0.8 1.9,-1.2 1.3,-1.2 C0.6,-1.2 0,-0.6 0,0.1 L0,22.7 "/>
<path class="Hook" transform="matrix(1.04882,0,0,1.04882,2096.85,1173.46)" d="M0,22.7 C0,23 0.1,23.5 0.8,23.8 C5.1,25.2 13.7,30.6 20.2,41.7 C22,44.8 24.9,49.1 24.9,57.4 C24.9,64.6 23,72 20.4,79.2 C20.2,79.8 20,80.3 20.1,80.7 C20.1,81.3 20.5,81.7 21.1,81.7 C21.8,81.7 22.3,81.3 22.7,80.6 C27.2,72.6 28.9,63.3 28.9,54.2 C28.4,41.3 21,31.8 21,31.8 C21.3,31.8 11.8,19.5 9.1,15.3 C5.4,9.6 3.7,3.9 3.5,3.5 C3.4,3.2 2.5,-0.4 2.5,-0.4 C2.4,-0.8 1.9,-1.2 1.3,-1.2 C0.6,-1.2 0,-0.6 0,0.1 L0,22.7 "/>
<path class="Hook" transform="matrix(1.04882,0,0,1.04882,1466.54,1160.35)" d="M0,22.7 C0,23 0.1,23.5 0.8,23.8 C5.1,25.2 13.7,30.6 20.2,41.7 C22,44.8 24.9,49.1 24.9,57.4 C24.9,64.6 23,72 20.4,79.2 C20.2,79.8 20,80.3 20.1,80.7 C20.1,81.3 20.5,81.7 21.1,81.7 C21.8,81.7 22.3,81.3 22.7,80.6 C27.2,72.6 28.9,63.3 28.9,54.2 C28.4,41.3 21,31.8 21,31.8 C21.3,31.8 11.8,19.5 9.1,15.3 C5.4,9.6 3.7,3.9 3.5,3.5 C3.4,3.2 2.5,-0.4 2.5,-0.4 C2.4,-0.8 1.9,-1.2 1.3,-1.2 C0.6,-1.2 0,-0.6 0,0.1 L0,22.7 "/>
<path class="Hook" transform="matrix(1.04882,0,0,1.04882,1464.55,557.275)" d="M0,22.7 C0,23 0.1,23.5 0.8,23.8 C5.1,25.2 13.7,30.6 20.2,41.7 C22,44.8 24.9,49.1 24.9,57.4 C24.9,64.6 23,72 20.4,79.2 C20.2,79.8 20,80.3 20.1,80.7 C20.1,81.3 20.5,81.7 21.1,81.7 C21.8,81.7 22.3,81.3 22.7,80.6 C27.2,72.6 28.9,63.3 28.9,54.2 C28.4,41.3 21,31.8 21,31.8 C21.3,31.8 11.8,19.5 9.1,15.3 C5.4,9.6 3.7,3.9 3.5,3.5 C3.4,3.2 2.5,-0.4 2.5,-0.4 C2.4,-0.8 1.9,-1.2 1.3,-1.2 C0.6,-1.2 0,-0.6 0,0.1 L0,22.7 "/>
<path class="Note" transform="matrix(1.04882,0,0,1.04882,555.117,924.362)" d="M0,4.2 C0,8.5 3.1,13.3 11.2,13.3 C21.6,13.3 32.5,4.8 32.5,-4 C32.5,-9.9 27.5,-13.2 21.3,-13.2 C11.6,-13.2 0,-5 0,4.2"/>
<path class="Note" transform="matrix(1.04882,0,0,1.04882,767.32,334.401)" d="M0,4.2 C0,8.5 3.1,13.3 11.2,13.3 C21.6,13.3 32.5,4.8 32.5,-4 C32.5,-9.9 27.5,-13.2 21.3,-13.2 C11.6,-13.2 0,-5 0,4.2"/>
<path class="Note" transform="matrix(1.04882,0,0,1.04882,369.643,937.472)" d="M0,4.2 C0,8.5 3.1,13.3 11.2,13.3 C21.6,13.3 32.5,4.8 32.5,-4 C32.5,-9.9 27.5,-13.2 21.3,-13.2 C11.6,-13.2 0,-5 0,4.2"/>
<path class="Note" transform="matrix(1.04882,0,0,1.04882,1715.78,950.582)" d="M0,4.2 C0,8.5 3.1,13.3 11.2,13.3 C21.6,13.3 32.5,4.8 32.5,-4 C32.5,-9.9 27.5,-13.2 21.3,-13.2 C11.6,-13.2 0,-5 0,4.2"/>
<path class="Note" transform="matrix(1.04882,0,0,1.04882,1841.64,976.803)" d="M0,4.2 C0,8.5 3.1,13.3 11.2,13.3 C21.6,13.3 32.5,4.8 32.5,-4 C32.5,-9.9 27.5,-13.2 21.3,-13.2 C11.6,-13.2 0,-5 0,4.2"/>
<path class="Note" transform="matrix(1.04882,0,0,1.04882,369.643,268.85)" d="M0,4.2 C0,8.5 3.1,13.3 11.2,13.3 C21.6,13.3 32.5,4.8 32.5,-4 C32.5,-9.9 27.5,-13.2 21.3,-13.2 C11.6,-13.2 0,-5 0,4.2"/>
<path class="Note" transform="matrix(1.04882,0,0,1.04882,1925.55,950.582)" d="M0,4.2 C0,8.5 3.1,13.3 11.2,13.3 C21.6,13.3 32.5,4.8 32.5,-4 C32.5,-9.9 27.5,-13.2 21.3,-13.2 C11.6,-13.2 0,-5 0,4.2"/>
<path class="Note" transform="matrix(1.04882,0,0,1.04882,740.592,937.472)" d="M0,4.2 C0,8.5 3.1,13.3 11.2,13.3 C21.6,13.3 32.5,4.8 32.5,-4 C32.5,-9.9 27.5,-13.2 21.3,-13.2 C11.6,-13.2 0,-5 0,4.2"/>
<path class="Note" transform="matrix(1.04882,0,0,1.04882,1506.02,963.693)" d="M0,4.2 C0,8.5 3.1,13.3 11.2,13.3 C21.6,13.3 32.5,4.8 32.5,-4 C32.5,-9.9 27.5,-13.2 21.3,-13.2 C11.6,-13.2 0,-5 0,4.2"/>
<path class="Note" transform="matrix(1.04882,0,0,1.04882,1995.47,924.362)" d="M0,4.2 C0,8.5 3.1,13.3 11.2,13.3 C21.6,13.3 32.5,4.8 32.5,-4 C32.5,-9.9 27.5,-13.2 21.3,-13.2 C11.6,-13.2 0,-5 0,4.2"/>
<path class="Note" transform="matrix(1.04882,0,0,1.04882,2483.9,976.803)" d="M0,4.2 C0,8.5 3.1,13.3 11.2,13.3 C21.6,13.3 32.5,4.8 32.5,-4 C32.5,-9.9 27.5,-13.2 21.3,-13.2 C11.6,-13.2 0,-5 0,4.2"/>
<path class="Note" transform="matrix(1.04882,0,0,1.04882,461.414,281.96)" d="M0,4.2 C0,8.5 3.1,13.3 11.2,13.3 C21.6,13.3 32.5,4.8 32.5,-4 C32.5,-9.9 27.5,-13.2 21.3,-13.2 C11.6,-13.2 0,-5 0,4.2"/>
<path class="Note" transform="matrix(1.04882,0,0,1.04882,791.425,950.582)" d="M0,4.2 C0,8.5 3.1,13.3 11.2,13.3 C21.6,13.3 32.5,4.8 32.5,-4 C32.5,-9.9 27.5,-13.2 21.3,-13.2 C11.6,-13.2 0,-5 0,4.2"/>
<path class="Note" transform="matrix(1.04882,0,0,1.04882,1713.79,360.622)" d="M0,4.2 C0,8.5 3.1,13.3 11.2,13.3 C21.6,13.3 32.5,4.8 32.5,-4 C32.5,-9.9 27.5,-13.2 21.3,-13.2 C11.6,-13.2 0,-5 0,4.2"/>
<path class="Note" transform="matrix(1.04882,0,0,1.04882,846.381,963.693)" d="M0,4.2 C0,8.5 3.1,13.3 11.2,13.3 C21.6,13.3 32.5,4.8 32.5,-4 C32.5,-9.9 27.5,-13.2 21.3,-13.2 C11.6,-13.2 0,-5 0,4.2"/>
<path class="Note" transform="matrix(1.04882,0,0,1.04882,2554.84,963.693)" d="M0,4.2 C0,8.5 3.1,13.3 11.2,13.3 C21.6,13.3 32.5,4.8 32.5,-4 C32.5,-9.9 27.5,-13.2 21.3,-13.2 C11.6,-13.2 0,-5 0,4.2"/>
<path class="Note" transform="matrix(1.04882,0,0,1.04882,891.701,950.582)" d="M0,4.2 C0,8.5 3.1,13.3 11.2,13.3 C21.6,13.3 32.5,4.8 32.5,-4 C32.5,-9.9 27.5,-13.2 21.3,-13.2 C11.6,-13.2 0,-5 0,4.2"/>
<path class="Note" transform="matrix(1.04882,0,0,1.04882,553.186,295.071)" d="M0,4.2 C0,8.5 3.1,13.3 11.2,13.3 C21.6,13.3 32.5,4.8 32.5,-4 C32.5,-9.9 27.5,-13.2 21.3,-13.2 C11.6,-13.2 0,-5 0,4.2"/>
<path class="Note" transform="matrix(1.04882,0,0,1.04882,1642.85,373.732)" d="M0,4.2 C0,8.5 3.1,13.3 11.2,13.3 C21.6,13.3 32.5,4.8 32.5,-4 C32.5,-9.9 27.5,-13.2 21.3,-13.2 C11.6,-13.2 0,-5 0,4.2"/>
<path class="Note" transform="matrix(1.04882,0,0,1.04882,647.854,950.582)" d="M0,4.2 C0,8.5 3.1,13.3 11.2,13.3 C21.6,13.3 32.5,4.8 32.5,-4 C32.5,-9.9 27.5,-13.2 21.3,-13.2 C11.6,-13.2 0,-5 0,4.2"/>
<path class="Note" transform="matrix(1.04882,0,0,1.04882,1435.08,950.582)" d="M0,4.2 C0,8.5 3.1,13.3 11.2,13.3 C21.6,13.3 32.5,4.8 32.5,-4 C32.5,-9.9 27.5,-13.2 21.3,-13.2 C11.6,-13.2 0,-5 0,4.2"/>
<path class="Note" transform="matrix(1.04882,0,0,1.04882,2135.31,950.582)" d="M0,4.2 C0,8.5 3.1,13.3 11.2,13.3 C21.6,13.3 32.5,4.8 32.5,-4 C32.5,-9.9 27.5,-13.2 21.3,-13.2 C11.6,-13.2 0,-5 0,4.2"/>
<path class="Note" transform="matrix(1.04882,0,0,1.04882,1504.03,360.622)" d="M0,4.2 C0,8.5 3.1,13.3 11.2,13.3 C21.6,13.3 32.5,4.8 32.5,-4 C32.5,-9.9 27.5,-13.2 21.3,-13.2 C11.6,-13.2 0,-5 0,4.2"/>
<path class="Note" transform="matrix(1.04882,0,0,1.04882,1644.84,976.803)" d="M0,4.2 C0,8.5 3.1,13.3 11.2,13.3 C21.6,13.3 32.5,4.8 32.5,-4 C32.5,-9.9 27.5,-13.2 21.3,-13.2 C11.6,-13.2 0,-5 0,4.2"/>
<path class="Note" transform="matrix(1.04882,0,0,1.04882,1433.08,347.511)" d="M0,4.2 C0,8.5 3.1,13.3 11.2,13.3 C21.6,13.3 32.5,4.8 32.5,-4 C32.5,-9.9 27.5,-13.2 21.3,-13.2 C11.6,-13.2 0,-5 0,4.2"/>
<path class="Note" transform="matrix(1.04882,0,0,1.04882,1363.67,334.401)" d="M0,4.2 C0,8.5 3.1,13.3 11.2,13.3 C21.6,13.3 32.5,4.8 32.5,-4 C32.5,-9.9 27.5,-13.2 21.3,-13.2 C11.6,-13.2 0,-5 0,4.2"/>
<path class="Note" transform="matrix(1.04882,0,0,1.04882,1365.67,937.472)" d="M0,4.2 C0,8.5 3.1,13.3 11.2,13.3 C21.6,13.3 32.5,4.8 32.5,-4 C32.5,-9.9 27.5,-13.2 21.3,-13.2 C11.6,-13.2 0,-5 0,4.2"/>
<path class="Note" transform="matrix(1.04882,0,0,1.04882,1294.26,321.291)" d="M0,4.2 C0,8.5 3.1,13.3 11.2,13.3 C21.6,13.3 32.5,4.8 32.5,-4 C32.5,-9.9 27.5,-13.2 21.3,-13.2 C11.6,-13.2 0,-5 0,4.2"/>
<path class="Note" transform="matrix(1.04882,0,0,1.04882,614.367,308.181)" d="M0,4.2 C0,8.5 3.1,13.3 11.2,13.3 C21.6,13.3 32.5,4.8 32.5,-4 C32.5,-9.9 27.5,-13.2 21.3,-13.2 C11.6,-13.2 0,-5 0,4.2"/>
<path class="Note" transform="matrix(1.04882,0,0,1.04882,1110.78,963.693)" d="M0,4.2 C0,8.5 3.1,13.3 11.2,13.3 C21.6,13.3 32.5,4.8 32.5,-4 C32.5,-9.9 27.5,-13.2 21.3,-13.2 C11.6,-13.2 0,-5 0,4.2"/>
<path class="Note" transform="matrix(1.04882,0,0,1.04882,1233.08,334.401)" d="M0,4.2 C0,8.5 3.1,13.3 11.2,13.3 C21.6,13.3 32.5,4.8 32.5,-4 C32.5,-9.9 27.5,-13.2 21.3,-13.2 C11.6,-13.2 0,-5 0,4.2"/>
<path class="Note" transform="matrix(1.04882,0,0,1.04882,1171.9,347.511)" d="M0,4.2 C0,8.5 3.1,13.3 11.2,13.3 C21.6,13.3 32.5,4.8 32.5,-4 C32.5,-9.9 27.5,-13.2 21.3,-13.2 C11.6,-13.2 0,-5 0,4.2"/>
<path class="Note" transform="matrix(1.04882,0,0,1.04882,1296.26,924.362)" d="M0,4.2 C0,8.5 3.1,13.3 11.2,13.3 C21.6,13.3 32.5,4.8 32.5,-4 C32.5,-9.9 27.5,-13.2 21.3,-13.2 C11.6,-13.2 0,-5 0,4.2"/>
<path class="Note" transform="matrix(1.04882,0,0,1.04882,675.548,334.401)" d="M0,4.2 C0,8.5 3.1,13.3 11.2,13.3 C21.6,13.3 32.5,4.8 32.5,-4 C32.5,-9.9 27.5,-13.2 21.3,-13.2 C11.6,-13.2 0,-5 0,4.2"/>
<path class="Note" transform="matrix(1.04882,0,0,1.04882,1110.72,360.622)" d="M0,4.2 C0,8.5 3.1,13.3 11.2,13.3 C21.6,13.3 32.5,4.8 32.5,-4 C32.5,-9.9 27.5,-13.2 21.3,-13.2 C11.6,-13.2 0,-5 0,4.2"/>
<path class="Note" transform="matrix(1.04882,0,0,1.04882,1172.61,950.582)" d="M0,4.2 C0,8.5 3.1,13.3 11.2,13.3 C21.6,13.3 32.5,4.8 32.5,-4 C32.5,-9.9 27.5,-13.2 21.3,-13.2 C11.6,-13.2 0,-5 0,4.2"/>
<path class="Note" transform="matrix(1.04882,0,0,1.04882,2345.07,963.693)" d="M0,4.2 C0,8.5 3.1,13.3 11.2,13.3 C21.6,13.3 32.5,4.8 32.5,-4 C32.5,-9.9 27.5,-13.2 21.3,-13.2 C11.6,-13.2 0,-5 0,4.2"/>
<path class="Note" transform="matrix(1.04882,0,0,1.04882,981.454,347.511)" d="M0,4.2 C0,8.5 3.1,13.3 11.2,13.3 C21.6,13.3 32.5,4.8 32.5,-4 C32.5,-9.9 27.5,-13.2 21.3,-13.2 C11.6,-13.2 0,-5 0,4.2"/>
<path class="Note" transform="matrix(1.04882,0,0,1.04882,889.682,373.732)" d="M0,4.2 C0,8.5 3.1,13.3 11.2,13.3 C21.6,13.3 32.5,4.8 32.5,-4 C32.5,-9.9 27.5,-13.2 21.3,-13.2 C11.6,-13.2 0,-5 0,4.2"/>
<path class="Note" transform="matrix(1.04882,0,0,1.04882,1234.43,937.472)" d="M0,4.2 C0,8.5 3.1,13.3 11.2,13.3 C21.6,13.3 32.5,4.8 32.5,-4 C32.5,-9.9 27.5,-13.2 21.3,-13.2 C11.6,-13.2 0,-5 0,4.2"/>
<path class="Note" transform="matrix(1.04882,0,0,1.04882,2065.39,937.472)" d="M0,4.2 C0,8.5 3.1,13.3 11.2,13.3 C21.6,13.3 32.5,4.8 32.5,-4 C32.5,-9.9 27.5,-13.2 21.3,-13.2 C11.6,-13.2 0,-5 0,4.2"/>
<path class="Note" transform="matrix(1.04882,0,0,1.04882,828.501,360.622)" d="M0,4.2 C0,8.5 3.1,13.3 11.2,13.3 C21.6,13.3 32.5,4.8 32.5,-4 C32.5,-9.9 27.5,-13.2 21.3,-13.2 C11.6,-13.2 0,-5 0,4.2"/>
<path class="Note" transform="matrix(1.04882,0,0,1.04882,462.38,911.252)" d="M0,4.2 C0,8.5 3.1,13.3 11.2,13.3 C21.6,13.3 32.5,4.8 32.5,-4 C32.5,-9.9 27.5,-13.2 21.3,-13.2 C11.6,-13.2 0,-5 0,4.2"/>
<path class="Note" transform="matrix(0.734173,0,0,0.734173,938.028,1212.79)" d="M0,4.2 C0,8.5 3.1,13.3 11.2,13.3 C21.6,13.3 32.5,4.8 32.5,-4 C32.5,-9.9 27.5,-13.2 21.3,-13.2 C11.6,-13.2 0,-5 0,4.2"/>
<path class="Note" transform="matrix(1.04882,0,0,1.04882,1925.55,1252.12)" d="M0,4.2 C0,8.5 3.1,13.3 11.2,13.3 C21.6,13.3 32.5,4.8 32.5,-4 C32.5,-9.9 27.5,-13.2 21.3,-13.2 C11.6,-13.2 0,-5 0,4.2"/>
<path class="Note" transform="matrix(1.04882,0,0,1.04882,1172.61,1212.79)" d="M0,4.2 C0,8.5 3.1,13.3 11.2,13.3 C21.6,13.3 32.5,4.8 32.5,-4 C32.5,-9.9 27.5,-13.2 21.3,-13.2 C11.6,-13.2 0,-5 0,4.2"/>
<path class="Note" transform="matrix(1.04882,0,0,1.04882,369.643,635.937)" d="M0,4.2 C0,8.5 3.1,13.3 11.2,13.3 C21.6,13.3 32.5,4.8 32.5,-4 C32.5,-9.9 27.5,-13.2 21.3,-13.2 C11.6,-13.2 0,-5 0,4.2"/>
<path class="Note" transform="matrix(1.04882,0,0,1.04882,1110.78,1199.68)" d="M0,4.2 C0,8.5 3.1,13.3 11.2,13.3 C21.6,13.3 32.5,4.8 32.5,-4 C32.5,-9.9 27.5,-13.2 21.3,-13.2 C11.6,-13.2 0,-5 0,4.2"/>
<path class="Note" transform="matrix(1.04882,0,0,1.04882,2554.84,1239.01)" d="M0,4.2 C0,8.5 3.1,13.3 11.2,13.3 C21.6,13.3 32.5,4.8 32.5,-4 C32.5,-9.9 27.5,-13.2 21.3,-13.2 C11.6,-13.2 0,-5 0,4.2"/>
<path class="Note" transform="matrix(1.04882,0,0,1.04882,461.414,609.716)" d="M0,4.2 C0,8.5 3.1,13.3 11.2,13.3 C21.6,13.3 32.5,4.8 32.5,-4 C32.5,-9.9 27.5,-13.2 21.3,-13.2 C11.6,-13.2 0,-5 0,4.2"/>
<path class="Note" transform="matrix(1.04882,0,0,1.04882,1296.26,1239.01)" d="M0,4.2 C0,8.5 3.1,13.3 11.2,13.3 C21.6,13.3 32.5,4.8 32.5,-4 C32.5,-9.9 27.5,-13.2 21.3,-13.2 C11.6,-13.2 0,-5 0,4.2"/>
<path class="Note" transform="matrix(1.04882,0,0,1.04882,553.186,583.496)" d="M0,4.2 C0,8.5 3.1,13.3 11.2,13.3 C21.6,13.3 32.5,4.8 32.5,-4 C32.5,-9.9 27.5,-13.2 21.3,-13.2 C11.6,-13.2 0,-5 0,4.2"/>
<path class="Note" transform="matrix(1.04882,0,0,1.04882,675.548,583.496)" d="M0,4.2 C0,8.5 3.1,13.3 11.2,13.3 C21.6,13.3 32.5,4.8 32.5,-4 C32.5,-9.9 27.5,-13.2 21.3,-13.2 C11.6,-13.2 0,-5 0,4.2"/>
<path class="Note" transform="matrix(0.734173,0,0,0.734173,1016.01,1212.79)" d="M0,4.2 C0,8.5 3.1,13.3 11.2,13.3 C21.6,13.3 32.5,4.8 32.5,-4 C32.5,-9.9 27.5,-13.2 21.3,-13.2 C11.6,-13.2 0,-5 0,4.2"/>
<path class="Note" transform="matrix(1.04882,0,0,1.04882,969.678,1225.9)" d="M0,4.2 C0,8.5 3.1,13.3 11.2,13.3 C21.6,13.3 32.5,4.8 32.5,-4 C32.5,-9.9 27.5,-13.2 21.3,-13.2 C11.6,-13.2 0,-5 0,4.2"/>
<path class="Note" transform="matrix(1.04882,0,0,1.04882,2483.9,1212.79)" d="M0,4.2 C0,8.5 3.1,13.3 11.2,13.3 C21.6,13.3 32.5,4.8 32.5,-4 C32.5,-9.9 27.5,-13.2 21.3,-13.2 C11.6,-13.2 0,-5 0,4.2"/>
<path class="Note" transform="matrix(1.04882,0,0,1.04882,891.701,1225.9)" d="M0,4.2 C0,8.5 3.1,13.3 11.2,13.3 C21.6,13.3 32.5,4.8 32.5,-4 C32.5,-9.9 27.5,-13.2 21.3,-13.2 C11.6,-13.2 0,-5 0,4.2"/>
<path class="Note" transform="matrix(1.04882,0,0,1.04882,1435.08,1252.12)" d="M0,4.2 C0,8.5 3.1,13.3 11.2,13.3 C21.6,13.3 32.5,4.8 32.5,-4 C32.5,-9.9 27.5,-13.2 21.3,-13.2 C11.6,-13.2 0,-5 0,4.2"/>
<path class="Note" transform="matrix(0.734173,0,0,0.734173,865.23,1199.68)" d="M0,4.2 C0,8.5 3.1,13.3 11.2,13.3 C21.6,13.3 32.5,4.8 32.5,-4 C32.5,-9.9 27.5,-13.2 21.3,-13.2 C11.6,-13.2 0,-5 0,4.2"/>
<path class="Note" transform="matrix(1.04882,0,0,1.04882,818.903,1212.79)" d="M0,4.2 C0,8.5 3.1,13.3 11.2,13.3 C21.6,13.3 32.5,4.8 32.5,-4 C32.5,-9.9 27.5,-13.2 21.3,-13.2 C11.6,-13.2 0,-5 0,4.2"/>
<path class="Note" transform="matrix(0.734173,0,0,0.734173,786.919,1199.68)" d="M0,4.2 C0,8.5 3.1,13.3 11.2,13.3 C21.6,13.3 32.5,4.8 32.5,-4 C32.5,-9.9 27.5,-13.2 21.3,-13.2 C11.6,-13.2 0,-5 0,4.2"/>
<path class="Note" transform="matrix(1.04882,0,0,1.04882,767.32,596.606)" d="M0,4.2 C0,8.5 3.1,13.3 11.2,13.3 C21.6,13.3 32.5,4.8 32.5,-4 C32.5,-9.9 27.5,-13.2 21.3,-13.2 C11.6,-13.2 0,-5 0,4.2"/>
<path class="Note" transform="matrix(1.04882,0,0,1.04882,740.592,1212.79)" d="M0,4.2 C0,8.5 3.1,13.3 11.2,13.3 C21.6,13.3 32.5,4.8 32.5,-4 C32.5,-9.9 27.5,-13.2 21.3,-13.2 C11.6,-13.2 0,-5 0,4.2"/>
<path class="Note" transform="matrix(1.04882,0,0,1.04882,889.682,596.606)" d="M0,4.2 C0,8.5 3.1,13.3 11.2,13.3 C21.6,13.3 32.5,4.8 32.5,-4 C32.5,-9.9 27.5,-13.2 21.3,-13.2 C11.6,-13.2 0,-5 0,4.2"/>
<path class="Note" transform="matrix(1.04882,0,0,1.04882,2414.48,1225.9)" d="M0,4.2 C0,8.5 3.1,13.3 11.2,13.3 C21.6,13.3 32.5,4.8 32.5,-4 C32.5,-9.9 27.5,-13.2 21.3,-13.2 C11.6,-13.2 0,-5 0,4.2"/>
<path class="Note" transform="matrix(1.04882,0,0,1.04882,1506.02,1239.01)" d="M0,4.2 C0,8.5 3.1,13.3 11.2,13.3 C21.6,13.3 32.5,4.8 32.5,-4 C32.5,-9.9 27.5,-13.2 21.3,-13.2 C11.6,-13.2 0,-5 0,4.2"/>
<path class="Note" transform="matrix(1.04882,0,0,1.04882,981.454,622.826)" d="M0,4.2 C0,8.5 3.1,13.3 11.2,13.3 C21.6,13.3 32.5,4.8 32.5,-4 C32.5,-9.9 27.5,-13.2 21.3,-13.2 C11.6,-13.2 0,-5 0,4.2"/>
<path class="Note" transform="matrix(1.04882,0,0,1.04882,647.854,1225.9)" d="M0,4.2 C0,8.5 3.1,13.3 11.2,13.3 C21.6,13.3 32.5,4.8 32.5,-4 C32.5,-9.9 27.5,-13.2 21.3,-13.2 C11.6,-13.2 0,-5 0,4.2"/>
<path class="Note" transform="matrix(1.04882,0,0,1.04882,1575.43,1225.9)" d="M0,4.2 C0,8.5 3.1,13.3 11.2,13.3 C21.6,13.3 32.5,4.8 32.5,-4 C32.5,-9.9 27.5,-13.2 21.3,-13.2 C11.6,-13.2 0,-5 0,4.2"/>
<path class="Note" transform="matrix(1.04882,0,0,1.04882,2345.07,1239.01)" d="M0,4.2 C0,8.5 3.1,13.3 11.2,13.3 C21.6,13.3 32.5,4.8 32.5,-4 C32.5,-9.9 27.5,-13.2 21.3,-13.2 C11.6,-13.2 0,-5 0,4.2"/>
<path class="Note" transform="matrix(1.04882,0,0,1.04882,555.117,1252.12)" d="M0,4.2 C0,8.5 3.1,13.3 11.2,13.3 C21.6,13.3 32.5,4.8 32.5,-4 C32.5,-9.9 27.5,-13.2 21.3,-13.2 C11.6,-13.2 0,-5 0,4.2"/>
<path class="Note" transform="matrix(1.04882,0,0,1.04882,1110.72,596.606)" d="M0,4.2 C0,8.5 3.1,13.3 11.2,13.3 C21.6,13.3 32.5,4.8 32.5,-4 C32.5,-9.9 27.5,-13.2 21.3,-13.2 C11.6,-13.2 0,-5 0,4.2"/>
<path class="Note" transform="matrix(1.04882,0,0,1.04882,462.38,1239.01)" d="M0,4.2 C0,8.5 3.1,13.3 11.2,13.3 C21.6,13.3 32.5,4.8 32.5,-4 C32.5,-9.9 27.5,-13.2 21.3,-13.2 C11.6,-13.2 0,-5 0,4.2"/>
<path class="Note" transform="matrix(1.04882,0,0,1.04882,1644.84,1212.79)" d="M0,4.2 C0,8.5 3.1,13.3 11.2,13.3 C21.6,13.3 32.5,4.8 32.5,-4 C32.5,-9.9 27.5,-13.2 21.3,-13.2 C11.6,-13.2 0,-5 0,4.2"/>
<path class="Note" transform="matrix(1.04882,0,0,1.04882,1171.9,609.716)" d="M0,4.2 C0,8.5 3.1,13.3 11.2,13.3 C21.6,13.3 32.5,4.8 32.5,-4 C32.5,-9.9 27.5,-13.2 21.3,-13.2 C11.6,-13.2 0,-5 0,4.2"/>
<path class="Note" transform="matrix(1.04882,0,0,1.04882,369.643,1212.79)" d="M0,4.2 C0,8.5 3.1,13.3 11.2,13.3 C21.6,13.3 32.5,4.8 32.5,-4 C32.5,-9.9 27.5,-13.2 21.3,-13.2 C11.6,-13.2 0,-5 0,4.2"/>
<path class="Note" transform="matrix(1.04882,0,0,1.04882,2275.15,1265.23)" d="M0,4.2 C0,8.5 3.1,13.3 11.2,13.3 C21.6,13.3 32.5,4.8 32.5,-4 C32.5,-9.9 27.5,-13.2 21.3,-13.2 C11.6,-13.2 0,-5 0,4.2"/>
<path class="Note" transform="matrix(1.04882,0,0,1.04882,1233.08,622.826)" d="M0,4.2 C0,8.5 3.1,13.3 11.2,13.3 C21.6,13.3 32.5,4.8 32.5,-4 C32.5,-9.9 27.5,-13.2 21.3,-13.2 C11.6,-13.2 0,-5 0,4.2"/>
<path class="Note" transform="matrix(1.04882,0,0,1.04882,2205.23,1291.45)" d="M0,4.2 C0,8.5 3.1,13.3 11.2,13.3 C21.6,13.3 32.5,4.8 32.5,-4 C32.5,-9.9 27.5,-13.2 21.3,-13.2 C11.6,-13.2 0,-5 0,4.2"/>
<path class="Note" transform="matrix(1.04882,0,0,1.04882,1294.26,635.937)" d="M0,4.2 C0,8.5 3.1,13.3 11.2,13.3 C21.6,13.3 32.5,4.8 32.5,-4 C32.5,-9.9 27.5,-13.2 21.3,-13.2 C11.6,-13.2 0,-5 0,4.2"/>
<path class="Note" transform="matrix(1.04882,0,0,1.04882,2135.31,1278.34)" d="M0,4.2 C0,8.5 3.1,13.3 11.2,13.3 C21.6,13.3 32.5,4.8 32.5,-4 C32.5,-9.9 27.5,-13.2 21.3,-13.2 C11.6,-13.2 0,-5 0,4.2"/>
<path class="Note" transform="matrix(1.04882,0,0,1.04882,1715.78,1278.34)" d="M0,4.2 C0,8.5 3.1,13.3 11.2,13.3 C21.6,13.3 32.5,4.8 32.5,-4 C32.5,-9.9 27.5,-13.2 21.3,-13.2 C11.6,-13.2 0,-5 0,4.2"/>
<path class="Note" transform="matrix(1.04882,0,0,1.04882,1433.08,649.047)" d="M0,4.2 C0,8.5 3.1,13.3 11.2,13.3 C21.6,13.3 32.5,4.8 32.5,-4 C32.5,-9.9 27.5,-13.2 21.3,-13.2 C11.6,-13.2 0,-5 0,4.2"/>
<path class="Note" transform="matrix(1.04882,0,0,1.04882,1504.03,635.937)" d="M0,4.2 C0,8.5 3.1,13.3 11.2,13.3 C21.6,13.3 32.5,4.8 32.5,-4 C32.5,-9.9 27.5,-13.2 21.3,-13.2 C11.6,-13.2 0,-5 0,4.2"/>
<path class="Note" transform="matrix(1.04882,0,0,1.04882,1573.44,622.826)" d="M0,4.2 C0,8.5 3.1,13.3 11.2,13.3 C21.6,13.3 32.5,4.8 32.5,-4 C32.5,-9.9 27.5,-13.2 21.3,-13.2 C11.6,-13.2 0,-5 0,4.2"/>
<path class="Note" transform="matrix(1.04882,0,0,1.04882,1642.85,609.716)" d="M0,4.2 C0,8.5 3.1,13.3 11.2,13.3 C21.6,13.3 32.5,4.8 32.5,-4 C32.5,-9.9 27.5,-13.2 21.3,-13.2 C11.6,-13.2 0,-5 0,4.2"/>
<path class="Note" transform="matrix(1.04882,0,0,1.04882,1713.79,635.937)" d="M0,4.2 C0,8.5 3.1,13.3 11.2,13.3 C21.6,13.3 32.5,4.8 32.5,-4 C32.5,-9.9 27.5,-13.2 21.3,-13.2 C11.6,-13.2 0,-5 0,4.2"/>
<path class="Note" transform="matrix(1.04882,0,0,1.04882,2065.39,1265.23)" d="M0,4.2 C0,8.5 3.1,13.3 11.2,13.3 C21.6,13.3 32.5,4.8 32.5,-4 C32.5,-9.9 27.5,-13.2 21.3,-13.2 C11.6,-13.2 0,-5 0,4.2"/>
<path class="Note" transform="matrix(1.04882,0,0,1.04882,1234.43,1225.9)" d="M0,4.2 C0,8.5 3.1,13.3 11.2,13.3 C21.6,13.3 32.5,4.8 32.5,-4 C32.5,-9.9 27.5,-13.2 21.3,-13.2 C11.6,-13.2 0,-5 0,4.2"/>
<path class="Clef" transform="matrix(1.04882,0,0,1.04882,236.983,360.622)" d="M36.2,21.2 C21.9,21.2 9.7,11.2 9.7,-3.9 C9.7,-16.1 18.3,-27 27.1,-34.7 C28.8,-36.1 30.4,-37.5 31.9,-39 C32.8,-33.6 33.5,-29 34.2,-24.8 C25.1,-22.2 18.9,-12.5 18.9,-3.2 C18.9,3.9 24.4,13.5 32.4,13.5 C33.2,13.5 34.1,13.1 34.1,12.1 C34.1,11.3 33.2,10.7 31.9,9.9 C28,7.6 25.8,4.9 25.8,0.1 C25.8,-6 30.4,-10.9 36.2,-12.3 L42,20.5 C40,20.9 38.2,21.2 36.2,21.2 M33.2,-82.2 C34.2,-86.2 38.7,-96.7 43.9,-96.7 C45.4,-96.7 47.9,-91.9 47.9,-84.9 C47.9,-74.6 40.1,-66.8 33.2,-59.9 C32.6,-63.9 32.1,-67.9 32.1,-72 C32.1,-75.8 32.5,-79.1 33.2,-82.2 M46.2,19.3 C44.1,7.4 41.4,-8.5 40.7,-12.9 C50.8,-12.9 55.1,-5.9 56,-1.1 C56.1,-0.3 56.3,0.8 56.3,2 C56.3,9.2 53.3,16.4 46.2,19.3 M32.3,87.7 C30.1,87.7 28.6,86.3 28.6,84.2 C28.6,82.2 29.5,80.6 31.2,79.6 C31.6,79.8 31.7,79.8 32,80 C33.2,80.6 33.2,80.6 33.4,80.8 C35.3,81.9 36.1,82.9 36.1,84.3 C36.1,86.2 34.5,87.7 32.3,87.7 M36.1,75.7 C34.6,74.9 34.2,74.7 33.9,74.5 L33.7,74.4 C32.2,73.5 31.7,72.8 31.7,71.6 C31.7,69.8 33.1,68.5 35.1,68.5 C37,68.5 38.2,69.7 38.2,71.8 C38.2,73.4 37.6,74.5 36.1,75.7 M64,-0.2 C64,-15.3 53.3,-25.5 38.7,-25.5 C37.7,-31.5 36.8,-37.4 35.9,-43 C46.4,-54.1 53.8,-66.7 53.8,-82.5 C53.8,-91.6 51,-99 49.3,-102.6 C46.9,-107.7 44,-111.2 42.3,-111.2 C41.6,-111.2 38.4,-110 35.2,-106.1 C28.7,-98.5 26.9,-85.8 26.9,-77.4 C26.9,-72 27.4,-67.1 29.1,-55.8 C29,-55.8 23.8,-50.5 21.7,-48.7 C12.6,-40.3 0,-28.1 0,-8.2 C0,10.6 16.3,25.3 34.9,25.3 C37.8,25.3 40.5,25 42.9,24.6 C44.7,34.1 45.9,41.2 45.9,46.5 C45.9,56.9 40.5,62.4 30.4,62.4 C28,62.4 25.9,61.9 25.7,61.8 C25.6,61.8 25.4,61.7 25.4,61.6 C25.4,61.4 25.6,61.3 25.9,61.2 C30.6,60.5 35.3,56.4 35.3,50.1 C35.3,44.7 31.2,39 23.7,39 C16.7,39 12.3,44.7 12.3,51.3 C12.3,57.9 17.3,66.6 30.8,66.6 C43.7,66.6 50,59.3 50,46.5 C50,42.6 49.4,38.1 48.4,32.4 C48.1,30.4 47.6,27.3 46.9,23.5 C56.7,20.2 64,10.1 64,-0.2 M42.3,71.7 C42.3,68 38.9,66.4 35.6,66.4 C31.4,66.4 27.3,69 27.3,73.5 C27.3,75.4 28,76.8 29.4,78.2 C26.8,79.2 24.2,81.2 24.2,84.3 C24.2,87.6 27.2,89.8 31.6,89.8 C37,89.8 40.8,86.8 40.8,82.5 C40.8,80.2 39.8,78.3 38,77 C40.9,75.7 42.3,74.1 42.3,71.7"/>
<path class="Clef" transform="matrix(1.04882,0,0,1.04882,236.983,963.693)" d="M36.2,21.2 C21.9,21.2 9.7,11.2 9.7,-3.9 C9.7,-16.1 18.3,-27 27.1,-34.7 C28.8,-36.1 30.4,-37.5 31.9,-39 C32.8,-33.6 33.5,-29 34.2,-24.8 C25.1,-22.2 18.9,-12.5 18.9,-3.2 C18.9,3.9 24.4,13.5 32.4,13.5 C33.2,13.5 34.1,13.1 34.1,12.1 C34.1,11.3 33.2,10.7 31.9,9.9 C28,7.6 25.8,4.9 25.8,0.1 C25.8,-6 30.4,-10.9 36.2,-12.3 L42,20.5 C40,20.9 38.2,21.2 36.2,21.2 M33.2,-82.2 C34.2,-86.2 38.7,-96.7 43.9,-96.7 C45.4,-96.7 47.9,-91.9 47.9,-84.9 C47.9,-74.6 40.1,-66.8 33.2,-59.9 C32.6,-63.9 32.1,-67.9 32.1,-72 C32.1,-75.8 32.5,-79.1 33.2,-82.2 M46.2,19.3 C44.1,7.4 41.4,-8.5 40.7,-12.9 C50.8,-12.9 55.1,-5.9 56,-1.1 C56.1,-0.3 56.3,0.8 56.3,2 C56.3,9.2 53.3,16.4 46.2,19.3 M32.3,87.7 C30.1,87.7 28.6,86.3 28.6,84.2 C28.6,82.2 29.5,80.6 31.2,79.6 C31.6,79.8 31.7,79.8 32,80 C33.2,80.6 33.2,80.6 33.4,80.8 C35.3,81.9 36.1,82.9 36.1,84.3 C36.1,86.2 34.5,87.7 32.3,87.7 M36.1,75.7 C34.6,74.9 34.2,74.7 33.9,74.5 L33.7,74.4 C32.2,73.5 31.7,72.8 31.7,71.6 C31.7,69.8 33.1,68.5 35.1,68.5 C37,68.5 38.2,69.7 38.2,71.8 C38.2,73.4 37.6,74.5 36.1,75.7 M64,-0.2 C64,-15.3 53.3,-25.5 38.7,-25.5 C37.7,-31.5 36.8,-37.4 35.9,-43 C46.4,-54.1 53.8,-66.7 53.8,-82.5 C53.8,-91.6 51,-99 49.3,-102.6 C46.9,-107.7 44,-111.2 42.3,-111.2 C41.6,-111.2 38.4,-110 35.2,-106.1 C28.7,-98.5 26.9,-85.8 26.9,-77.4 C26.9,-72 27.4,-67.1 29.1,-55.8 C29,-55.8 23.8,-50.5 21.7,-48.7 C12.6,-40.3 0,-28.1 0,-8.2 C0,10.6 16.3,25.3 34.9,25.3 C37.8,25.3 40.5,25 42.9,24.6 C44.7,34.1 45.9,41.2 45.9,46.5 C45.9,56.9 40.5,62.4 30.4,62.4 C28,62.4 25.9,61.9 25.7,61.8 C25.6,61.8 25.4,61.7 25.4,61.6 C25.4,61.4 25.6,61.3 25.9,61.2 C30.6,60.5 35.3,56.4 35.3,50.1 C35.3,44.7 31.2,39 23.7,39 C16.7,39 12.3,44.7 12.3,51.3 C12.3,57.9 17.3,66.6 30.8,66.6 C43.7,66.6 50,59.3 50,46.5 C50,42.6 49.4,38.1 48.4,32.4 C48.1,30.4 47.6,27.3 46.9,23.5 C56.7,20.2 64,10.1 64,-0.2 M42.3,71.7 C42.3,68 38.9,66.4 35.6,66.4 C31.4,66.4 27.3,69 27.3,73.5 C27.3,75.4 28,76.8 29.4,78.2 C26.8,79.2 24.2,81.2 24.2,84.3 C24.2,87.6 27.2,89.8 31.6,89.8 C37,89.8 40.8,86.8 40.8,82.5 C40.8,80.2 39.8,78.3 38,77 C40.9,75.7 42.3,74.1 42.3,71.7"/>
<path class="Clef" transform="matrix(1.04882,0,0,1.04882,236.983,1239.01)" d="M36.2,21.2 C21.9,21.2 9.7,11.2 9.7,-3.9 C9.7,-16.1 18.3,-27 27.1,-34.7 C28.8,-36.1 30.4,-37.5 31.9,-39 C32.8,-33.6 33.5,-29 34.2,-24.8 C25.1,-22.2 18.9,-12.5 18.9,-3.2 C18.9,3.9 24.4,13.5 32.4,13.5 C33.2,13.5 34.1,13.1 34.1,12.1 C34.1,11.3 33.2,10.7 31.9,9.9 C28,7.6 25.8,4.9 25.8,0.1 C25.8,-6 30.4,-10.9 36.2,-12.3 L42,20.5 C40,20.9 38.2,21.2 36.2,21.2 M33.2,-82.2 C34.2,-86.2 38.7,-96.7 43.9,-96.7 C45.4,-96.7 47.9,-91.9 47.9,-84.9 C47.9,-74.6 40.1,-66.8 33.2,-59.9 C32.6,-63.9 32.1,-67.9 32.1,-72 C32.1,-75.8 32.5,-79.1 33.2,-82.2 M46.2,19.3 C44.1,7.4 41.4,-8.5 40.7,-12.9 C50.8,-12.9 55.1,-5.9 56,-1.1 C56.1,-0.3 56.3,0.8 56.3,2 C56.3,9.2 53.3,16.4 46.2,19.3 M32.3,87.7 C30.1,87.7 28.6,86.3 28.6,84.2 C28.6,82.2 29.5,80.6 31.2,79.6 C31.6,79.8 31.7,79.8 32,80 C33.2,80.6 33.2,80.6 33.4,80.8 C35.3,81.9 36.1,82.9 36.1,84.3 C36.1,86.2 34.5,87.7 32.3,87.7 M36.1,75.7 C34.6,74.9 34.2,74.7 33.9,74.5 L33.7,74.4 C32.2,73.5 31.7,72.8 31.7,71.6 C31.7,69.8 33.1,68.5 35.1,68.5 C37,68.5 38.2,69.7 38.2,71.8 C38.2,73.4 37.6,74.5 36.1,75.7 M64,-0.2 C64,-15.3 53.3,-25.5 38.7,-25.5 C37.7,-31.5 36.8,-37.4 35.9,-43 C46.4,-54.1 53.8,-66.7 53.8,-82.5 C53.8,-91.6 51,-99 49.3,-102.6 C46.9,-107.7 44,-111.2 42.3,-111.2 C41.6,-111.2 38.4,-110 35.2,-106.1 C28.7,-98.5 26.9,-85.8 26.9,-77.4 C26.9,-72 27.4,-67.1 29.1,-55.8 C29,-55.8 23.8,-50.5 21.7,-48.7 C12.6,-40.3 0,-28.1 0,-8.2 C0,10.6 16.3,25.3 34.9,25.3 C37.8,25.3 40.5,25 42.9,24.6 C44.7,34.1 45.9,41.2 45.9,46.5 C45.9,56.9 40.5,62.4 30.4,62.4 C28,62.4 25.9,61.9 25.7,61.8 C25.6,61.8 25.4,61.7 25.4,61.6 C25.4,61.4 25.6,61.3 25.9,61.2 C30.6,60.5 35.3,56.4 35.3,50.1 C35.3,44.7 31.2,39 23.7,39 C16.7,39 12.3,44.7 12.3,51.3 C12.3,57.9 17.3,66.6 30.8,66.6 C43.7,66.6 50,59.3 50,46.5 C50,42.6 49.4,38.1 48.4,32.4 C48.1,30.4 47.6,27.3 46.9,23.5 C56.7,20.2 64,10.1 64,-0.2 M42.3,71.7 C42.3,68 38.9,66.4 35.6,66.4 C31.4,66.4 27.3,69 27.3,73.5 C27.3,75.4 28,76.8 29.4,78.2 C26.8,79.2 24.2,81.2 24.2,84.3 C24.2,87.6 27.2,89.8 31.6,89.8 C37,89.8 40.8,86.8 40.8,82.5 C40.8,80.2 39.8,78.3 38,77 C40.9,75.7 42.3,74.1 42.3,71.7"/>
<path class="Clef" transform="matrix(1.04882,0,0,1.04882,236.983,635.937)" d="M36.2,21.2 C21.9,21.2 9.7,11.2 9.7,-3.9 C9.7,-16.1 18.3,-27 27.1,-34.7 C28.8,-36.1 30.4,-37.5 31.9,-39 C32.8,-33.6 33.5,-29 34.2,-24.8 C25.1,-22.2 18.9,-12.5 18.9,-3.2 C18.9,3.9 24.4,13.5 32.4,13.5 C33.2,13.5 34.1,13.1 34.1,12.1 C34.1,11.3 33.2,10.7 31.9,9.9 C28,7.6 25.8,4.9 25.8,0.1 C25.8,-6 30.4,-10.9 36.2,-12.3 L42,20.5 C40,20.9 38.2,21.2 36.2,21.2 M33.2,-82.2 C34.2,-86.2 38.7,-96.7 43.9,-96.7 C45.4,-96.7 47.9,-91.9 47.9,-84.9 C47.9,-74.6 40.1,-66.8 33.2,-59.9 C32.6,-63.9 32.1,-67.9 32.1,-72 C32.1,-75.8 32.5,-79.1 33.2,-82.2 M46.2,19.3 C44.1,7.4 41.4,-8.5 40.7,-12.9 C50.8,-12.9 55.1,-5.9 56,-1.1 C56.1,-0.3 56.3,0.8 56.3,2 C56.3,9.2 53.3,16.4 46.2,19.3 M32.3,87.7 C30.1,87.7 28.6,86.3 28.6,84.2 C28.6,82.2 29.5,80.6 31.2,79.6 C31.6,79.8 31.7,79.8 32,80 C33.2,80.6 33.2,80.6 33.4,80.8 C35.3,81.9 36.1,82.9 36.1,84.3 C36.1,86.2 34.5,87.7 32.3,87.7 M36.1,75.7 C34.6,74.9 34.2,74.7 33.9,74.5 L33.7,74.4 C32.2,73.5 31.7,72.8 31.7,71.6 C31.7,69.8 33.1,68.5 35.1,68.5 C37,68.5 38.2,69.7 38.2,71.8 C38.2,73.4 37.6,74.5 36.1,75.7 M64,-0.2 C64,-15.3 53.3,-25.5 38.7,-25.5 C37.7,-31.5 36.8,-37.4 35.9,-43 C46.4,-54.1 53.8,-66.7 53.8,-82.5 C53.8,-91.6 51,-99 49.3,-102.6 C46.9,-107.7 44,-111.2 42.3,-111.2 C41.6,-111.2 38.4,-110 35.2,-106.1 C28.7,-98.5 26.9,-85.8 26.9,-77.4 C26.9,-72 27.4,-67.1 29.1,-55.8 C29,-55.8 23.8,-50.5 21.7,-48.7 C12.6,-40.3 0,-28.1 0,-8.2 C0,10.6 16.3,25.3 34.9,25.3 C37.8,25.3 40.5,25 42.9,24.6 C44.7,34.1 45.9,41.2 45.9,46.5 C45.9,56.9 40.5,62.4 30.4,62.4 C28,62.4 25.9,61.9 25.7,61.8 C25.6,61.8 25.4,61.7 25.4,61.6 C25.4,61.4 25.6,61.3 25.9,61.2 C30.6,60.5 35.3,56.4 35.3,50.1 C35.3,44.7 31.2,39 23.7,39 C16.7,39 12.3,44.7 12.3,51.3 C12.3,57.9 17.3,66.6 30.8,66.6 C43.7,66.6 50,59.3 50,46.5 C50,42.6 49.4,38.1 48.4,32.4 C48.1,30.4 47.6,27.3 46.9,23.5 C56.7,20.2 64,10.1 64,-0.2 M42.3,71.7 C42.3,68 38.9,66.4 35.6,66.4 C31.4,66.4 27.3,69 27.3,73.5 C27.3,75.4 28,76.8 29.4,78.2 C26.8,79.2 24.2,81.2 24.2,84.3 C24.2,87.6 27.2,89.8 31.6,89.8 C37,89.8 40.8,86.8 40.8,82.5 C40.8,80.2 39.8,78.3 38,77 C40.9,75.7 42.3,74.1 42.3,71.7"/>
<path class="Rest" transform="matrix(1.04882,0,0,1.04882,1841.64,1212.79)" d="M26.7,-20.3 C26.6,-20.3 26.4,-20.4 26.3,-20.4 C25.7,-20.4 25.2,-20.1 25,-19.6 C24.6,-19 21.5,-13.1 17,-9.8 C15.7,-8.8 14.1,-8.1 12.5,-7.8 C13.6,-9.1 14.3,-10.7 14.3,-12.6 C14.3,-16.5 11.1,-19.7 7.2,-19.7 C3.2,-19.7 0,-16.5 0,-12.6 C0,-7.2 5.3,-4.7 10,-4.7 C15.3,-4.7 18.8,-7.2 22.2,-10.9 L10.8,24.7 L13.5,25.5 L27.5,-18.6 C27.6,-18.7 27.6,-18.9 27.6,-19.1 C27.6,-19.6 27.3,-20 26.7,-20.3"/>
<path class="Beam" fill-rule="evenodd" d="M1294.26,399.924 L1435.71,413.035 L1435.71,426.201 L1294.26,413.091 L1294.26,399.924 "/>
<path class="Beam" fill-rule="evenodd" d="M1296.26,1003 L1437.7,1016.11 L1437.7,1029.27 L1296.26,1016.16 L1296.26,1003 "/>
<path class="Beam" fill-rule="evenodd" d="M1142.25,865.357 L1268.52,858.802 L1268.52,871.93 L1142.25,878.485 L1142.25,865.357 "/>
<path class="Beam" fill-rule="evenodd" d="M1925.55,1016.13 L2068.01,1009.57 L2068.01,1022.7 L1925.55,1029.25 L1925.55,1016.13 "/>
<path class="Beam" fill-rule="evenodd" d="M1142.19,262.286 L1267.17,255.731 L1267.17,268.859 L1142.19,275.414 L1142.19,262.286 "/>
<path class="Beam" fill-rule="evenodd" d="M1110.78,1278.3 L1237.05,1291.41 L1237.05,1304.59 L1110.78,1291.48 L1110.78,1278.3 "/>
<path class="Beam" fill-rule="evenodd" d="M2166.77,1186.56 L2309.24,1180 L2309.24,1193.13 L2166.77,1199.68 L2166.77,1186.56 "/>
<path class="Beam" fill-rule="evenodd" d="M1535.49,537.603 L1676.94,531.048 L1676.94,544.172 L1535.49,550.727 L1535.49,537.603 "/>
<path class="Beam" fill-rule="evenodd" d="M1110.72,675.231 L1235.7,688.342 L1235.7,701.524 L1110.72,688.414 L1110.72,675.231 "/>
<path class="Beam" fill-rule="evenodd" d="M2376.54,1140.67 L2517.98,1134.12 L2517.98,1147.24 L2376.54,1153.8 L2376.54,1140.67 "/>
<path class="Beam" fill-rule="evenodd" d="M1537.48,1140.67 L1678.93,1134.12 L1678.93,1147.24 L1537.48,1153.8 L1537.48,1140.67 "/>
<path class="Lyrics" d="M749.59,1319.66 L740.594,1320.23 L740.594,1322.47 L742.466,1322.47 C744.442,1322.52 744.702,1322.83 744.702,1325.07 L744.702,1350.49 C744.65,1351.22 744.598,1351.53 744.39,1351.79 C744.026,1352.26 743.038,1352.47 740.802,1352.52 L740.594,1352.52 L740.594,1354.39 L754.114,1354.39 L754.114,1352.52 L753.542,1352.52 C750.058,1352.42 749.59,1352.16 749.59,1350.29 L749.59,1340.46 C751.306,1343.47 753.23,1344.67 756.454,1344.67 C763.37,1344.67 766.958,1337.86 766.958,1331.67 C766.958,1325.79 763.37,1318.88 756.766,1318.88 C753.542,1318.88 751.41,1320.23 749.59,1323.35 L749.59,1319.66 M755.83,1321.69 C759.418,1321.69 761.498,1325.27 761.498,1331.36 C761.498,1338.07 759.418,1341.86 755.674,1341.86 C751.93,1341.86 749.538,1338.01 749.538,1332.03 C749.538,1325.53 751.878,1321.69 755.83,1321.69 M793.162,1332.19 C793.214,1324.39 788.794,1318.88 782.45,1318.88 C775.794,1318.88 770.802,1324.65 770.802,1332.45 C770.802,1339.78 775.534,1344.67 782.554,1344.67 C787.546,1344.67 791.03,1342.23 793.162,1337.29 L791.342,1336.3 C789.21,1340.3 787.026,1341.86 783.542,1341.86 C780.89,1341.86 778.966,1340.77 777.614,1338.43 C776.678,1336.87 776.262,1335.05 776.314,1332.19 L793.162,1332.19 M776.366,1329.95 C776.366,1326.31 778.03,1321.11 782.398,1321.11 C785.518,1321.11 787.598,1323.87 787.598,1328.08 C787.598,1329.54 787.13,1329.95 785.466,1329.95 L776.366,1329.95 M804.34,1305.57 L794.72,1306.14 L794.72,1308.37 L797.268,1308.37 C799.192,1308.43 799.452,1308.74 799.452,1310.97 L799.452,1339.94 C799.4,1340.72 799.348,1341.03 799.14,1341.29 C798.776,1341.76 797.788,1341.97 795.552,1342.02 L795.188,1342.02 L795.188,1343.89 L808.656,1343.89 L808.656,1342.02 L808.292,1342.02 C804.808,1341.91 804.34,1341.65 804.34,1339.78 L804.34,1305.57 "/>
<path class="Lyrics" d="M379.783,734.527 L373.855,720.799 C373.699,720.383 373.595,719.967 373.595,719.655 C373.595,718.771 374.271,718.459 376.403,718.459 L377.131,718.459 L377.131,716.587 L364.859,716.587 L364.859,718.459 L365.275,718.459 C367.251,718.459 367.979,718.979 368.707,720.695 L377.651,741.599 L379.471,741.599 L386.855,723.347 C388.311,719.811 389.559,718.615 391.691,718.459 L391.899,718.459 L391.899,716.587 L381.499,716.587 L381.499,718.459 L382.227,718.459 C384.047,718.459 385.035,719.083 385.035,720.279 C385.035,720.903 384.879,721.683 384.567,722.463 L379.783,734.527 M401.68,703.639 C400.016,703.639 398.664,704.991 398.664,706.655 C398.664,708.319 400.016,709.671 401.628,709.671 C403.344,709.671 404.696,708.319 404.696,706.655 C404.696,704.991 403.344,703.639 401.68,703.639 M404.124,716.587 L394.348,717.159 L394.348,719.395 L397,719.395 C398.976,719.447 399.236,719.759 399.236,721.995 L399.236,736.867 C399.184,737.647 399.132,737.959 398.924,738.219 C398.56,738.687 397.572,738.895 395.336,738.947 L394.972,738.947 L394.972,740.819 L408.44,740.819 L408.44,738.947 L408.076,738.947 C404.592,738.843 404.124,738.583 404.124,736.711 L404.124,716.587 "/>
<path class="Lyrics" d="M462.194,716.587 L462.194,706.291 L460.062,706.291 C459.542,713.051 457.254,716.483 453.042,716.795 L453.042,718.823 L457.306,718.823 L457.306,732.083 C457.306,735.723 457.41,737.023 457.93,738.219 C458.762,740.403 460.842,741.599 463.858,741.599 C468.538,741.599 471.554,738.063 471.554,732.551 C471.554,732.239 471.554,731.875 471.502,731.355 L469.318,731.355 C469.162,736.035 467.81,738.427 465.262,738.427 C464.066,738.427 463.026,737.803 462.662,736.919 C462.35,736.191 462.194,734.891 462.194,733.019 L462.194,718.823 L469.838,718.823 L469.838,716.587 L462.194,716.587 M493.702,741.183 L503.166,740.819 L503.166,738.583 L501.866,738.583 C498.85,738.479 498.59,738.167 498.59,734.787 L498.59,716.587 L488.814,717.159 L488.814,719.395 L491.466,719.395 C493.442,719.447 493.702,719.759 493.702,721.995 L493.702,728.391 C493.702,732.915 492.61,738.427 486.89,738.427 C485.278,738.427 483.926,737.855 483.25,736.815 C482.574,735.827 482.47,735.307 482.47,732.447 L482.47,716.587 L473.37,717.159 L473.37,719.395 L475.346,719.395 C477.322,719.447 477.582,719.759 477.582,721.995 L477.582,733.227 C477.582,735.879 477.79,737.075 478.57,738.271 C479.974,740.403 482.47,741.599 485.59,741.599 C489.022,741.599 491.414,740.195 493.702,736.867 L493.702,741.183 "/>
<path class="Lyrics" d="M379.958,1336.25 C378.294,1339.99 376.526,1341.5 373.822,1341.5 C369.662,1341.5 367.062,1337.7 367.062,1331.62 C367.062,1325.27 369.61,1321.11 373.458,1321.11 C375.018,1321.11 376.37,1321.84 376.37,1322.67 C376.37,1322.83 376.318,1322.99 376.058,1323.3 C375.226,1324.29 375.018,1324.81 375.018,1325.69 C375.018,1327.41 376.318,1328.6 378.138,1328.6 C380.01,1328.6 381.31,1327.15 381.31,1325.07 C381.31,1321.53 377.826,1318.88 373.198,1318.88 C366.438,1318.88 361.602,1324.39 361.602,1332.19 C361.602,1339.57 366.022,1344.67 372.47,1344.67 C377.098,1344.67 379.75,1342.54 381.986,1337.03 L379.958,1336.25 M406.463,1327.15 C406.463,1323.87 405.891,1322.21 404.383,1320.96 C402.667,1319.55 400.119,1318.88 396.791,1318.88 C390.915,1318.88 386.651,1321.63 386.651,1325.43 C386.651,1327.35 387.847,1328.6 389.667,1328.6 C391.331,1328.6 392.475,1327.51 392.475,1325.95 C392.475,1325.27 392.215,1324.55 391.695,1323.82 C391.383,1323.45 391.331,1323.35 391.331,1323.09 C391.331,1322.05 393.411,1321.11 395.907,1321.11 C397.571,1321.11 399.391,1321.63 400.223,1322.41 C401.211,1323.25 401.575,1324.49 401.575,1326.83 L401.575,1328.86 C396.167,1329.8 394.451,1330.21 391.903,1331.2 C387.379,1332.87 385.247,1335.26 385.247,1338.59 C385.247,1342.33 388.159,1344.67 392.787,1344.67 C396.375,1344.67 399.599,1343.21 401.835,1340.56 C402.667,1343.21 403.967,1344.25 406.411,1344.25 C408.751,1344.25 411.195,1342.75 411.195,1341.24 C411.195,1340.87 410.987,1340.61 410.675,1340.61 C410.467,1340.61 410.259,1340.67 409.895,1340.82 C409.167,1341.13 408.855,1341.19 408.439,1341.19 C406.983,1341.19 406.463,1340.25 406.463,1337.6 L406.463,1327.15 M401.575,1333.49 C401.575,1336.61 401.419,1337.34 400.535,1338.69 C399.235,1340.61 396.895,1341.91 394.607,1341.91 C392.215,1341.91 390.499,1340.2 390.499,1337.86 C390.499,1335.67 391.591,1334.11 393.879,1333.02 C395.491,1332.29 397.519,1331.77 401.575,1331.1 L401.575,1333.49 "/>
<path class="Lyrics" d="M449.883,1319.66 L440.887,1320.23 L440.887,1322.47 L442.759,1322.47 C444.735,1322.52 444.995,1322.83 444.995,1325.07 L444.995,1350.49 C444.943,1351.22 444.891,1351.53 444.683,1351.79 C444.319,1352.26 443.331,1352.47 441.095,1352.52 L440.887,1352.52 L440.887,1354.39 L454.407,1354.39 L454.407,1352.52 L453.835,1352.52 C450.351,1352.42 449.883,1352.16 449.883,1350.29 L449.883,1340.46 C451.599,1343.47 453.523,1344.67 456.747,1344.67 C463.663,1344.67 467.251,1337.86 467.251,1331.67 C467.251,1325.79 463.663,1318.88 457.059,1318.88 C453.835,1318.88 451.703,1320.23 449.883,1323.35 L449.883,1319.66 M456.123,1321.69 C459.711,1321.69 461.791,1325.27 461.791,1331.36 C461.791,1338.07 459.711,1341.86 455.967,1341.86 C452.223,1341.86 449.831,1338.01 449.831,1332.03 C449.831,1325.53 452.171,1321.69 456.123,1321.69 M493.454,1332.19 C493.506,1324.39 489.086,1318.88 482.742,1318.88 C476.086,1318.88 471.094,1324.65 471.094,1332.45 C471.094,1339.78 475.826,1344.67 482.846,1344.67 C487.838,1344.67 491.322,1342.23 493.454,1337.29 L491.634,1336.3 C489.502,1340.3 487.318,1341.86 483.834,1341.86 C481.182,1341.86 479.258,1340.77 477.906,1338.43 C476.97,1336.87 476.554,1335.05 476.606,1332.19 L493.454,1332.19 M476.658,1329.95 C476.658,1326.31 478.322,1321.11 482.69,1321.11 C485.81,1321.11 487.89,1323.87 487.89,1328.08 C487.89,1329.54 487.422,1329.95 485.758,1329.95 L476.658,1329.95 M505.57,1319.66 L496.366,1320.23 L496.366,1322.47 L498.498,1322.47 C500.474,1322.52 500.734,1322.83 500.734,1325.07 L500.734,1339.94 C500.682,1340.72 500.63,1341.03 500.422,1341.29 C500.058,1341.76 499.018,1341.97 496.782,1342.02 L496.574,1342.02 L496.574,1343.89 L510.458,1343.89 L510.458,1342.02 L509.522,1342.02 C506.038,1341.91 505.57,1341.65 505.57,1339.78 L505.57,1336.97 C505.622,1328.24 508.742,1321.58 512.798,1321.37 C512.07,1322.21 511.862,1322.73 511.862,1323.71 C511.862,1325.38 513.058,1326.57 514.722,1326.57 C516.646,1326.57 517.894,1325.17 517.894,1323.09 C517.894,1320.54 516.126,1318.88 513.37,1318.88 C510.094,1318.88 507.286,1321.48 505.57,1326.11 L505.57,1319.66 "/>
<path class="Lyrics" d="M557.876,702.495 L548.256,703.067 L548.256,705.303 L550.804,705.303 C552.728,705.355 552.988,705.667 552.988,707.903 L552.988,736.867 C552.936,737.647 552.884,737.959 552.676,738.219 C552.312,738.687 551.324,738.895 549.088,738.947 L548.724,738.947 L548.724,740.819 L562.192,740.819 L562.192,738.947 L561.828,738.947 C558.344,738.843 557.876,738.583 557.876,736.711 L557.876,702.495 M587.147,724.075 C587.147,720.799 586.575,719.135 585.067,717.887 C583.351,716.483 580.803,715.807 577.475,715.807 C571.599,715.807 567.335,718.563 567.335,722.359 C567.335,724.283 568.531,725.531 570.351,725.531 C572.015,725.531 573.159,724.439 573.159,722.879 C573.159,722.203 572.899,721.475 572.379,720.747 C572.067,720.383 572.015,720.279 572.015,720.019 C572.015,718.979 574.095,718.043 576.591,718.043 C578.255,718.043 580.075,718.563 580.907,719.343 C581.895,720.175 582.259,721.423 582.259,723.763 L582.259,725.791 C576.851,726.727 575.135,727.143 572.587,728.131 C568.063,729.795 565.931,732.187 565.931,735.515 C565.931,739.259 568.843,741.599 573.471,741.599 C577.059,741.599 580.283,740.143 582.519,737.491 C583.351,740.143 584.651,741.183 587.095,741.183 C589.435,741.183 591.879,739.675 591.879,738.167 C591.879,737.803 591.671,737.543 591.359,737.543 C591.151,737.543 590.943,737.595 590.579,737.751 C589.851,738.063 589.539,738.115 589.123,738.115 C587.667,738.115 587.147,737.179 587.147,734.527 L587.147,724.075 M582.259,730.419 C582.259,733.539 582.103,734.267 581.219,735.619 C579.919,737.543 577.579,738.843 575.291,738.843 C572.899,738.843 571.183,737.127 571.183,734.787 C571.183,732.603 572.275,731.043 574.563,729.951 C576.175,729.223 578.203,728.703 582.259,728.027 L582.259,730.419 "/>
<path class="Lyrics" d="M661.364,733.175 C659.7,736.919 657.932,738.427 655.228,738.427 C651.068,738.427 648.468,734.631 648.468,728.547 C648.468,722.203 651.016,718.043 654.864,718.043 C656.424,718.043 657.776,718.771 657.776,719.603 C657.776,719.759 657.724,719.915 657.464,720.227 C656.632,721.215 656.424,721.735 656.424,722.619 C656.424,724.335 657.724,725.531 659.544,725.531 C661.416,725.531 662.716,724.075 662.716,721.995 C662.716,718.459 659.232,715.807 654.604,715.807 C647.844,715.807 643.008,721.319 643.008,729.119 C643.008,736.503 647.428,741.599 653.876,741.599 C658.504,741.599 661.156,739.467 663.392,733.955 L661.364,733.175 M685.898,741.183 L695.362,740.819 L695.362,738.583 L694.062,738.583 C691.046,738.479 690.786,738.167 690.786,734.787 L690.786,716.587 L681.01,717.159 L681.01,719.395 L683.662,719.395 C685.638,719.447 685.898,719.759 685.898,721.995 L685.898,728.391 C685.898,732.915 684.806,738.427 679.086,738.427 C677.474,738.427 676.122,737.855 675.446,736.815 C674.77,735.827 674.666,735.307 674.666,732.447 L674.666,716.587 L665.566,717.159 L665.566,719.395 L667.542,719.395 C669.518,719.447 669.778,719.759 669.778,721.995 L669.778,733.227 C669.778,735.879 669.986,737.075 670.766,738.271 C672.17,740.403 674.666,741.599 677.786,741.599 C681.218,741.599 683.61,740.195 685.898,736.867 L685.898,741.183 M706.692,716.587 L697.436,717.159 L697.436,719.395 L699.568,719.395 C701.544,719.447 701.804,719.759 701.804,721.995 L701.804,736.867 C701.752,737.647 701.7,737.959 701.492,738.219 C701.128,738.687 700.14,738.895 697.904,738.947 L697.696,738.947 L697.696,740.819 L710.8,740.819 L710.8,738.947 L710.592,738.947 C707.16,738.843 706.692,738.583 706.692,736.659 L706.692,727.039 C706.692,722.411 709.24,718.979 712.62,718.979 C715.584,718.979 717.092,721.111 717.092,725.323 L717.092,736.919 C717.04,737.595 716.988,737.959 716.728,738.219 C716.416,738.687 715.376,738.895 713.14,738.947 L712.932,738.947 L712.932,740.819 L726.088,740.819 L726.088,738.947 L725.88,738.947 C722.448,738.843 721.98,738.583 721.98,736.711 L721.98,727.507 C721.98,722.307 724.32,718.979 727.96,718.979 C730.924,718.979 732.38,721.215 732.38,725.895 L732.38,736.867 C732.328,737.595 732.276,737.959 732.016,738.219 C731.704,738.687 730.664,738.895 728.428,738.947 L728.22,738.947 L728.22,740.819 L741.376,740.819 L741.376,738.947 L741.168,738.947 C737.736,738.843 737.268,738.583 737.268,736.659 L737.268,724.855 C737.268,721.631 736.956,720.539 735.604,718.771 C734.096,716.847 731.964,715.807 729.468,715.807 C726.088,715.807 723.592,717.419 721.356,721.007 C720.472,717.887 717.664,715.807 714.18,715.807 C711.008,715.807 708.72,717.315 706.692,720.591 L706.692,716.587 "/>
<path class="Lyrics" d="M901.325,1305.57 L891.705,1306.14 L891.705,1308.37 L894.253,1308.37 C896.177,1308.43 896.437,1308.74 896.437,1310.97 L896.437,1339.94 C896.385,1340.72 896.333,1341.03 896.125,1341.29 C895.761,1341.76 894.773,1341.97 892.537,1342.02 L892.173,1342.02 L892.173,1343.89 L905.641,1343.89 L905.641,1342.02 L905.277,1342.02 C901.793,1341.91 901.325,1341.65 901.325,1339.78 L901.325,1305.57 M930.596,1327.15 C930.596,1323.87 930.024,1322.21 928.516,1320.96 C926.8,1319.55 924.252,1318.88 920.924,1318.88 C915.048,1318.88 910.784,1321.63 910.784,1325.43 C910.784,1327.35 911.98,1328.6 913.8,1328.6 C915.464,1328.6 916.608,1327.51 916.608,1325.95 C916.608,1325.27 916.348,1324.55 915.828,1323.82 C915.516,1323.45 915.464,1323.35 915.464,1323.09 C915.464,1322.05 917.544,1321.11 920.04,1321.11 C921.704,1321.11 923.524,1321.63 924.356,1322.41 C925.344,1323.25 925.708,1324.49 925.708,1326.83 L925.708,1328.86 C920.3,1329.8 918.584,1330.21 916.036,1331.2 C911.512,1332.87 909.38,1335.26 909.38,1338.59 C909.38,1342.33 912.292,1344.67 916.92,1344.67 C920.508,1344.67 923.732,1343.21 925.968,1340.56 C926.8,1343.21 928.1,1344.25 930.544,1344.25 C932.884,1344.25 935.328,1342.75 935.328,1341.24 C935.328,1340.87 935.12,1340.61 934.808,1340.61 C934.6,1340.61 934.392,1340.67 934.028,1340.82 C933.3,1341.13 932.988,1341.19 932.572,1341.19 C931.116,1341.19 930.596,1340.25 930.596,1337.6 L930.596,1327.15 M925.708,1333.49 C925.708,1336.61 925.552,1337.34 924.668,1338.69 C923.368,1340.61 921.028,1341.91 918.74,1341.91 C916.348,1341.91 914.632,1340.2 914.632,1337.86 C914.632,1335.67 915.724,1334.11 918.012,1333.02 C919.624,1332.29 921.652,1331.77 925.708,1331.1 L925.708,1333.49 "/>
<path class="Lyrics" d="M987.878,702.495 L978.258,703.067 L978.258,705.303 L980.806,705.303 C982.73,705.355 982.99,705.667 982.99,707.903 L982.99,736.867 C982.938,737.647 982.886,737.959 982.678,738.219 C982.314,738.687 981.326,738.895 979.09,738.947 L978.726,738.947 L978.726,740.819 L992.194,740.819 L992.194,738.947 L991.83,738.947 C988.346,738.843 987.878,738.583 987.878,736.711 L987.878,702.495 M1006.75,715.807 C1000.35,715.807 995.413,721.475 995.413,728.755 C995.413,735.879 1000.41,741.599 1006.65,741.599 C1012.89,741.599 1017.88,735.879 1017.88,728.703 C1017.88,721.579 1012.89,715.807 1006.75,715.807 M1006.75,718.043 C1010.39,718.043 1012.42,721.839 1012.42,728.703 C1012.42,735.619 1010.39,739.363 1006.65,739.363 C1002.9,739.363 1000.87,735.619 1000.87,728.755 C1000.87,721.683 1002.85,718.043 1006.75,718.043"/>
<path class="Lyrics" d="M573.176,1332.19 C573.228,1324.39 568.808,1318.88 562.464,1318.88 C555.808,1318.88 550.816,1324.65 550.816,1332.45 C550.816,1339.78 555.548,1344.67 562.568,1344.67 C567.56,1344.67 571.044,1342.23 573.176,1337.29 L571.356,1336.3 C569.224,1340.3 567.04,1341.86 563.556,1341.86 C560.904,1341.86 558.98,1340.77 557.628,1338.43 C556.692,1336.87 556.276,1335.05 556.328,1332.19 L573.176,1332.19 M556.38,1329.95 C556.38,1326.31 558.044,1321.11 562.412,1321.11 C565.532,1321.11 567.612,1323.87 567.612,1328.08 C567.612,1329.54 567.144,1329.95 565.48,1329.95 L556.38,1329.95 M584.037,1319.66 L584.037,1309.36 L581.905,1309.36 C581.385,1316.12 579.097,1319.55 574.885,1319.87 L574.885,1321.89 L579.149,1321.89 L579.149,1335.15 C579.149,1338.79 579.253,1340.09 579.773,1341.29 C580.605,1343.47 582.685,1344.67 585.701,1344.67 C590.381,1344.67 593.397,1341.13 593.397,1335.62 C593.397,1335.31 593.397,1334.95 593.345,1334.43 L591.161,1334.43 C591.005,1339.11 589.653,1341.5 587.105,1341.5 C585.909,1341.5 584.869,1340.87 584.505,1339.99 C584.193,1339.26 584.037,1337.96 584.037,1336.09 L584.037,1321.89 L591.681,1321.89 L591.681,1319.66 L584.037,1319.66 "/>
<path class="Lyrics" d="M658.17,1336.25 C656.506,1339.99 654.738,1341.5 652.034,1341.5 C647.874,1341.5 645.274,1337.7 645.274,1331.62 C645.274,1325.27 647.822,1321.11 651.67,1321.11 C653.23,1321.11 654.582,1321.84 654.582,1322.67 C654.582,1322.83 654.53,1322.99 654.27,1323.3 C653.438,1324.29 653.23,1324.81 653.23,1325.69 C653.23,1327.41 654.53,1328.6 656.35,1328.6 C658.222,1328.6 659.522,1327.15 659.522,1325.07 C659.522,1321.53 656.038,1318.88 651.41,1318.88 C644.65,1318.88 639.814,1324.39 639.814,1332.19 C639.814,1339.57 644.234,1344.67 650.682,1344.67 C655.31,1344.67 657.962,1342.54 660.198,1337.03 L658.17,1336.25 M684.675,1327.15 C684.675,1323.87 684.103,1322.21 682.595,1320.96 C680.879,1319.55 678.331,1318.88 675.003,1318.88 C669.127,1318.88 664.863,1321.63 664.863,1325.43 C664.863,1327.35 666.059,1328.6 667.879,1328.6 C669.543,1328.6 670.687,1327.51 670.687,1325.95 C670.687,1325.27 670.427,1324.55 669.907,1323.82 C669.595,1323.45 669.543,1323.35 669.543,1323.09 C669.543,1322.05 671.623,1321.11 674.119,1321.11 C675.783,1321.11 677.603,1321.63 678.435,1322.41 C679.423,1323.25 679.787,1324.49 679.787,1326.83 L679.787,1328.86 C674.379,1329.8 672.663,1330.21 670.115,1331.2 C665.591,1332.87 663.459,1335.26 663.459,1338.59 C663.459,1342.33 666.371,1344.67 670.999,1344.67 C674.587,1344.67 677.811,1343.21 680.047,1340.56 C680.879,1343.21 682.179,1344.25 684.623,1344.25 C686.963,1344.25 689.407,1342.75 689.407,1341.24 C689.407,1340.87 689.199,1340.61 688.887,1340.61 C688.679,1340.61 688.471,1340.67 688.107,1340.82 C687.379,1341.13 687.067,1341.19 686.651,1341.19 C685.195,1341.19 684.675,1340.25 684.675,1337.6 L684.675,1327.15 M679.787,1333.49 C679.787,1336.61 679.631,1337.34 678.747,1338.69 C677.447,1340.61 675.107,1341.91 672.819,1341.91 C670.427,1341.91 668.711,1340.2 668.711,1337.86 C668.711,1335.67 669.803,1334.11 672.091,1333.02 C673.703,1332.29 675.731,1331.77 679.787,1331.1 L679.787,1333.49 "/>
<path class="Lyrics" d="M890.461,716.587 L890.461,706.291 L888.329,706.291 C887.809,713.051 885.521,716.483 881.309,716.795 L881.309,718.823 L885.573,718.823 L885.573,732.083 C885.573,735.723 885.677,737.023 886.197,738.219 C887.029,740.403 889.109,741.599 892.125,741.599 C896.805,741.599 899.821,738.063 899.821,732.551 C899.821,732.239 899.821,731.875 899.769,731.355 L897.585,731.355 C897.429,736.035 896.077,738.427 893.529,738.427 C892.333,738.427 891.293,737.803 890.929,736.919 C890.617,736.191 890.461,734.891 890.461,733.019 L890.461,718.823 L898.105,718.823 L898.105,716.587 L890.461,716.587 M921.969,741.183 L931.433,740.819 L931.433,738.583 L930.133,738.583 C927.117,738.479 926.857,738.167 926.857,734.787 L926.857,716.587 L917.081,717.159 L917.081,719.395 L919.733,719.395 C921.709,719.447 921.969,719.759 921.969,721.995 L921.969,728.391 C921.969,732.915 920.877,738.427 915.157,738.427 C913.545,738.427 912.193,737.855 911.517,736.815 C910.841,735.827 910.737,735.307 910.737,732.447 L910.737,716.587 L901.637,717.159 L901.637,719.395 L903.613,719.395 C905.589,719.447 905.849,719.759 905.849,721.995 L905.849,733.227 C905.849,735.879 906.057,737.075 906.837,738.271 C908.241,740.403 910.737,741.599 913.857,741.599 C917.289,741.599 919.681,740.195 921.969,736.867 L921.969,741.183 "/>
<path class="Lyrics" d="M777.461,734.527 L771.533,720.799 C771.377,720.383 771.273,719.967 771.273,719.655 C771.273,718.771 771.949,718.459 774.081,718.459 L774.809,718.459 L774.809,716.587 L762.537,716.587 L762.537,718.459 L762.953,718.459 C764.929,718.459 765.657,718.979 766.385,720.695 L775.329,741.599 L777.149,741.599 L784.533,723.347 C785.989,719.811 787.237,718.615 789.369,718.459 L789.577,718.459 L789.577,716.587 L779.177,716.587 L779.177,718.459 L779.905,718.459 C781.725,718.459 782.713,719.083 782.713,720.279 C782.713,720.903 782.557,721.683 782.245,722.463 L777.461,734.527 M799.357,703.639 C797.693,703.639 796.341,704.991 796.341,706.655 C796.341,708.319 797.693,709.671 799.305,709.671 C801.021,709.671 802.373,708.319 802.373,706.655 C802.373,704.991 801.021,703.639 799.357,703.639 M801.801,716.587 L792.025,717.159 L792.025,719.395 L794.677,719.395 C796.653,719.447 796.913,719.759 796.913,721.995 L796.913,736.867 C796.861,737.647 796.809,737.959 796.601,738.219 C796.237,738.687 795.249,738.895 793.013,738.947 L792.649,738.947 L792.649,740.819 L806.117,740.819 L806.117,738.947 L805.753,738.947 C802.269,738.843 801.801,738.583 801.801,736.711 L801.801,716.587 "/>
<polyline class="TextLineSegment" fill="none" stroke="#000000" stroke-width="3.69" stroke-linejoin="miter" stroke-miterlimit="2" points="1995.47,865.235 1995.47,839.014 2318.85,839.014 2318.85,865.235" />
<polyline class="TextLineSegment" fill="none" stroke="#000000" stroke-width="3.69" stroke-linejoin="miter" stroke-miterlimit="2" points="1644.84,865.235 1644.84,839.014 1815.42,839.014 1815.42,865.235" />
<polyline class="TextLineSegment" fill="none" stroke="#000000" stroke-width="3.69" stroke-linejoin="miter" stroke-miterlimit="2" points="1841.64,865.235 1841.64,839.014 1969.25,839.014 1969.25,865.235" />
<polyline class="TextLineSegment" fill="none" stroke="#000000" stroke-width="3.69" stroke-linejoin="miter" stroke-miterlimit="2" points="1233.08,240.663 1233.08,214.443 1616.63,214.443 1616.63,240.663" />
<polyline class="TextLineSegment" fill="none" stroke="#000000" stroke-width="3.69" stroke-linejoin="miter" stroke-miterlimit="2" points="553.186,262.164 553.186,235.943 649.328,235.943 649.328,262.164" />
<polyline class="TextLineSegment" fill="none" stroke="#000000" stroke-width="3.69" stroke-linejoin="miter" stroke-miterlimit="2" points="767.32,262.164 767.32,235.943 863.462,235.943 863.462,262.164" />
<polyline class="TextLineSegment" fill="none" stroke="#000000" stroke-width="3.69" stroke-linejoin="miter" stroke-miterlimit="2" points="1110.72,240.663 1110.72,214.443 1206.86,214.443 1206.86,240.663" />
<polyline class="TextLineSegment" fill="none" stroke="#000000" stroke-width="3.69" stroke-linejoin="miter" stroke-miterlimit="2" points="1296.26,865.235 1296.26,839.014 1618.62,839.014 1618.62,865.235" />
<polyline class="TextLineSegment" fill="none" stroke="#000000" stroke-width="3.69" stroke-linejoin="miter" stroke-miterlimit="2" points="2345.07,865.235 2345.07,839.014 2709.54,839.014 2709.54,865.235" />
<polyline class="TextLineSegment" fill="none" stroke="#000000" stroke-width="3.69" stroke-linejoin="miter" stroke-miterlimit="2" points="1642.85,262.164 1642.85,235.943 1892.62,235.943 1892.62,262.164" />
<polyline class="TextLineSegment" fill="none" stroke="#000000" stroke-width="3.69" stroke-linejoin="miter" stroke-miterlimit="2" points="1110.78,843.734 1110.78,817.513 1208.21,817.513 1208.21,843.734" />
<polyline class="TextLineSegment" fill="none" stroke="#000000" stroke-width="3.69" stroke-linejoin="miter" stroke-miterlimit="2" points="740.592,865.235 740.592,839.014 865.481,839.014 865.481,865.235" />
<polyline class="TextLineSegment" fill="none" stroke="#000000" stroke-width="3.69" stroke-linejoin="miter" stroke-miterlimit="2" points="1573.44,517.945 1573.44,491.724 1892.62,491.724 1892.62,517.945" />
<polyline class="TextLineSegment" fill="none" stroke="#000000" stroke-width="3.69" stroke-linejoin="miter" stroke-miterlimit="2" points="2345.07,1140.21 2345.07,1113.99 2709.54,1113.99 2709.54,1140.21" />
<polyline class="TextLineSegment" fill="none" stroke="#000000" stroke-width="3.69" stroke-linejoin="miter" stroke-miterlimit="2" points="1110.78,1140.55 1110.78,1114.33 1408.86,1114.33 1408.86,1140.55" />
<polyline class="TextLineSegment" fill="none" stroke="#000000" stroke-width="3.69" stroke-linejoin="miter" stroke-miterlimit="2" points="1435.08,1122.33 1435.08,1096.11 1549.21,1096.11 1549.21,1122.33" />
<polyline class="TextLineSegment" fill="none" stroke="#000000" stroke-width="3.69" stroke-linejoin="miter" stroke-miterlimit="2" points="1575.43,1121.02 1575.43,1094.79 1815.42,1094.79 1815.42,1121.02" />
<polyline class="TextLineSegment" fill="none" stroke="#000000" stroke-width="3.69" stroke-linejoin="miter" stroke-miterlimit="2" points="1433.08,519.256 1433.08,493.035 1547.22,493.035 1547.22,519.256" />
<polyline class="TextLineSegment" fill="none" stroke="#000000" stroke-width="3.69" stroke-linejoin="miter" stroke-miterlimit="2" points="1925.55,1140.55 1925.55,1114.33 2179.01,1114.33 2179.01,1140.55" />
<polyline class="TextLineSegment" fill="none" stroke="#000000" stroke-width="3.69" stroke-linejoin="miter" stroke-miterlimit="2" points="1110.72,537.479 1110.72,511.258 1406.86,511.258 1406.86,537.479" />
<polyline class="TextLineSegment" fill="none" stroke="#000000" stroke-width="3.69" stroke-linejoin="miter" stroke-miterlimit="2" points="2205.23,1140.55 2205.23,1114.33 2318.85,1114.33 2318.85,1140.55" />
<polyline class="LyricsLineSegment" fill="none" stroke="#000000" stroke-width="2.62" stroke-linejoin="bevel" points="940.898,1342.58 1039.85,1342.58" />
<polyline class="LyricsLineSegment" fill="none" stroke="#000000" stroke-width="2.62" stroke-linejoin="bevel" points="418.458,1331.77 434.19,1331.77" />
<polyline class="LyricsLineSegment" fill="none" stroke="#000000" stroke-width="2.62" stroke-linejoin="bevel" points="422.901,728.702 438.633,728.702" />
<polyline class="LyricsLineSegment" fill="none" stroke="#000000" stroke-width="2.62" stroke-linejoin="bevel" points="835.873,728.702 851.605,728.702" />
<polyline class="LyricsLineSegment" fill="none" stroke="#000000" stroke-width="2.62" stroke-linejoin="bevel" points="518.196,728.702 533.928,728.702" />
<polyline class="LyricsLineSegment" fill="none" stroke="#000000" stroke-width="2.62" stroke-linejoin="bevel" points="947.334,728.702 963.067,728.702" />
<polyline class="LyricsLineSegment" fill="none" stroke="#000000" stroke-width="2.62" stroke-linejoin="bevel" points="707.417,1331.77 723.15,1331.77" />
<polyline class="LyricsLineSegment" fill="none" stroke="#000000" stroke-width="2.62" stroke-linejoin="bevel" points="842.515,1331.77 858.247,1331.77" />
<path class="NoteDot" transform="matrix(1.04882,0,0,1.04882,2602.02,950.582)" d="M0,0 C0,2.8 2.2,5 5,5 C7.8,5 10,2.8 10,0 C10,-2.8 7.8,-5 5,-5 C2.2,-5 0,-2.8 0,0"/>
<path class="NoteDot" transform="matrix(1.04882,0,0,1.04882,2182.49,950.582)" d="M0,0 C0,2.8 2.2,5 5,5 C7.8,5 10,2.8 10,0 C10,-2.8 7.8,-5 5,-5 C2.2,-5 0,-2.8 0,0"/>
<path class="NoteDot" transform="matrix(1.04882,0,0,1.04882,1760.97,347.511)" d="M0,0 C0,2.8 2.2,5 5,5 C7.8,5 10,2.8 10,0 C10,-2.8 7.8,-5 5,-5 C2.2,-5 0,-2.8 0,0"/>
<path class="NoteDot" transform="matrix(1.04882,0,0,1.04882,2602.02,1225.9)" d="M0,0 C0,2.8 2.2,5 5,5 C7.8,5 10,2.8 10,0 C10,-2.8 7.8,-5 5,-5 C2.2,-5 0,-2.8 0,0"/>
<path class="NoteDot" transform="matrix(1.04882,0,0,1.04882,1760.97,622.826)" d="M0,0 C0,2.8 2.2,5 5,5 C7.8,5 10,2.8 10,0 C10,-2.8 7.8,-5 5,-5 C2.2,-5 0,-2.8 0,0"/>
<polyline class="Bracket" fill="none" stroke="#000000" stroke-width="2.88" stroke-linejoin="bevel" points="174.448,281.96 174.448,662.157" />
<polyline class="Bracket" fill="none" stroke="#000000" stroke-width="2.88" stroke-linejoin="bevel" points="173.006,281.96 189,281.96" />
<polyline class="Bracket" fill="none" stroke="#000000" stroke-width="2.88" stroke-linejoin="bevel" points="173.006,662.157 189,662.157" />
<polyline class="Bracket" fill="none" stroke="#000000" stroke-width="11.80" stroke-linejoin="bevel" points="194.9,262.95 194.9,681.167" />
<path class="Bracket" transform="matrix(1.04882,0,0,1.04882,189,268.85)" d="M48.4,-27.7 C48.2,-27.8 47.9,-27.9 47.7,-27.9 C47.3,-27.9 46.8,-27.8 46.6,-27.4 C46.4,-27.1 36.4,-11.7 17.3,-11.7 L1.4,-11.7 C0.6,-11.7 0,-11.2 0,-10.4 L0,0 L12.2,0 C43,0 48.9,-25.7 49,-26 C49,-26.1 49.1,-26.3 49.1,-26.5 C49.1,-27 48.8,-27.4 48.4,-27.7"/>
<path class="Bracket" transform="matrix(1.04882,0,0,1.04882,189,675.267)" d="M48.4,27.7 C48.8,27.4 49.1,27 49.1,26.5 C49.1,26.3 49,26.1 49,26 C48.9,25.7 43,0 12.2,0 L0,0 L0,10.4 C0,11.2 0.6,11.7 1.4,11.7 L17.3,11.7 C36.4,11.7 46.4,27.1 46.6,27.4 C46.8,27.8 47.3,27.9 47.7,27.9 C47.9,27.9 48.2,27.8 48.4,27.7"/>
<polyline class="Bracket" fill="none" stroke="#000000" stroke-width="2.88" stroke-linejoin="bevel" points="174.448,885.031 174.448,1265.23" />
<polyline class="Bracket" fill="none" stroke="#000000" stroke-width="2.88" stroke-linejoin="bevel" points="173.006,885.031 189,885.031" />
<polyline class="Bracket" fill="none" stroke="#000000" stroke-width="2.88" stroke-linejoin="bevel" points="173.006,1265.23 189,1265.23" />
<polyline class="Bracket" fill="none" stroke="#000000" stroke-width="11.80" stroke-linejoin="bevel" points="194.9,866.021 194.9,1284.24" />
<path class="Bracket" transform="matrix(1.04882,0,0,1.04882,189,871.921)" d="M48.4,-27.7 C48.2,-27.8 47.9,-27.9 47.7,-27.9 C47.3,-27.9 46.8,-27.8 46.6,-27.4 C46.4,-27.1 36.4,-11.7 17.3,-11.7 L1.4,-11.7 C0.6,-11.7 0,-11.2 0,-10.4 L0,0 L12.2,0 C43,0 48.9,-25.7 49,-26 C49,-26.1 49.1,-26.3 49.1,-26.5 C49.1,-27 48.8,-27.4 48.4,-27.7"/>
<path class="Bracket" transform="matrix(1.04882,0,0,1.04882,189,1278.34)" d="M48.4,27.7 C48.8,27.4 49.1,27 49.1,26.5 C49.1,26.3 49,26.1 49,26 C48.9,25.7 43,0 12.2,0 L0,0 L0,10.4 C0,11.2 0.6,11.7 1.4,11.7 L17.3,11.7 C36.4,11.7 46.4,27.1 46.6,27.4 C46.8,27.8 47.3,27.9 47.7,27.9 C47.9,27.9 48.2,27.8 48.4,27.7"/>
</svg>
